%TF.GenerationSoftware,KiCad,Pcbnew,9.0.0*%
%TF.CreationDate,2025-03-28T14:38:41+02:00*%
%TF.ProjectId,Main,4d61696e-2e6b-4696-9361-645f70636258,rev?*%
%TF.SameCoordinates,Original*%
%TF.FileFunction,Copper,L2,Bot*%
%TF.FilePolarity,Positive*%
%FSLAX46Y46*%
G04 Gerber Fmt 4.6, Leading zero omitted, Abs format (unit mm)*
G04 Created by KiCad (PCBNEW 9.0.0) date 2025-03-28 14:38:41*
%MOMM*%
%LPD*%
G01*
G04 APERTURE LIST*
G04 Aperture macros list*
%AMRoundRect*
0 Rectangle with rounded corners*
0 $1 Rounding radius*
0 $2 $3 $4 $5 $6 $7 $8 $9 X,Y pos of 4 corners*
0 Add a 4 corners polygon primitive as box body*
4,1,4,$2,$3,$4,$5,$6,$7,$8,$9,$2,$3,0*
0 Add four circle primitives for the rounded corners*
1,1,$1+$1,$2,$3*
1,1,$1+$1,$4,$5*
1,1,$1+$1,$6,$7*
1,1,$1+$1,$8,$9*
0 Add four rect primitives between the rounded corners*
20,1,$1+$1,$2,$3,$4,$5,0*
20,1,$1+$1,$4,$5,$6,$7,0*
20,1,$1+$1,$6,$7,$8,$9,0*
20,1,$1+$1,$8,$9,$2,$3,0*%
G04 Aperture macros list end*
%TA.AperFunction,ComponentPad*%
%ADD10RoundRect,0.250000X-0.350000X-0.625000X0.350000X-0.625000X0.350000X0.625000X-0.350000X0.625000X0*%
%TD*%
%TA.AperFunction,ComponentPad*%
%ADD11O,1.200000X1.750000*%
%TD*%
%TA.AperFunction,ComponentPad*%
%ADD12R,1.700000X1.700000*%
%TD*%
%TA.AperFunction,ComponentPad*%
%ADD13O,1.700000X1.700000*%
%TD*%
%TA.AperFunction,HeatsinkPad*%
%ADD14O,1.100000X1.700000*%
%TD*%
%TA.AperFunction,ComponentPad*%
%ADD15C,2.500000*%
%TD*%
%TA.AperFunction,ViaPad*%
%ADD16C,0.600000*%
%TD*%
%TA.AperFunction,Conductor*%
%ADD17C,0.500000*%
%TD*%
%TA.AperFunction,Conductor*%
%ADD18C,0.300000*%
%TD*%
%TA.AperFunction,Conductor*%
%ADD19C,0.200000*%
%TD*%
%TA.AperFunction,Conductor*%
%ADD20C,0.400000*%
%TD*%
G04 APERTURE END LIST*
D10*
%TO.P,J3,1,Pin_1*%
%TO.N,/Battery*%
X145580000Y-69420000D03*
D11*
%TO.P,J3,2,Pin_2*%
%TO.N,GND*%
X147580000Y-69420000D03*
%TD*%
D12*
%TO.P,J1,1,Pin_1*%
%TO.N,/Motor2_B_OUT*%
X155380000Y-101370000D03*
D13*
%TO.P,J1,2,Pin_2*%
%TO.N,/Motor2_A_OUT*%
X155380000Y-103910000D03*
%TO.P,J1,3,Pin_3*%
%TO.N,/Motor4_A_OUT*%
X152840000Y-101370000D03*
%TO.P,J1,4,Pin_4*%
%TO.N,/MOTOR2_CTRL1*%
X152840000Y-103910000D03*
%TO.P,J1,5,Pin_5*%
%TO.N,/Motor4_B_OUT*%
X150300000Y-101370000D03*
%TO.P,J1,6,Pin_6*%
%TO.N,/MOTOR2_CTRL2*%
X150300000Y-103910000D03*
%TO.P,J1,7,Pin_7*%
%TO.N,/CTRL_EXT_LOAD2*%
X147760000Y-101370000D03*
%TO.P,J1,8,Pin_8*%
%TO.N,/MOTOR4_CTRL1*%
X147760000Y-103910000D03*
%TO.P,J1,9,Pin_9*%
%TO.N,/USART2_RX*%
X145220000Y-101370000D03*
%TO.P,J1,10,Pin_10*%
%TO.N,/MOTOR4_CTRL2*%
X145220000Y-103910000D03*
%TO.P,J1,11,Pin_11*%
%TO.N,/EXT_LOAD2_OUT*%
X142680000Y-101370000D03*
%TO.P,J1,12,Pin_12*%
%TO.N,/USART2_TX*%
X142680000Y-103910000D03*
%TO.P,J1,13,Pin_13*%
%TO.N,/FAST_CHARGE_CTRL*%
X140140000Y-101370000D03*
%TO.P,J1,14,Pin_14*%
%TO.N,/Battery*%
X140140000Y-103910000D03*
%TO.P,J1,15,Pin_15*%
%TO.N,unconnected-(J1-Pin_15-Pad15)*%
X137600000Y-101370000D03*
%TO.P,J1,16,Pin_16*%
%TO.N,/I2C1_SCL*%
X137600000Y-103910000D03*
%TO.P,J1,17,Pin_17*%
%TO.N,/I2C1_SDA*%
X135060000Y-101370000D03*
%TO.P,J1,18,Pin_18*%
%TO.N,/3V3 Out*%
X135060000Y-103910000D03*
%TO.P,J1,19,Pin_19*%
%TO.N,GND*%
X132520000Y-101370000D03*
%TO.P,J1,20,Pin_20*%
%TO.N,/5V Out*%
X132520000Y-103910000D03*
%TO.P,J1,21,Pin_21*%
%TO.N,/EXT_LOAD1_OUT*%
X129980000Y-101370000D03*
%TO.P,J1,22,Pin_22*%
%TO.N,/High Voltage (9V)*%
X129980000Y-103910000D03*
%TO.P,J1,23,Pin_23*%
%TO.N,GND*%
X127440000Y-101370000D03*
%TO.P,J1,24,Pin_24*%
%TO.N,/MOTOR3_CTRL1*%
X127440000Y-103910000D03*
%TO.P,J1,25,Pin_25*%
%TO.N,/CTRL_EXT_LOAD1*%
X124900000Y-101370000D03*
%TO.P,J1,26,Pin_26*%
%TO.N,/MOTOR3_CTRL2*%
X124900000Y-103910000D03*
%TO.P,J1,27,Pin_27*%
%TO.N,/MOTOR3_A_OUT*%
X122360000Y-101370000D03*
%TO.P,J1,28,Pin_28*%
%TO.N,/MOTOR1_CTRL1*%
X122360000Y-103910000D03*
%TO.P,J1,29,Pin_29*%
%TO.N,/MOTOR3_B_OUT*%
X119820000Y-101370000D03*
%TO.P,J1,30,Pin_30*%
%TO.N,/MOTOR1_CTRL2*%
X119820000Y-103910000D03*
%TO.P,J1,31,Pin_31*%
%TO.N,/MOTOR1_B_OUT*%
X117280000Y-101370000D03*
%TO.P,J1,32,Pin_32*%
%TO.N,/MOTOR1_A_OUT*%
X117280000Y-103910000D03*
%TD*%
D14*
%TO.P,J2,S1*%
%TO.N,N/C*%
X146200000Y-57850000D03*
X146200000Y-54050000D03*
X137560000Y-57850000D03*
X137560000Y-54050000D03*
%TD*%
D15*
%TO.P,SW2,1,1*%
%TO.N,/Battery*%
X118550000Y-64028500D03*
%TO.P,SW2,2,2*%
%TO.N,/switch*%
X123350000Y-64028500D03*
%TO.P,SW2,3,3*%
%TO.N,Net-(R23-Pad2)*%
X128150000Y-64028500D03*
%TO.P,SW2,4,4*%
%TO.N,unconnected-(SW2-Pad4)*%
X116700000Y-54828500D03*
%TO.P,SW2,5,5*%
%TO.N,unconnected-(SW2-Pad5)*%
X130000000Y-54828500D03*
%TD*%
D16*
%TO.N,/High Voltage (9V)*%
X142970000Y-59910000D03*
X140430000Y-60050000D03*
%TO.N,GND*%
X105370000Y-64030000D03*
X111640000Y-63820000D03*
X118140000Y-66970000D03*
X128420000Y-82170000D03*
X144690000Y-56670000D03*
X141540000Y-56410000D03*
X103260000Y-105810000D03*
X137770000Y-97920000D03*
X102300000Y-67980000D03*
X120400000Y-99250000D03*
X107520000Y-87990000D03*
X107600000Y-99180000D03*
X113455000Y-98265000D03*
X105040000Y-68000000D03*
X106710000Y-78140000D03*
%TO.N,/High Voltage (9V)*%
X132350000Y-58300000D03*
X147840000Y-57810000D03*
X149060000Y-55450000D03*
X103730000Y-63570000D03*
X132865000Y-97405000D03*
%TO.N,/3V3 Out*%
X142500000Y-105930000D03*
X123140000Y-85650000D03*
X155520000Y-92900000D03*
X120230000Y-88770000D03*
X155520000Y-94530000D03*
X155520000Y-96940000D03*
%TO.N,/VOUT*%
X119285000Y-89695000D03*
X119190000Y-86830000D03*
X132850000Y-88790000D03*
X136240000Y-89960000D03*
%TO.N,/Battery*%
X146170000Y-110700000D03*
X164740000Y-108410000D03*
X140200000Y-96990000D03*
X162751000Y-110790000D03*
X134780000Y-82170000D03*
X139040000Y-78430000D03*
%TO.N,/5V Out*%
X130261000Y-110860000D03*
%TO.N,/switch*%
X163580000Y-86670000D03*
X164670000Y-78650000D03*
X138090000Y-65500000D03*
X124531500Y-65210000D03*
%TO.N,/MOTOR1_CTRL2*%
X168240000Y-97640000D03*
X120650000Y-107140000D03*
X169670000Y-96270000D03*
%TO.N,/MOTOR2_CTRL1*%
X154700000Y-107310000D03*
X165180000Y-105770000D03*
X166340000Y-104600000D03*
%TO.N,/I2C1_SCL*%
X135200000Y-99120000D03*
X129770000Y-99450000D03*
X124350000Y-95580000D03*
%TO.N,/MOTOR1_CTRL1*%
X168940000Y-98520000D03*
X170300000Y-97180000D03*
X122240000Y-107350000D03*
%TO.N,/FAST_CHARGE_CTRL*%
X146330000Y-97580000D03*
X142640000Y-99460000D03*
%TO.N,/CTRL_EXT_LOAD2*%
X158570000Y-95460000D03*
%TO.N,/I2C1_SDA*%
X123210000Y-95260000D03*
X128000000Y-99140000D03*
%TO.N,/EXT_LOAD2_OUT*%
X153540000Y-93860000D03*
X145320000Y-99610000D03*
%TO.N,/MOTOR4_CTRL2*%
X124690000Y-108050000D03*
X118500000Y-108740000D03*
X143620000Y-108320000D03*
%TO.N,/Motor4_A_OUT*%
X100380000Y-106660000D03*
X101620000Y-105400000D03*
X130300000Y-105860000D03*
X114060000Y-109870000D03*
%TO.N,/Motor2_B_OUT*%
X159990000Y-102480000D03*
%TO.N,/MOTOR3_B_OUT*%
X107620000Y-103980000D03*
%TO.N,/MOTOR3_CTRL1*%
X118750000Y-98450000D03*
%TO.N,/MOTOR2_CTRL2*%
X165950000Y-103440000D03*
X150490000Y-107110000D03*
X161200000Y-108190000D03*
%TO.N,/MOTOR1_B_OUT*%
X156800000Y-98280000D03*
X159740000Y-101220000D03*
%TO.N,/EXT_LOAD1_OUT*%
X101480000Y-55910000D03*
%TO.N,/MOTOR3_A_OUT*%
X108310000Y-103340000D03*
%TO.N,/Motor4_B_OUT*%
X121800000Y-96440000D03*
X125630000Y-96370000D03*
X139150000Y-99000000D03*
X106200000Y-103540000D03*
%TO.N,/MOTOR4_CTRL1*%
X128650000Y-107510000D03*
X121710000Y-109980000D03*
X147300000Y-107270000D03*
%TO.N,/CTRL_EXT_LOAD1*%
X96410000Y-57130000D03*
%TO.N,Net-(U7-L1)*%
X113040000Y-87420000D03*
X115110000Y-89540000D03*
%TO.N,Net-(Q3-C)*%
X138820000Y-90560000D03*
X136000000Y-96110000D03*
%TO.N,Net-(U3-VSET)*%
X154620000Y-56060000D03*
X154120000Y-59920000D03*
%TO.N,Net-(U8-AISEN)*%
X101610000Y-101320000D03*
X103160000Y-96310000D03*
%TO.N,Net-(U7-FB)*%
X108700000Y-88070000D03*
X108710000Y-89600000D03*
X106210000Y-83660000D03*
%TO.N,Net-(R23-Pad2)*%
X128210000Y-66260000D03*
%TD*%
D17*
%TO.N,/Battery*%
X116610000Y-64733500D02*
X117315000Y-64028500D01*
X116610000Y-75640000D02*
X116610000Y-64733500D01*
X125020000Y-84050000D02*
X116610000Y-75640000D01*
X134800000Y-84050000D02*
X125020000Y-84050000D01*
X117315000Y-64028500D02*
X118550000Y-64028500D01*
X136700000Y-84050000D02*
X134800000Y-84050000D01*
%TO.N,/High Voltage (9V)*%
X142830000Y-60050000D02*
X142970000Y-59910000D01*
X140430000Y-60050000D02*
X142830000Y-60050000D01*
D18*
%TO.N,GND*%
X105370000Y-64030000D02*
X105310000Y-64030000D01*
X111430000Y-64030000D02*
X105370000Y-64030000D01*
X111640000Y-63820000D02*
X111430000Y-64030000D01*
X128420000Y-77250000D02*
X118140000Y-66970000D01*
X128420000Y-82170000D02*
X128420000Y-77250000D01*
X143810000Y-56670000D02*
X144690000Y-56670000D01*
X143550000Y-56410000D02*
X143810000Y-56670000D01*
X141540000Y-56410000D02*
X143550000Y-56410000D01*
D19*
X136859662Y-99601000D02*
X139398943Y-99601000D01*
D18*
X105040000Y-68000000D02*
X105020000Y-67980000D01*
X114440000Y-99250000D02*
X113455000Y-98265000D01*
X120400000Y-99250000D02*
X114440000Y-99250000D01*
X113455000Y-98265000D02*
X113440000Y-98250000D01*
X103260000Y-105810000D02*
X103260000Y-103520000D01*
D19*
X139398943Y-99601000D02*
X139751000Y-99248943D01*
X138919943Y-97920000D02*
X137770000Y-97920000D01*
X134572250Y-98115669D02*
X135374331Y-98115669D01*
D18*
X107520000Y-87990000D02*
X105559000Y-86029000D01*
X105559000Y-79291000D02*
X106710000Y-78140000D01*
D19*
X139751000Y-99248943D02*
X139751000Y-98751057D01*
X135374331Y-98115669D02*
X136859662Y-99601000D01*
D18*
X105020000Y-67980000D02*
X102300000Y-67980000D01*
D19*
X132520000Y-101370000D02*
X132520000Y-100167919D01*
D18*
X103260000Y-103520000D02*
X107600000Y-99180000D01*
D19*
X132520000Y-100167919D02*
X134572250Y-98115669D01*
X139751000Y-98751057D02*
X138919943Y-97920000D01*
D18*
X105559000Y-86029000D02*
X105559000Y-79291000D01*
D17*
%TO.N,/High Voltage (9V)*%
X103730000Y-63570000D02*
X103730000Y-59030000D01*
X149060000Y-56590000D02*
X149060000Y-55450000D01*
D20*
X131240000Y-102650000D02*
X129980000Y-103910000D01*
D17*
X103730000Y-59030000D02*
X104450000Y-58310000D01*
X132865000Y-97575000D02*
X131319000Y-99121000D01*
D20*
X131319000Y-99121000D02*
X131240000Y-99200000D01*
X131240000Y-99200000D02*
X131240000Y-102650000D01*
D18*
X132340000Y-58310000D02*
X132350000Y-58300000D01*
D17*
X147840000Y-57810000D02*
X149060000Y-56590000D01*
X104450000Y-58310000D02*
X132340000Y-58310000D01*
D18*
X132865000Y-97405000D02*
X132865000Y-97575000D01*
%TO.N,/3V3 Out*%
X143881000Y-103412529D02*
X143881000Y-104549000D01*
X120230000Y-88560000D02*
X123140000Y-85650000D01*
X148961000Y-101010529D02*
X148961000Y-101867471D01*
X155520000Y-94530000D02*
X155520000Y-94720000D01*
X143881000Y-104549000D02*
X142500000Y-105930000D01*
X155520000Y-96940000D02*
X153031529Y-96940000D01*
X153031529Y-96940000D02*
X148961000Y-101010529D01*
X148961000Y-101867471D02*
X148119471Y-102709000D01*
X148119471Y-102709000D02*
X144584529Y-102709000D01*
X123140000Y-85650000D02*
X123160000Y-85630000D01*
X120230000Y-88770000D02*
X120230000Y-88560000D01*
X144584529Y-102709000D02*
X143881000Y-103412529D01*
X155520000Y-92900000D02*
X155520000Y-94530000D01*
%TO.N,/VOUT*%
X132850000Y-88790000D02*
X132820000Y-88790000D01*
X136240000Y-89960000D02*
X135070000Y-88790000D01*
X119190000Y-89600000D02*
X119285000Y-89695000D01*
X119285000Y-89695000D02*
X119310000Y-89720000D01*
X135070000Y-88790000D02*
X132850000Y-88790000D01*
X119190000Y-86830000D02*
X119190000Y-89600000D01*
%TO.N,/Battery*%
X141341000Y-98131000D02*
X141341000Y-102709000D01*
D17*
X140755000Y-97545000D02*
X141530000Y-96770000D01*
D18*
X140200000Y-96990000D02*
X140755000Y-97545000D01*
X163351083Y-110189917D02*
X162751000Y-110790000D01*
X164740000Y-109020000D02*
X164740000Y-108410000D01*
X163570083Y-110189917D02*
X164740000Y-109020000D01*
D17*
X141530000Y-96770000D02*
X141530000Y-88880000D01*
D18*
X140140000Y-106420000D02*
X140140000Y-103910000D01*
X146170000Y-110700000D02*
X144420000Y-110700000D01*
X141341000Y-102709000D02*
X140140000Y-103910000D01*
X163570083Y-110189917D02*
X163351083Y-110189917D01*
D17*
X134780000Y-84030000D02*
X134800000Y-84050000D01*
X134780000Y-82170000D02*
X134780000Y-84030000D01*
X139040000Y-78430000D02*
X135300000Y-82170000D01*
D18*
X144420000Y-110700000D02*
X140140000Y-106420000D01*
D17*
X117845000Y-64733500D02*
X118550000Y-64028500D01*
X141530000Y-88880000D02*
X136700000Y-84050000D01*
X135300000Y-82170000D02*
X134780000Y-82170000D01*
D18*
X140755000Y-97545000D02*
X141341000Y-98131000D01*
D17*
%TO.N,/5V Out*%
X132520000Y-108601000D02*
X132520000Y-103910000D01*
X130261000Y-110860000D02*
X132520000Y-108601000D01*
%TO.N,/switch*%
X164670000Y-85950000D02*
X164640000Y-85980000D01*
X137620000Y-65960000D02*
X133440000Y-70140000D01*
X123770000Y-70140000D02*
X123770000Y-65971500D01*
X137630000Y-65960000D02*
X137620000Y-65960000D01*
X163950000Y-86670000D02*
X163580000Y-86670000D01*
X164670000Y-78650000D02*
X164670000Y-85950000D01*
X123770000Y-65971500D02*
X124531500Y-65210000D01*
X164640000Y-85980000D02*
X163950000Y-86670000D01*
X133440000Y-70140000D02*
X123770000Y-70140000D01*
X138090000Y-65500000D02*
X137630000Y-65960000D01*
D18*
%TO.N,/MOTOR1_CTRL2*%
X120650000Y-107140000D02*
X119820000Y-106310000D01*
X169610000Y-96270000D02*
X169670000Y-96270000D01*
X119820000Y-106310000D02*
X119820000Y-103910000D01*
X168240000Y-97640000D02*
X169610000Y-96270000D01*
%TO.N,/MOTOR2_CTRL1*%
X154700000Y-107310000D02*
X154700000Y-105770000D01*
X165180000Y-105760000D02*
X165180000Y-105770000D01*
X166340000Y-104600000D02*
X165180000Y-105760000D01*
X154700000Y-105770000D02*
X152840000Y-103910000D01*
%TO.N,/I2C1_SCL*%
X129760000Y-99440000D02*
X129760000Y-98490000D01*
X125249000Y-97049000D02*
X124350000Y-96150000D01*
X129760000Y-98490000D02*
X128700000Y-97430000D01*
X135200000Y-99120000D02*
X136261000Y-100181000D01*
X136261000Y-100181000D02*
X136261000Y-102571000D01*
X124350000Y-96150000D02*
X124350000Y-95580000D01*
X126610000Y-97430000D02*
X126229000Y-97049000D01*
X126229000Y-97049000D02*
X125249000Y-97049000D01*
X129770000Y-99450000D02*
X129760000Y-99440000D01*
X128700000Y-97430000D02*
X126610000Y-97430000D01*
X136261000Y-102571000D02*
X137600000Y-103910000D01*
%TO.N,/MOTOR1_CTRL1*%
X168940000Y-98520000D02*
X170280000Y-97180000D01*
X122360000Y-107230000D02*
X122360000Y-103910000D01*
X170280000Y-97180000D02*
X170300000Y-97180000D01*
X122240000Y-107350000D02*
X122360000Y-107230000D01*
%TO.N,/FAST_CHARGE_CTRL*%
X142640000Y-99460000D02*
X144450000Y-99460000D01*
X144450000Y-99460000D02*
X146330000Y-97580000D01*
%TO.N,/CTRL_EXT_LOAD2*%
X153560000Y-95570000D02*
X147760000Y-101370000D01*
X158460000Y-95570000D02*
X153560000Y-95570000D01*
X158570000Y-95460000D02*
X158460000Y-95570000D01*
%TO.N,/I2C1_SDA*%
X126631480Y-99140000D02*
X128000000Y-99140000D01*
X123210000Y-95260000D02*
X123210000Y-95718520D01*
X123210000Y-95718520D02*
X126631480Y-99140000D01*
%TO.N,/EXT_LOAD2_OUT*%
X146630000Y-99610000D02*
X145320000Y-99610000D01*
X153540000Y-93860000D02*
X152380000Y-93860000D01*
X152380000Y-93860000D02*
X146630000Y-99610000D01*
%TO.N,/MOTOR4_CTRL2*%
X124000000Y-108740000D02*
X124690000Y-108050000D01*
X118500000Y-108740000D02*
X124000000Y-108740000D01*
X143620000Y-108320000D02*
X145220000Y-106720000D01*
X145220000Y-106720000D02*
X145220000Y-103910000D01*
%TO.N,/Motor4_A_OUT*%
X128190000Y-105860000D02*
X124721000Y-109329000D01*
X114290000Y-109640000D02*
X114060000Y-109870000D01*
X124721000Y-109329000D02*
X121440346Y-109329000D01*
X121440346Y-109329000D02*
X121129346Y-109640000D01*
X130300000Y-105860000D02*
X128190000Y-105860000D01*
X101620000Y-105400000D02*
X100380000Y-106640000D01*
X121129346Y-109640000D02*
X114290000Y-109640000D01*
X100380000Y-106640000D02*
X100380000Y-106660000D01*
%TO.N,/Motor2_B_OUT*%
X158880000Y-101370000D02*
X159990000Y-102480000D01*
X155380000Y-101370000D02*
X158880000Y-101370000D01*
%TO.N,/MOTOR3_B_OUT*%
X110560346Y-100169000D02*
X118619000Y-100169000D01*
X107620000Y-103109346D02*
X110560346Y-100169000D01*
X118619000Y-100169000D02*
X119820000Y-101370000D01*
X107620000Y-103980000D02*
X107620000Y-103109346D01*
%TO.N,/MOTOR3_CTRL1*%
X126120000Y-100891529D02*
X126120000Y-102590000D01*
X126120000Y-102590000D02*
X127440000Y-103910000D01*
X123678471Y-98450000D02*
X126120000Y-100891529D01*
X118750000Y-98450000D02*
X123678471Y-98450000D01*
%TO.N,/MOTOR2_CTRL2*%
X165950000Y-103440000D02*
X161200000Y-108190000D01*
X161200000Y-108190000D02*
X161140000Y-108250000D01*
X150300000Y-106920000D02*
X150300000Y-103910000D01*
X150490000Y-107110000D02*
X150300000Y-106920000D01*
%TO.N,/MOTOR1_B_OUT*%
X156770000Y-98250000D02*
X156720000Y-98250000D01*
X156800000Y-98280000D02*
X156770000Y-98250000D01*
X159740000Y-101220000D02*
X156800000Y-98280000D01*
%TO.N,/EXT_LOAD1_OUT*%
X126390000Y-99970000D02*
X121330000Y-94910000D01*
X129650000Y-101370000D02*
X128250000Y-99970000D01*
X101500000Y-55930000D02*
X101480000Y-55910000D01*
X101480000Y-55910000D02*
X101470000Y-55900000D01*
X121330000Y-94910000D02*
X103710000Y-94910000D01*
X129980000Y-101370000D02*
X129650000Y-101370000D01*
X103710000Y-94910000D02*
X101500000Y-92700000D01*
X101500000Y-92700000D02*
X101500000Y-55930000D01*
X128250000Y-99970000D02*
X126390000Y-99970000D01*
%TO.N,/MOTOR3_A_OUT*%
X121159000Y-102571000D02*
X122360000Y-101370000D01*
X108310000Y-103340000D02*
X109079000Y-102571000D01*
X109079000Y-102571000D02*
X121159000Y-102571000D01*
%TO.N,/Motor4_B_OUT*%
X106200000Y-103540000D02*
X113300000Y-96440000D01*
X134376471Y-96310000D02*
X137066471Y-99000000D01*
X125690000Y-96310000D02*
X134376471Y-96310000D01*
X113300000Y-96440000D02*
X121800000Y-96440000D01*
X137066471Y-99000000D02*
X139150000Y-99000000D01*
X125630000Y-96370000D02*
X125690000Y-96310000D01*
%TO.N,/MOTOR4_CTRL1*%
X126080000Y-110080000D02*
X128650000Y-107510000D01*
X121960000Y-110080000D02*
X122889346Y-110080000D01*
X122889346Y-110080000D02*
X122990346Y-109979000D01*
X147300000Y-107270000D02*
X147760000Y-106810000D01*
X122990346Y-109979000D02*
X123529654Y-109979000D01*
X121710000Y-109980000D02*
X121860000Y-109980000D01*
X147760000Y-106810000D02*
X147760000Y-103910000D01*
X123529654Y-109979000D02*
X123630654Y-110080000D01*
X123630654Y-110080000D02*
X126080000Y-110080000D01*
X121860000Y-109980000D02*
X121960000Y-110080000D01*
%TO.N,/CTRL_EXT_LOAD1*%
X98670000Y-57350000D02*
X98670000Y-106190000D01*
X96460000Y-57180000D02*
X96410000Y-57130000D01*
X123561000Y-106949654D02*
X123561000Y-102709000D01*
X100500000Y-108020000D02*
X122490654Y-108020000D01*
X98500000Y-57180000D02*
X98670000Y-57350000D01*
X98500000Y-57180000D02*
X96460000Y-57180000D01*
X122490654Y-108020000D02*
X123561000Y-106949654D01*
X123561000Y-102709000D02*
X124900000Y-101370000D01*
X98670000Y-106190000D02*
X100500000Y-108020000D01*
%TO.N,Net-(U7-L1)*%
X115110000Y-89540000D02*
X113040000Y-87470000D01*
X113040000Y-87470000D02*
X113040000Y-87420000D01*
%TO.N,Net-(Q3-C)*%
X138780000Y-94400000D02*
X138780000Y-90600000D01*
X138780000Y-90600000D02*
X138820000Y-90560000D01*
X137070000Y-96110000D02*
X138780000Y-94400000D01*
X136000000Y-96110000D02*
X137070000Y-96110000D01*
D19*
%TO.N,Net-(U3-VSET)*%
X154480000Y-56200000D02*
X154620000Y-56060000D01*
X154120000Y-59920000D02*
X154480000Y-59560000D01*
X154480000Y-56920000D02*
X154480000Y-56200000D01*
X154480000Y-59560000D02*
X154480000Y-56920000D01*
D18*
%TO.N,Net-(U8-AISEN)*%
X101610000Y-101320000D02*
X101610000Y-97860000D01*
X101610000Y-97860000D02*
X103160000Y-96310000D01*
X103160000Y-96310000D02*
X103170000Y-96300000D01*
%TO.N,Net-(U7-FB)*%
X106480000Y-83920000D02*
X106220000Y-83660000D01*
X108700000Y-86140000D02*
X106480000Y-83920000D01*
X106220000Y-83660000D02*
X106210000Y-83660000D01*
X108700000Y-88070000D02*
X108700000Y-86140000D01*
X108700000Y-89590000D02*
X108710000Y-89600000D01*
X108700000Y-88070000D02*
X108700000Y-89590000D01*
%TO.N,Net-(R23-Pad2)*%
X128210000Y-66260000D02*
X128190000Y-66240000D01*
X128210000Y-66260000D02*
X128210000Y-64088500D01*
X128210000Y-64088500D02*
X128150000Y-64028500D01*
%TD*%
%TA.AperFunction,Conductor*%
%TO.N,GND*%
G36*
X173945548Y-51330266D02*
G01*
X174012578Y-51349976D01*
X174058314Y-51402797D01*
X174069500Y-51454266D01*
X174069500Y-111165267D01*
X174049815Y-111232306D01*
X173997011Y-111278061D01*
X173945454Y-111289267D01*
X163597780Y-111285415D01*
X163571065Y-111277559D01*
X163543604Y-111272932D01*
X163538005Y-111267839D01*
X163530748Y-111265705D01*
X163512521Y-111244655D01*
X163491921Y-111225914D01*
X163489965Y-111218604D01*
X163485012Y-111212884D01*
X163481059Y-111185320D01*
X163473862Y-111158419D01*
X163475852Y-111149006D01*
X163475095Y-111143722D01*
X163479728Y-111123615D01*
X163481295Y-111118718D01*
X163520737Y-111023497D01*
X163535452Y-110949513D01*
X163537598Y-110942811D01*
X163553401Y-110919480D01*
X163566463Y-110894510D01*
X163568015Y-110892930D01*
X163590549Y-110870396D01*
X163651871Y-110836912D01*
X163654003Y-110836468D01*
X163759827Y-110815418D01*
X163878210Y-110766382D01*
X163903120Y-110749738D01*
X163903121Y-110749738D01*
X163969328Y-110705500D01*
X163984752Y-110695194D01*
X165245276Y-109434670D01*
X165280870Y-109381398D01*
X165316464Y-109328129D01*
X165316465Y-109328127D01*
X165365501Y-109209744D01*
X165375276Y-109160602D01*
X165390500Y-109084071D01*
X165390500Y-108914935D01*
X165410185Y-108847896D01*
X165411366Y-108846090D01*
X165449394Y-108789179D01*
X165509737Y-108643497D01*
X165540500Y-108488842D01*
X165540500Y-108331158D01*
X165540500Y-108331155D01*
X165540499Y-108331153D01*
X165539676Y-108327015D01*
X165509737Y-108176503D01*
X165491215Y-108131786D01*
X165449397Y-108030827D01*
X165449390Y-108030814D01*
X165361789Y-107899711D01*
X165361786Y-107899707D01*
X165250292Y-107788213D01*
X165250288Y-107788210D01*
X165119185Y-107700609D01*
X165119172Y-107700602D01*
X164973501Y-107640264D01*
X164973489Y-107640261D01*
X164818845Y-107609500D01*
X164818842Y-107609500D01*
X164661158Y-107609500D01*
X164661155Y-107609500D01*
X164506510Y-107640261D01*
X164506498Y-107640264D01*
X164360827Y-107700602D01*
X164360814Y-107700609D01*
X164229711Y-107788210D01*
X164229707Y-107788213D01*
X164118213Y-107899707D01*
X164118210Y-107899711D01*
X164030609Y-108030814D01*
X164030602Y-108030827D01*
X163970264Y-108176498D01*
X163970261Y-108176510D01*
X163939500Y-108331153D01*
X163939500Y-108488846D01*
X163970261Y-108643489D01*
X163970264Y-108643501D01*
X164004835Y-108726964D01*
X164012304Y-108796434D01*
X163981028Y-108858913D01*
X163977955Y-108862097D01*
X163330617Y-109509436D01*
X163316886Y-109517397D01*
X163307858Y-109527401D01*
X163282442Y-109537366D01*
X163275464Y-109541413D01*
X163271329Y-109542536D01*
X163161339Y-109564416D01*
X163112304Y-109584727D01*
X163105008Y-109587748D01*
X163104997Y-109587752D01*
X163042964Y-109613447D01*
X163042946Y-109613457D01*
X162936415Y-109684638D01*
X162936408Y-109684644D01*
X162648068Y-109972984D01*
X162586745Y-110006469D01*
X162584579Y-110006920D01*
X162517508Y-110020261D01*
X162517498Y-110020264D01*
X162371827Y-110080602D01*
X162371814Y-110080609D01*
X162240711Y-110168210D01*
X162240707Y-110168213D01*
X162129213Y-110279707D01*
X162129210Y-110279711D01*
X162041609Y-110410814D01*
X162041602Y-110410827D01*
X161981264Y-110556498D01*
X161981261Y-110556510D01*
X161950500Y-110711153D01*
X161950500Y-110868846D01*
X161981261Y-111023489D01*
X161981264Y-111023501D01*
X162018473Y-111113332D01*
X162025942Y-111182801D01*
X161994666Y-111245280D01*
X161934577Y-111280932D01*
X161903866Y-111284784D01*
X146977667Y-111279228D01*
X146910635Y-111259518D01*
X146864899Y-111206697D01*
X146854982Y-111137535D01*
X146874613Y-111086333D01*
X146879394Y-111079179D01*
X146939737Y-110933497D01*
X146970500Y-110778842D01*
X146970500Y-110621158D01*
X146970500Y-110621155D01*
X146970499Y-110621153D01*
X146962193Y-110579397D01*
X146939737Y-110466503D01*
X146939735Y-110466498D01*
X146879397Y-110320827D01*
X146879390Y-110320814D01*
X146791789Y-110189711D01*
X146791786Y-110189707D01*
X146680292Y-110078213D01*
X146680288Y-110078210D01*
X146549185Y-109990609D01*
X146549172Y-109990602D01*
X146403501Y-109930264D01*
X146403489Y-109930261D01*
X146248845Y-109899500D01*
X146248842Y-109899500D01*
X146091158Y-109899500D01*
X146091155Y-109899500D01*
X145936510Y-109930261D01*
X145936498Y-109930264D01*
X145790827Y-109990602D01*
X145790820Y-109990606D01*
X145777387Y-109999582D01*
X145733955Y-110028602D01*
X145667279Y-110049480D01*
X145665065Y-110049500D01*
X144740808Y-110049500D01*
X144673769Y-110029815D01*
X144653127Y-110013181D01*
X143897171Y-109257225D01*
X143863686Y-109195902D01*
X143868670Y-109126210D01*
X143910542Y-109070277D01*
X143937393Y-109054985D01*
X143999179Y-109029394D01*
X144130289Y-108941789D01*
X144241789Y-108830289D01*
X144329394Y-108699179D01*
X144389737Y-108553497D01*
X144403079Y-108486416D01*
X144435463Y-108424509D01*
X144436958Y-108422986D01*
X144748791Y-108111153D01*
X160399500Y-108111153D01*
X160399500Y-108268846D01*
X160430261Y-108423489D01*
X160430264Y-108423501D01*
X160490602Y-108569172D01*
X160490609Y-108569185D01*
X160578210Y-108700288D01*
X160578213Y-108700292D01*
X160689707Y-108811786D01*
X160689711Y-108811789D01*
X160820814Y-108899390D01*
X160820827Y-108899397D01*
X160966498Y-108959735D01*
X160966503Y-108959737D01*
X161066778Y-108979683D01*
X161121153Y-108990499D01*
X161121156Y-108990500D01*
X161121158Y-108990500D01*
X161278844Y-108990500D01*
X161278845Y-108990499D01*
X161433497Y-108959737D01*
X161579179Y-108899394D01*
X161710289Y-108811789D01*
X161821789Y-108700289D01*
X161909394Y-108569179D01*
X161969737Y-108423497D01*
X161983079Y-108356416D01*
X162015463Y-108294509D01*
X162016959Y-108292985D01*
X164248633Y-106061311D01*
X164309954Y-106027828D01*
X164379646Y-106032812D01*
X164435579Y-106074684D01*
X164450873Y-106101540D01*
X164470606Y-106149179D01*
X164470609Y-106149185D01*
X164558210Y-106280288D01*
X164558213Y-106280292D01*
X164669707Y-106391786D01*
X164669711Y-106391789D01*
X164800814Y-106479390D01*
X164800827Y-106479397D01*
X164946498Y-106539735D01*
X164946503Y-106539737D01*
X165095578Y-106569390D01*
X165101153Y-106570499D01*
X165101156Y-106570500D01*
X165101158Y-106570500D01*
X165258844Y-106570500D01*
X165258845Y-106570499D01*
X165413497Y-106539737D01*
X165547888Y-106484071D01*
X165559172Y-106479397D01*
X165559172Y-106479396D01*
X165559179Y-106479394D01*
X165690289Y-106391789D01*
X165801789Y-106280289D01*
X165889394Y-106149179D01*
X165949737Y-106003497D01*
X165965562Y-105923934D01*
X165997946Y-105862026D01*
X165999442Y-105860502D01*
X166442931Y-105417013D01*
X166504252Y-105383530D01*
X166506317Y-105383099D01*
X166573497Y-105369737D01*
X166719179Y-105309394D01*
X166850289Y-105221789D01*
X166961789Y-105110289D01*
X167049394Y-104979179D01*
X167109737Y-104833497D01*
X167140500Y-104678842D01*
X167140500Y-104521158D01*
X167140500Y-104521155D01*
X167140499Y-104521153D01*
X167134360Y-104490289D01*
X167109737Y-104366503D01*
X167106703Y-104359179D01*
X167049397Y-104220827D01*
X167049390Y-104220814D01*
X166961789Y-104089711D01*
X166961786Y-104089707D01*
X166850292Y-103978213D01*
X166850288Y-103978210D01*
X166733794Y-103900371D01*
X166688989Y-103846759D01*
X166680282Y-103777434D01*
X166688122Y-103749822D01*
X166719737Y-103673497D01*
X166750500Y-103518842D01*
X166750500Y-103361158D01*
X166750500Y-103361155D01*
X166750499Y-103361153D01*
X166727094Y-103243489D01*
X166719737Y-103206503D01*
X166700812Y-103160814D01*
X166659397Y-103060827D01*
X166659390Y-103060814D01*
X166571789Y-102929711D01*
X166571786Y-102929707D01*
X166460292Y-102818213D01*
X166460288Y-102818210D01*
X166329185Y-102730609D01*
X166329172Y-102730602D01*
X166183501Y-102670264D01*
X166183489Y-102670261D01*
X166028845Y-102639500D01*
X166028842Y-102639500D01*
X165871158Y-102639500D01*
X165871155Y-102639500D01*
X165716510Y-102670261D01*
X165716498Y-102670264D01*
X165570827Y-102730602D01*
X165570814Y-102730609D01*
X165439711Y-102818210D01*
X165439707Y-102818213D01*
X165328213Y-102929707D01*
X165328210Y-102929711D01*
X165240609Y-103060814D01*
X165240602Y-103060827D01*
X165180264Y-103206498D01*
X165180261Y-103206508D01*
X165166920Y-103273579D01*
X165134535Y-103335490D01*
X165132984Y-103337068D01*
X161097068Y-107372984D01*
X161035745Y-107406469D01*
X161033579Y-107406920D01*
X160966508Y-107420261D01*
X160966498Y-107420264D01*
X160820827Y-107480602D01*
X160820814Y-107480609D01*
X160689711Y-107568210D01*
X160689707Y-107568213D01*
X160578213Y-107679707D01*
X160578210Y-107679711D01*
X160490609Y-107810814D01*
X160490602Y-107810827D01*
X160430264Y-107956498D01*
X160430261Y-107956510D01*
X160399500Y-108111153D01*
X144748791Y-108111153D01*
X145725277Y-107134669D01*
X145796465Y-107028127D01*
X145835646Y-106933535D01*
X145845501Y-106909744D01*
X145849784Y-106888211D01*
X145870500Y-106784071D01*
X145870500Y-105169617D01*
X145890185Y-105102578D01*
X145924592Y-105068902D01*
X145923874Y-105067914D01*
X145927811Y-105065053D01*
X145927816Y-105065051D01*
X146099792Y-104940104D01*
X146250104Y-104789792D01*
X146250106Y-104789788D01*
X146250109Y-104789786D01*
X146375048Y-104617820D01*
X146375047Y-104617820D01*
X146375051Y-104617816D01*
X146379514Y-104609054D01*
X146427488Y-104558259D01*
X146495308Y-104541463D01*
X146561444Y-104563999D01*
X146600486Y-104609056D01*
X146604951Y-104617820D01*
X146729890Y-104789786D01*
X146729896Y-104789792D01*
X146880208Y-104940104D01*
X147052184Y-105065051D01*
X147052188Y-105065053D01*
X147056126Y-105067914D01*
X147055146Y-105069262D01*
X147097160Y-105115690D01*
X147109500Y-105169617D01*
X147109500Y-106399598D01*
X147089815Y-106466637D01*
X147037011Y-106512392D01*
X147032953Y-106514159D01*
X146920824Y-106560604D01*
X146920814Y-106560609D01*
X146789711Y-106648210D01*
X146789707Y-106648213D01*
X146678213Y-106759707D01*
X146678210Y-106759711D01*
X146590609Y-106890814D01*
X146590602Y-106890827D01*
X146530264Y-107036498D01*
X146530261Y-107036510D01*
X146499500Y-107191153D01*
X146499500Y-107348846D01*
X146530261Y-107503489D01*
X146530264Y-107503501D01*
X146590602Y-107649172D01*
X146590609Y-107649185D01*
X146678210Y-107780288D01*
X146678213Y-107780292D01*
X146789707Y-107891786D01*
X146789711Y-107891789D01*
X146920814Y-107979390D01*
X146920827Y-107979397D01*
X147044992Y-108030827D01*
X147066503Y-108039737D01*
X147221153Y-108070499D01*
X147221156Y-108070500D01*
X147221158Y-108070500D01*
X147378844Y-108070500D01*
X147378845Y-108070499D01*
X147533497Y-108039737D01*
X147679179Y-107979394D01*
X147810289Y-107891789D01*
X147921789Y-107780289D01*
X148009394Y-107649179D01*
X148069737Y-107503497D01*
X148083079Y-107436416D01*
X148115463Y-107374509D01*
X148116961Y-107372984D01*
X148265276Y-107224670D01*
X148336465Y-107118127D01*
X148385501Y-106999744D01*
X148395345Y-106950256D01*
X148404330Y-106905087D01*
X148410500Y-106874070D01*
X148410500Y-105169617D01*
X148430185Y-105102578D01*
X148464592Y-105068902D01*
X148463874Y-105067914D01*
X148467811Y-105065053D01*
X148467816Y-105065051D01*
X148639792Y-104940104D01*
X148790104Y-104789792D01*
X148790106Y-104789788D01*
X148790109Y-104789786D01*
X148915048Y-104617820D01*
X148915047Y-104617820D01*
X148915051Y-104617816D01*
X148919514Y-104609054D01*
X148967488Y-104558259D01*
X149035308Y-104541463D01*
X149101444Y-104563999D01*
X149140486Y-104609056D01*
X149144951Y-104617820D01*
X149269890Y-104789786D01*
X149269896Y-104789792D01*
X149420208Y-104940104D01*
X149592184Y-105065051D01*
X149592188Y-105065053D01*
X149596126Y-105067914D01*
X149595146Y-105069262D01*
X149637160Y-105115690D01*
X149649500Y-105169617D01*
X149649500Y-106984071D01*
X149670446Y-107089372D01*
X149670447Y-107089378D01*
X149671632Y-107095331D01*
X149674499Y-107109744D01*
X149682399Y-107128816D01*
X149684171Y-107134663D01*
X149684253Y-107144248D01*
X149689500Y-107170624D01*
X149689500Y-107188846D01*
X149720261Y-107343489D01*
X149720264Y-107343501D01*
X149780602Y-107489172D01*
X149780609Y-107489185D01*
X149868210Y-107620288D01*
X149868213Y-107620292D01*
X149979707Y-107731786D01*
X149979711Y-107731789D01*
X150110814Y-107819390D01*
X150110827Y-107819397D01*
X150256498Y-107879735D01*
X150256503Y-107879737D01*
X150411153Y-107910499D01*
X150411156Y-107910500D01*
X150411158Y-107910500D01*
X150568844Y-107910500D01*
X150568845Y-107910499D01*
X150723497Y-107879737D01*
X150869179Y-107819394D01*
X151000289Y-107731789D01*
X151111789Y-107620289D01*
X151199394Y-107489179D01*
X151259737Y-107343497D01*
X151290500Y-107188842D01*
X151290500Y-107031158D01*
X151290500Y-107031155D01*
X151290499Y-107031153D01*
X151278498Y-106970821D01*
X151259737Y-106876503D01*
X151258681Y-106873954D01*
X151199397Y-106730827D01*
X151199390Y-106730814D01*
X151111789Y-106599711D01*
X151111786Y-106599707D01*
X151000295Y-106488216D01*
X150995834Y-106484555D01*
X150956500Y-106426809D01*
X150950500Y-106388702D01*
X150950500Y-105169617D01*
X150970185Y-105102578D01*
X151004592Y-105068902D01*
X151003874Y-105067914D01*
X151007811Y-105065053D01*
X151007816Y-105065051D01*
X151179792Y-104940104D01*
X151330104Y-104789792D01*
X151330106Y-104789788D01*
X151330109Y-104789786D01*
X151455048Y-104617820D01*
X151455047Y-104617820D01*
X151455051Y-104617816D01*
X151459514Y-104609054D01*
X151507488Y-104558259D01*
X151575308Y-104541463D01*
X151641444Y-104563999D01*
X151680486Y-104609056D01*
X151684951Y-104617820D01*
X151809890Y-104789786D01*
X151960213Y-104940109D01*
X152132179Y-105065048D01*
X152132181Y-105065049D01*
X152132184Y-105065051D01*
X152321588Y-105161557D01*
X152523757Y-105227246D01*
X152733713Y-105260500D01*
X152733714Y-105260500D01*
X152946286Y-105260500D01*
X152946287Y-105260500D01*
X153087013Y-105238211D01*
X153161055Y-105226484D01*
X153161315Y-105228126D01*
X153223863Y-105231254D01*
X153270712Y-105260657D01*
X154013181Y-106003126D01*
X154046666Y-106064449D01*
X154049500Y-106090807D01*
X154049500Y-106805064D01*
X154029815Y-106872103D01*
X154028603Y-106873954D01*
X153990608Y-106930817D01*
X153990602Y-106930828D01*
X153930264Y-107076498D01*
X153930261Y-107076510D01*
X153899500Y-107231153D01*
X153899500Y-107388846D01*
X153930261Y-107543489D01*
X153930264Y-107543501D01*
X153990602Y-107689172D01*
X153990609Y-107689185D01*
X154078210Y-107820288D01*
X154078213Y-107820292D01*
X154189707Y-107931786D01*
X154189711Y-107931789D01*
X154320814Y-108019390D01*
X154320827Y-108019397D01*
X154464888Y-108079068D01*
X154466503Y-108079737D01*
X154621153Y-108110499D01*
X154621156Y-108110500D01*
X154621158Y-108110500D01*
X154778844Y-108110500D01*
X154778845Y-108110499D01*
X154933497Y-108079737D01*
X155051592Y-108030821D01*
X155079172Y-108019397D01*
X155079172Y-108019396D01*
X155079179Y-108019394D01*
X155079186Y-108019388D01*
X155079190Y-108019387D01*
X155105262Y-108001966D01*
X155105266Y-108001964D01*
X155173309Y-107956498D01*
X155210289Y-107931789D01*
X155321789Y-107820289D01*
X155409394Y-107689179D01*
X155469737Y-107543497D01*
X155500500Y-107388842D01*
X155500500Y-107231158D01*
X155500500Y-107231155D01*
X155500499Y-107231153D01*
X155492542Y-107191153D01*
X155469737Y-107076503D01*
X155463381Y-107061158D01*
X155409397Y-106930828D01*
X155409396Y-106930827D01*
X155409394Y-106930821D01*
X155371396Y-106873953D01*
X155350520Y-106807276D01*
X155350500Y-106805064D01*
X155350500Y-105705928D01*
X155325502Y-105580261D01*
X155325501Y-105580260D01*
X155325501Y-105580256D01*
X155284311Y-105480814D01*
X155276466Y-105461875D01*
X155276464Y-105461872D01*
X155270798Y-105453392D01*
X155249920Y-105386714D01*
X155268404Y-105319334D01*
X155320382Y-105272644D01*
X155373900Y-105260500D01*
X155486286Y-105260500D01*
X155486287Y-105260500D01*
X155696243Y-105227246D01*
X155898412Y-105161557D01*
X156087816Y-105065051D01*
X156148694Y-105020821D01*
X156259786Y-104940109D01*
X156259788Y-104940106D01*
X156259792Y-104940104D01*
X156410104Y-104789792D01*
X156410106Y-104789788D01*
X156410109Y-104789786D01*
X156535048Y-104617820D01*
X156535047Y-104617820D01*
X156535051Y-104617816D01*
X156631557Y-104428412D01*
X156697246Y-104226243D01*
X156730500Y-104016287D01*
X156730500Y-103803713D01*
X156697246Y-103593757D01*
X156631557Y-103391588D01*
X156535051Y-103202184D01*
X156535049Y-103202181D01*
X156535048Y-103202179D01*
X156410109Y-103030213D01*
X156296569Y-102916673D01*
X156263084Y-102855350D01*
X156268068Y-102785658D01*
X156309940Y-102729725D01*
X156340915Y-102712810D01*
X156472331Y-102663796D01*
X156587546Y-102577546D01*
X156673796Y-102462331D01*
X156724091Y-102327483D01*
X156730500Y-102267873D01*
X156730500Y-102144500D01*
X156750185Y-102077461D01*
X156802989Y-102031706D01*
X156854500Y-102020500D01*
X158559192Y-102020500D01*
X158626231Y-102040185D01*
X158646873Y-102056819D01*
X159172984Y-102582930D01*
X159206469Y-102644253D01*
X159206920Y-102646420D01*
X159220261Y-102713489D01*
X159220264Y-102713501D01*
X159280602Y-102859172D01*
X159280609Y-102859185D01*
X159368210Y-102990288D01*
X159368213Y-102990292D01*
X159479707Y-103101786D01*
X159479711Y-103101789D01*
X159610814Y-103189390D01*
X159610827Y-103189397D01*
X159735856Y-103241185D01*
X159756503Y-103249737D01*
X159911153Y-103280499D01*
X159911156Y-103280500D01*
X159911158Y-103280500D01*
X160068844Y-103280500D01*
X160068845Y-103280499D01*
X160223497Y-103249737D01*
X160369179Y-103189394D01*
X160500289Y-103101789D01*
X160611789Y-102990289D01*
X160699394Y-102859179D01*
X160759737Y-102713497D01*
X160790500Y-102558842D01*
X160790500Y-102401158D01*
X160790500Y-102401155D01*
X160790499Y-102401153D01*
X160770366Y-102299939D01*
X160759737Y-102246503D01*
X160738786Y-102195922D01*
X160699397Y-102100827D01*
X160699390Y-102100814D01*
X160611789Y-101969711D01*
X160611786Y-101969707D01*
X160500292Y-101858213D01*
X160500288Y-101858210D01*
X160448548Y-101823638D01*
X160403743Y-101770025D01*
X160395036Y-101700700D01*
X160414338Y-101651644D01*
X160449389Y-101599187D01*
X160449390Y-101599184D01*
X160449394Y-101599179D01*
X160509737Y-101453497D01*
X160540500Y-101298842D01*
X160540500Y-101141158D01*
X160540500Y-101141155D01*
X160540499Y-101141153D01*
X160509738Y-100986510D01*
X160509737Y-100986503D01*
X160509735Y-100986498D01*
X160449397Y-100840827D01*
X160449390Y-100840814D01*
X160361789Y-100709711D01*
X160361786Y-100709707D01*
X160250292Y-100598213D01*
X160250288Y-100598210D01*
X160119185Y-100510609D01*
X160119172Y-100510602D01*
X159973501Y-100450264D01*
X159973489Y-100450261D01*
X159906420Y-100436920D01*
X159844509Y-100404535D01*
X159842930Y-100402984D01*
X157617015Y-98177069D01*
X157583530Y-98115746D01*
X157583093Y-98113652D01*
X157569737Y-98046503D01*
X157537426Y-97968496D01*
X157509397Y-97900827D01*
X157509390Y-97900814D01*
X157421789Y-97769711D01*
X157421786Y-97769707D01*
X157310292Y-97658213D01*
X157310287Y-97658209D01*
X157310227Y-97658169D01*
X157310225Y-97658168D01*
X157179185Y-97570609D01*
X157179172Y-97570602D01*
X157156360Y-97561153D01*
X167439500Y-97561153D01*
X167439500Y-97718846D01*
X167470261Y-97873489D01*
X167470264Y-97873501D01*
X167530602Y-98019172D01*
X167530609Y-98019185D01*
X167618210Y-98150288D01*
X167618213Y-98150292D01*
X167729707Y-98261786D01*
X167729711Y-98261789D01*
X167860814Y-98349390D01*
X167860827Y-98349397D01*
X167945643Y-98384528D01*
X168006503Y-98409737D01*
X168039691Y-98416338D01*
X168101600Y-98448721D01*
X168136176Y-98509436D01*
X168139500Y-98537955D01*
X168139500Y-98598846D01*
X168170261Y-98753489D01*
X168170264Y-98753501D01*
X168230602Y-98899172D01*
X168230609Y-98899185D01*
X168318210Y-99030288D01*
X168318213Y-99030292D01*
X168429707Y-99141786D01*
X168429711Y-99141789D01*
X168560814Y-99229390D01*
X168560827Y-99229397D01*
X168706498Y-99289735D01*
X168706503Y-99289737D01*
X168861153Y-99320499D01*
X168861156Y-99320500D01*
X168861158Y-99320500D01*
X169018844Y-99320500D01*
X169018845Y-99320499D01*
X169173497Y-99289737D01*
X169309264Y-99233501D01*
X169319172Y-99229397D01*
X169319172Y-99229396D01*
X169319179Y-99229394D01*
X169450289Y-99141789D01*
X169561789Y-99030289D01*
X169649394Y-98899179D01*
X169709737Y-98753497D01*
X169723079Y-98686417D01*
X169755462Y-98624508D01*
X169756955Y-98622988D01*
X170377965Y-98001979D01*
X170439286Y-97968496D01*
X170441295Y-97968077D01*
X170533497Y-97949737D01*
X170679179Y-97889394D01*
X170810289Y-97801789D01*
X170921789Y-97690289D01*
X171009394Y-97559179D01*
X171069737Y-97413497D01*
X171100500Y-97258842D01*
X171100500Y-97101158D01*
X171100500Y-97101155D01*
X171100499Y-97101153D01*
X171092668Y-97061786D01*
X171069737Y-96946503D01*
X171048580Y-96895425D01*
X171009397Y-96800827D01*
X171009390Y-96800814D01*
X170921789Y-96669711D01*
X170921786Y-96669707D01*
X170810292Y-96558213D01*
X170810288Y-96558210D01*
X170679185Y-96470609D01*
X170679176Y-96470604D01*
X170547047Y-96415875D01*
X170492644Y-96372034D01*
X170470579Y-96305740D01*
X170470500Y-96301314D01*
X170470500Y-96191155D01*
X170470499Y-96191153D01*
X170447695Y-96076510D01*
X170439737Y-96036503D01*
X170412312Y-95970292D01*
X170379397Y-95890827D01*
X170379390Y-95890814D01*
X170291789Y-95759711D01*
X170291786Y-95759707D01*
X170180292Y-95648213D01*
X170180288Y-95648210D01*
X170049185Y-95560609D01*
X170049172Y-95560602D01*
X169903501Y-95500264D01*
X169903489Y-95500261D01*
X169748845Y-95469500D01*
X169748842Y-95469500D01*
X169591158Y-95469500D01*
X169591155Y-95469500D01*
X169436510Y-95500261D01*
X169436498Y-95500264D01*
X169290827Y-95560602D01*
X169290814Y-95560609D01*
X169159711Y-95648210D01*
X169159707Y-95648213D01*
X169048213Y-95759707D01*
X169048210Y-95759711D01*
X168960609Y-95890814D01*
X168960602Y-95890827D01*
X168900263Y-96036500D01*
X168899136Y-96040217D01*
X168868159Y-96091893D01*
X168137068Y-96822984D01*
X168075745Y-96856469D01*
X168073579Y-96856920D01*
X168006508Y-96870261D01*
X168006498Y-96870264D01*
X167860827Y-96930602D01*
X167860814Y-96930609D01*
X167729711Y-97018210D01*
X167729707Y-97018213D01*
X167618213Y-97129707D01*
X167618210Y-97129711D01*
X167530609Y-97260814D01*
X167530602Y-97260827D01*
X167470264Y-97406498D01*
X167470261Y-97406510D01*
X167439500Y-97561153D01*
X157156360Y-97561153D01*
X157033501Y-97510264D01*
X157033489Y-97510261D01*
X156878845Y-97479500D01*
X156878842Y-97479500D01*
X156721158Y-97479500D01*
X156721155Y-97479500D01*
X156566510Y-97510261D01*
X156566498Y-97510264D01*
X156420827Y-97570602D01*
X156420814Y-97570609D01*
X156289711Y-97658210D01*
X156289707Y-97658213D01*
X156178213Y-97769707D01*
X156178210Y-97769711D01*
X156090609Y-97900814D01*
X156090602Y-97900827D01*
X156030264Y-98046498D01*
X156030261Y-98046510D01*
X155999500Y-98201153D01*
X155999500Y-98358846D01*
X156030261Y-98513489D01*
X156030264Y-98513501D01*
X156090602Y-98659172D01*
X156090609Y-98659185D01*
X156178210Y-98790288D01*
X156178213Y-98790292D01*
X156289707Y-98901786D01*
X156289711Y-98901789D01*
X156420814Y-98989390D01*
X156420827Y-98989397D01*
X156508230Y-99025599D01*
X156566503Y-99049737D01*
X156633580Y-99063079D01*
X156695490Y-99095463D01*
X156697069Y-99097015D01*
X158107873Y-100507819D01*
X158141358Y-100569142D01*
X158136374Y-100638834D01*
X158094502Y-100694767D01*
X158029038Y-100719184D01*
X158020192Y-100719500D01*
X156854499Y-100719500D01*
X156787460Y-100699815D01*
X156741705Y-100647011D01*
X156730499Y-100595500D01*
X156730499Y-100472129D01*
X156730498Y-100472123D01*
X156729372Y-100461652D01*
X156724091Y-100412517D01*
X156723472Y-100410858D01*
X156673797Y-100277671D01*
X156673793Y-100277664D01*
X156587547Y-100162455D01*
X156587544Y-100162452D01*
X156472335Y-100076206D01*
X156472328Y-100076202D01*
X156337482Y-100025908D01*
X156337483Y-100025908D01*
X156277883Y-100019501D01*
X156277881Y-100019500D01*
X156277873Y-100019500D01*
X156277864Y-100019500D01*
X154482129Y-100019500D01*
X154482123Y-100019501D01*
X154422516Y-100025908D01*
X154287671Y-100076202D01*
X154287664Y-100076206D01*
X154172455Y-100162452D01*
X154172452Y-100162455D01*
X154086206Y-100277664D01*
X154086203Y-100277669D01*
X154037189Y-100409083D01*
X153995317Y-100465016D01*
X153929853Y-100489433D01*
X153861580Y-100474581D01*
X153833326Y-100453430D01*
X153719786Y-100339890D01*
X153547820Y-100214951D01*
X153358414Y-100118444D01*
X153358413Y-100118443D01*
X153358412Y-100118443D01*
X153156243Y-100052754D01*
X153156241Y-100052753D01*
X153156240Y-100052753D01*
X152994957Y-100027208D01*
X152946287Y-100019500D01*
X152733713Y-100019500D01*
X152685042Y-100027208D01*
X152523760Y-100052753D01*
X152437025Y-100080935D01*
X152326242Y-100116931D01*
X152321585Y-100118444D01*
X152132179Y-100214951D01*
X151960213Y-100339890D01*
X151809890Y-100490213D01*
X151684949Y-100662182D01*
X151680484Y-100670946D01*
X151632509Y-100721742D01*
X151564688Y-100738536D01*
X151498553Y-100715998D01*
X151459516Y-100670946D01*
X151455050Y-100662182D01*
X151330109Y-100490213D01*
X151179786Y-100339890D01*
X151007817Y-100214949D01*
X150940418Y-100180608D01*
X150889621Y-100132634D01*
X150872826Y-100064813D01*
X150895363Y-99998678D01*
X150909025Y-99982448D01*
X153264656Y-97626819D01*
X153325979Y-97593334D01*
X153352337Y-97590500D01*
X155015065Y-97590500D01*
X155082104Y-97610185D01*
X155083909Y-97611366D01*
X155140821Y-97649394D01*
X155140823Y-97649395D01*
X155140827Y-97649397D01*
X155271182Y-97703391D01*
X155286503Y-97709737D01*
X155389387Y-97730202D01*
X155441153Y-97740499D01*
X155441156Y-97740500D01*
X155441158Y-97740500D01*
X155598844Y-97740500D01*
X155598845Y-97740499D01*
X155753497Y-97709737D01*
X155899179Y-97649394D01*
X156030289Y-97561789D01*
X156141789Y-97450289D01*
X156229394Y-97319179D01*
X156289737Y-97173497D01*
X156320500Y-97018842D01*
X156320500Y-96861158D01*
X156320500Y-96861155D01*
X156320499Y-96861153D01*
X156317071Y-96843918D01*
X156289737Y-96706503D01*
X156280691Y-96684663D01*
X156229397Y-96560827D01*
X156229390Y-96560814D01*
X156141789Y-96429711D01*
X156137924Y-96425001D01*
X156139591Y-96423632D01*
X156110775Y-96370858D01*
X156115759Y-96301166D01*
X156157631Y-96245233D01*
X156223095Y-96220816D01*
X156231941Y-96220500D01*
X158289538Y-96220500D01*
X158330471Y-96228641D01*
X158330676Y-96227969D01*
X158336492Y-96229732D01*
X158336503Y-96229737D01*
X158491153Y-96260499D01*
X158491156Y-96260500D01*
X158491158Y-96260500D01*
X158648844Y-96260500D01*
X158648845Y-96260499D01*
X158803497Y-96229737D01*
X158949179Y-96169394D01*
X159080289Y-96081789D01*
X159191789Y-95970289D01*
X159279394Y-95839179D01*
X159339737Y-95693497D01*
X159370500Y-95538842D01*
X159370500Y-95381158D01*
X159370500Y-95381155D01*
X159370499Y-95381153D01*
X159339738Y-95226510D01*
X159339737Y-95226503D01*
X159282397Y-95088070D01*
X159279397Y-95080827D01*
X159279390Y-95080814D01*
X159191789Y-94949711D01*
X159191786Y-94949707D01*
X159080292Y-94838213D01*
X159080288Y-94838210D01*
X158949185Y-94750609D01*
X158949172Y-94750602D01*
X158803501Y-94690264D01*
X158803489Y-94690261D01*
X158648845Y-94659500D01*
X158648842Y-94659500D01*
X158491158Y-94659500D01*
X158491155Y-94659500D01*
X158336510Y-94690261D01*
X158336498Y-94690264D01*
X158190827Y-94750602D01*
X158190814Y-94750609D01*
X158059711Y-94838210D01*
X158059707Y-94838213D01*
X158014742Y-94883180D01*
X157953419Y-94916666D01*
X157927060Y-94919500D01*
X156409609Y-94919500D01*
X156342570Y-94899815D01*
X156296815Y-94847011D01*
X156286871Y-94777853D01*
X156288725Y-94769507D01*
X156288549Y-94769472D01*
X156320499Y-94608846D01*
X156320500Y-94608844D01*
X156320500Y-94451155D01*
X156320499Y-94451153D01*
X156311263Y-94404723D01*
X156289737Y-94296503D01*
X156229394Y-94150821D01*
X156191396Y-94093953D01*
X156170520Y-94027276D01*
X156170500Y-94025064D01*
X156170500Y-93404935D01*
X156190185Y-93337896D01*
X156191366Y-93336090D01*
X156229394Y-93279179D01*
X156289737Y-93133497D01*
X156320500Y-92978842D01*
X156320500Y-92821158D01*
X156320500Y-92821155D01*
X156320499Y-92821153D01*
X156289738Y-92666510D01*
X156289737Y-92666503D01*
X156289735Y-92666498D01*
X156229397Y-92520827D01*
X156229390Y-92520814D01*
X156141789Y-92389711D01*
X156141786Y-92389707D01*
X156030292Y-92278213D01*
X156030288Y-92278210D01*
X155899185Y-92190609D01*
X155899172Y-92190602D01*
X155753501Y-92130264D01*
X155753489Y-92130261D01*
X155598845Y-92099500D01*
X155598842Y-92099500D01*
X155441158Y-92099500D01*
X155441155Y-92099500D01*
X155286510Y-92130261D01*
X155286498Y-92130264D01*
X155140827Y-92190602D01*
X155140814Y-92190609D01*
X155009711Y-92278210D01*
X155009707Y-92278213D01*
X154898213Y-92389707D01*
X154898210Y-92389711D01*
X154810609Y-92520814D01*
X154810602Y-92520827D01*
X154750264Y-92666498D01*
X154750261Y-92666510D01*
X154719500Y-92821153D01*
X154719500Y-92978846D01*
X154750261Y-93133489D01*
X154750264Y-93133501D01*
X154810602Y-93279172D01*
X154810606Y-93279179D01*
X154848602Y-93336044D01*
X154869480Y-93402721D01*
X154869500Y-93404935D01*
X154869500Y-94025064D01*
X154849815Y-94092103D01*
X154848603Y-94093954D01*
X154810608Y-94150817D01*
X154810602Y-94150828D01*
X154750264Y-94296498D01*
X154750261Y-94296510D01*
X154719500Y-94451153D01*
X154719500Y-94608846D01*
X154751451Y-94769472D01*
X154749147Y-94769930D01*
X154749671Y-94829386D01*
X154712415Y-94888495D01*
X154649118Y-94918078D01*
X154630391Y-94919500D01*
X153495929Y-94919500D01*
X153370261Y-94944497D01*
X153370251Y-94944500D01*
X153321220Y-94964810D01*
X153251881Y-94993530D01*
X153251863Y-94993540D01*
X153145332Y-95064721D01*
X153145325Y-95064727D01*
X148190710Y-100019342D01*
X148129387Y-100052827D01*
X148081245Y-100052315D01*
X148081055Y-100053516D01*
X147976111Y-100036894D01*
X147866287Y-100019500D01*
X147653713Y-100019500D01*
X147605042Y-100027208D01*
X147443760Y-100052753D01*
X147436414Y-100055140D01*
X147366572Y-100057132D01*
X147306741Y-100021048D01*
X147275916Y-99958346D01*
X147283884Y-99888932D01*
X147310420Y-99849526D01*
X152613127Y-94546819D01*
X152674450Y-94513334D01*
X152700808Y-94510500D01*
X153035065Y-94510500D01*
X153102104Y-94530185D01*
X153103909Y-94531366D01*
X153160821Y-94569394D01*
X153160823Y-94569395D01*
X153160827Y-94569397D01*
X153256062Y-94608844D01*
X153306503Y-94629737D01*
X153456131Y-94659500D01*
X153461153Y-94660499D01*
X153461156Y-94660500D01*
X153461158Y-94660500D01*
X153618844Y-94660500D01*
X153618845Y-94660499D01*
X153773497Y-94629737D01*
X153919179Y-94569394D01*
X154050289Y-94481789D01*
X154161789Y-94370289D01*
X154249394Y-94239179D01*
X154309737Y-94093497D01*
X154340500Y-93938842D01*
X154340500Y-93781158D01*
X154340500Y-93781155D01*
X154340499Y-93781153D01*
X154309738Y-93626510D01*
X154309737Y-93626503D01*
X154309735Y-93626498D01*
X154249397Y-93480827D01*
X154249390Y-93480814D01*
X154161789Y-93349711D01*
X154161786Y-93349707D01*
X154050292Y-93238213D01*
X154050288Y-93238210D01*
X153919185Y-93150609D01*
X153919172Y-93150602D01*
X153773501Y-93090264D01*
X153773489Y-93090261D01*
X153618845Y-93059500D01*
X153618842Y-93059500D01*
X153461158Y-93059500D01*
X153461155Y-93059500D01*
X153306510Y-93090261D01*
X153306498Y-93090264D01*
X153160827Y-93150602D01*
X153160820Y-93150606D01*
X153131928Y-93169911D01*
X153103955Y-93188602D01*
X153037279Y-93209480D01*
X153035065Y-93209500D01*
X152315929Y-93209500D01*
X152190261Y-93234497D01*
X152190255Y-93234499D01*
X152071874Y-93283534D01*
X151965326Y-93354726D01*
X151965325Y-93354727D01*
X147252875Y-98067178D01*
X147191552Y-98100663D01*
X147121860Y-98095679D01*
X147065927Y-98053807D01*
X147041510Y-97988343D01*
X147050632Y-97932046D01*
X147099737Y-97813497D01*
X147130500Y-97658842D01*
X147130500Y-97501158D01*
X147130500Y-97501155D01*
X147130499Y-97501153D01*
X147111671Y-97406498D01*
X147099737Y-97346503D01*
X147059108Y-97248415D01*
X147039397Y-97200827D01*
X147039390Y-97200814D01*
X146951789Y-97069711D01*
X146951786Y-97069707D01*
X146840292Y-96958213D01*
X146840288Y-96958210D01*
X146709185Y-96870609D01*
X146709172Y-96870602D01*
X146563501Y-96810264D01*
X146563489Y-96810261D01*
X146408845Y-96779500D01*
X146408842Y-96779500D01*
X146251158Y-96779500D01*
X146251155Y-96779500D01*
X146096510Y-96810261D01*
X146096498Y-96810264D01*
X145950827Y-96870602D01*
X145950814Y-96870609D01*
X145819711Y-96958210D01*
X145819707Y-96958213D01*
X145708213Y-97069707D01*
X145708210Y-97069711D01*
X145620609Y-97200814D01*
X145620602Y-97200827D01*
X145560264Y-97346498D01*
X145560261Y-97346508D01*
X145546920Y-97413579D01*
X145514535Y-97475490D01*
X145512984Y-97477068D01*
X144216873Y-98773181D01*
X144155550Y-98806666D01*
X144129192Y-98809500D01*
X143144935Y-98809500D01*
X143077896Y-98789815D01*
X143076090Y-98788633D01*
X143019179Y-98750606D01*
X143019172Y-98750602D01*
X142873501Y-98690264D01*
X142873489Y-98690261D01*
X142718845Y-98659500D01*
X142718842Y-98659500D01*
X142561158Y-98659500D01*
X142561155Y-98659500D01*
X142406510Y-98690261D01*
X142406498Y-98690264D01*
X142260827Y-98750602D01*
X142260814Y-98750609D01*
X142184391Y-98801674D01*
X142117713Y-98822552D01*
X142050333Y-98804067D01*
X142003643Y-98752088D01*
X141991500Y-98698572D01*
X141991500Y-98066928D01*
X141966502Y-97941261D01*
X141966501Y-97941260D01*
X141966501Y-97941256D01*
X141917465Y-97822873D01*
X141917464Y-97822872D01*
X141917461Y-97822866D01*
X141846276Y-97716331D01*
X141846273Y-97716327D01*
X141833337Y-97703391D01*
X141799852Y-97642068D01*
X141804836Y-97572376D01*
X141833333Y-97528033D01*
X142112952Y-97248415D01*
X142163010Y-97173497D01*
X142195084Y-97125495D01*
X142218549Y-97068846D01*
X142230612Y-97039724D01*
X142248384Y-96996819D01*
X142251659Y-96988912D01*
X142280500Y-96843917D01*
X142280500Y-96696082D01*
X142280500Y-88806082D01*
X142273375Y-88770263D01*
X142251659Y-88661088D01*
X142208338Y-88556503D01*
X142206023Y-88550916D01*
X142206022Y-88550910D01*
X142195087Y-88524511D01*
X142195080Y-88524498D01*
X142112952Y-88401585D01*
X142112951Y-88401584D01*
X142008416Y-88297049D01*
X140302520Y-86591153D01*
X162779500Y-86591153D01*
X162779500Y-86748846D01*
X162810261Y-86903489D01*
X162810264Y-86903501D01*
X162870602Y-87049172D01*
X162870609Y-87049185D01*
X162958210Y-87180288D01*
X162958213Y-87180292D01*
X163069707Y-87291786D01*
X163069711Y-87291789D01*
X163200814Y-87379390D01*
X163200827Y-87379397D01*
X163300060Y-87420500D01*
X163346503Y-87439737D01*
X163501153Y-87470499D01*
X163501156Y-87470500D01*
X163501158Y-87470500D01*
X163658844Y-87470500D01*
X163658845Y-87470499D01*
X163735152Y-87455320D01*
X163813488Y-87439739D01*
X163813489Y-87439738D01*
X163813497Y-87439737D01*
X163837155Y-87429937D01*
X163884604Y-87420500D01*
X164023920Y-87420500D01*
X164121462Y-87401096D01*
X164168913Y-87391658D01*
X164305495Y-87335084D01*
X164370291Y-87291789D01*
X164370294Y-87291786D01*
X164370296Y-87291786D01*
X164408823Y-87266043D01*
X164428416Y-87252952D01*
X165118413Y-86562953D01*
X165118416Y-86562952D01*
X165252951Y-86428416D01*
X165335084Y-86305495D01*
X165391658Y-86168913D01*
X165401096Y-86121462D01*
X165420500Y-86023920D01*
X165420500Y-78954604D01*
X165429939Y-78907151D01*
X165439737Y-78883497D01*
X165470500Y-78728842D01*
X165470500Y-78571158D01*
X165470500Y-78571155D01*
X165470499Y-78571153D01*
X165439738Y-78416510D01*
X165439737Y-78416503D01*
X165439735Y-78416498D01*
X165379397Y-78270827D01*
X165379390Y-78270814D01*
X165291789Y-78139711D01*
X165291786Y-78139707D01*
X165180292Y-78028213D01*
X165180288Y-78028210D01*
X165049185Y-77940609D01*
X165049172Y-77940602D01*
X164903501Y-77880264D01*
X164903489Y-77880261D01*
X164748845Y-77849500D01*
X164748842Y-77849500D01*
X164591158Y-77849500D01*
X164591155Y-77849500D01*
X164436510Y-77880261D01*
X164436498Y-77880264D01*
X164290827Y-77940602D01*
X164290814Y-77940609D01*
X164159711Y-78028210D01*
X164159707Y-78028213D01*
X164048213Y-78139707D01*
X164048210Y-78139711D01*
X163960609Y-78270814D01*
X163960602Y-78270827D01*
X163900264Y-78416498D01*
X163900261Y-78416510D01*
X163869500Y-78571153D01*
X163869500Y-78728846D01*
X163900261Y-78883489D01*
X163900263Y-78883497D01*
X163910061Y-78907151D01*
X163919500Y-78954604D01*
X163919500Y-85587769D01*
X163910855Y-85617209D01*
X163904332Y-85647196D01*
X163900577Y-85652211D01*
X163899815Y-85654808D01*
X163883181Y-85675450D01*
X163725450Y-85833181D01*
X163664127Y-85866666D01*
X163637769Y-85869500D01*
X163501155Y-85869500D01*
X163346510Y-85900261D01*
X163346498Y-85900264D01*
X163200827Y-85960602D01*
X163200814Y-85960609D01*
X163069711Y-86048210D01*
X163069707Y-86048213D01*
X162958213Y-86159707D01*
X162958210Y-86159711D01*
X162870609Y-86290814D01*
X162870602Y-86290827D01*
X162810264Y-86436498D01*
X162810261Y-86436510D01*
X162779500Y-86591153D01*
X140302520Y-86591153D01*
X137178416Y-83467048D01*
X137178415Y-83467047D01*
X137178413Y-83467045D01*
X137117734Y-83426503D01*
X137100104Y-83414723D01*
X137055495Y-83384916D01*
X137055494Y-83384915D01*
X137055492Y-83384914D01*
X137055490Y-83384913D01*
X136918917Y-83328343D01*
X136918907Y-83328340D01*
X136773920Y-83299500D01*
X136773918Y-83299500D01*
X135654500Y-83299500D01*
X135645814Y-83296949D01*
X135636853Y-83298238D01*
X135612812Y-83287259D01*
X135587461Y-83279815D01*
X135581533Y-83272974D01*
X135573297Y-83269213D01*
X135559007Y-83246978D01*
X135541706Y-83227011D01*
X135539418Y-83216496D01*
X135535523Y-83210435D01*
X135530500Y-83175500D01*
X135530500Y-82969712D01*
X135550185Y-82902673D01*
X135602989Y-82856918D01*
X135606993Y-82855173D01*
X135655495Y-82835084D01*
X135720291Y-82791789D01*
X135720294Y-82791786D01*
X135720296Y-82791786D01*
X135749547Y-82772240D01*
X135778416Y-82752952D01*
X139355297Y-79176069D01*
X139395524Y-79149191D01*
X139419179Y-79139394D01*
X139550289Y-79051789D01*
X139661789Y-78940289D01*
X139749394Y-78809179D01*
X139809737Y-78663497D01*
X139840500Y-78508842D01*
X139840500Y-78351158D01*
X139840500Y-78351155D01*
X139840499Y-78351153D01*
X139809738Y-78196510D01*
X139809737Y-78196503D01*
X139775855Y-78114703D01*
X139749397Y-78050827D01*
X139749390Y-78050814D01*
X139661789Y-77919711D01*
X139661786Y-77919707D01*
X139550292Y-77808213D01*
X139550288Y-77808210D01*
X139419185Y-77720609D01*
X139419172Y-77720602D01*
X139273501Y-77660264D01*
X139273489Y-77660261D01*
X139118845Y-77629500D01*
X139118842Y-77629500D01*
X138961158Y-77629500D01*
X138961155Y-77629500D01*
X138806510Y-77660261D01*
X138806498Y-77660264D01*
X138660827Y-77720602D01*
X138660814Y-77720609D01*
X138529711Y-77808210D01*
X138529707Y-77808213D01*
X138418213Y-77919707D01*
X138418207Y-77919715D01*
X138330607Y-78050818D01*
X138330606Y-78050819D01*
X138320805Y-78074480D01*
X138293927Y-78114703D01*
X135056085Y-81352545D01*
X134994762Y-81386030D01*
X134944212Y-81386481D01*
X134858844Y-81369500D01*
X134858842Y-81369500D01*
X134701158Y-81369500D01*
X134701155Y-81369500D01*
X134546510Y-81400261D01*
X134546498Y-81400264D01*
X134400827Y-81460602D01*
X134400814Y-81460609D01*
X134269711Y-81548210D01*
X134269707Y-81548213D01*
X134158213Y-81659707D01*
X134158210Y-81659711D01*
X134070609Y-81790814D01*
X134070602Y-81790827D01*
X134010264Y-81936498D01*
X134010261Y-81936510D01*
X133979500Y-82091153D01*
X133979500Y-82248846D01*
X134010261Y-82403489D01*
X134010263Y-82403497D01*
X134020061Y-82427151D01*
X134029500Y-82474604D01*
X134029500Y-83175500D01*
X134009815Y-83242539D01*
X133957011Y-83288294D01*
X133905500Y-83299500D01*
X125382230Y-83299500D01*
X125315191Y-83279815D01*
X125294549Y-83263181D01*
X117480079Y-75448711D01*
X132659500Y-75448711D01*
X132659500Y-75691288D01*
X132691161Y-75931785D01*
X132753947Y-76166104D01*
X132846773Y-76390205D01*
X132846776Y-76390212D01*
X132968064Y-76600289D01*
X132968066Y-76600292D01*
X132968067Y-76600293D01*
X133115733Y-76792736D01*
X133115739Y-76792743D01*
X133287256Y-76964260D01*
X133287262Y-76964265D01*
X133479711Y-77111936D01*
X133689788Y-77233224D01*
X133913900Y-77326054D01*
X134148211Y-77388838D01*
X134328586Y-77412584D01*
X134388711Y-77420500D01*
X134388712Y-77420500D01*
X134631289Y-77420500D01*
X134679388Y-77414167D01*
X134871789Y-77388838D01*
X135106100Y-77326054D01*
X135330212Y-77233224D01*
X135540289Y-77111936D01*
X135732738Y-76964265D01*
X135904265Y-76792738D01*
X136051936Y-76600289D01*
X136173224Y-76390212D01*
X136266054Y-76166100D01*
X136328838Y-75931789D01*
X136360500Y-75691288D01*
X136360500Y-75448712D01*
X136328838Y-75208211D01*
X136266054Y-74973900D01*
X136173224Y-74749788D01*
X136051936Y-74539711D01*
X135904265Y-74347262D01*
X135904260Y-74347256D01*
X135732743Y-74175739D01*
X135732736Y-74175733D01*
X135540293Y-74028067D01*
X135540292Y-74028066D01*
X135540289Y-74028064D01*
X135330212Y-73906776D01*
X135330205Y-73906773D01*
X135106104Y-73813947D01*
X134871785Y-73751161D01*
X134631289Y-73719500D01*
X134631288Y-73719500D01*
X134388712Y-73719500D01*
X134388711Y-73719500D01*
X134148214Y-73751161D01*
X133913895Y-73813947D01*
X133689794Y-73906773D01*
X133689785Y-73906777D01*
X133479706Y-74028067D01*
X133287263Y-74175733D01*
X133287256Y-74175739D01*
X133115739Y-74347256D01*
X133115733Y-74347263D01*
X132968067Y-74539706D01*
X132846777Y-74749785D01*
X132846773Y-74749794D01*
X132753947Y-74973895D01*
X132691161Y-75208214D01*
X132659500Y-75448711D01*
X117480079Y-75448711D01*
X117396819Y-75365451D01*
X117363334Y-75304128D01*
X117360500Y-75277770D01*
X117360500Y-65573668D01*
X117380185Y-65506629D01*
X117432989Y-65460874D01*
X117502147Y-65450930D01*
X117559986Y-65475292D01*
X117575388Y-65487111D01*
X117774112Y-65601844D01*
X117774117Y-65601846D01*
X117774123Y-65601849D01*
X117839498Y-65628928D01*
X117986113Y-65689658D01*
X118207762Y-65749048D01*
X118435266Y-65779000D01*
X118435273Y-65779000D01*
X118664727Y-65779000D01*
X118664734Y-65779000D01*
X118892238Y-65749048D01*
X119113887Y-65689658D01*
X119325888Y-65601844D01*
X119524612Y-65487111D01*
X119706661Y-65347419D01*
X119706665Y-65347414D01*
X119706670Y-65347411D01*
X119868911Y-65185170D01*
X119868914Y-65185165D01*
X119868919Y-65185161D01*
X120008611Y-65003112D01*
X120123344Y-64804388D01*
X120211158Y-64592387D01*
X120270548Y-64370738D01*
X120300500Y-64143234D01*
X120300500Y-63913766D01*
X120300499Y-63913758D01*
X121599500Y-63913758D01*
X121599500Y-64143241D01*
X121623926Y-64328768D01*
X121629452Y-64370738D01*
X121667996Y-64514586D01*
X121688842Y-64592387D01*
X121776650Y-64804376D01*
X121776657Y-64804390D01*
X121819277Y-64878210D01*
X121876023Y-64976498D01*
X121891392Y-65003117D01*
X122031081Y-65185161D01*
X122031089Y-65185170D01*
X122193330Y-65347411D01*
X122193338Y-65347418D01*
X122193339Y-65347419D01*
X122214545Y-65363691D01*
X122375382Y-65487107D01*
X122375385Y-65487108D01*
X122375388Y-65487111D01*
X122574112Y-65601844D01*
X122574117Y-65601846D01*
X122574123Y-65601849D01*
X122639498Y-65628928D01*
X122786113Y-65689658D01*
X122934774Y-65729491D01*
X122994435Y-65765856D01*
X123024964Y-65828703D01*
X123024298Y-65873457D01*
X123019500Y-65897577D01*
X123019500Y-65897582D01*
X123019500Y-70066082D01*
X123019500Y-70213918D01*
X123019500Y-70213920D01*
X123019499Y-70213920D01*
X123048340Y-70358907D01*
X123048343Y-70358917D01*
X123104912Y-70495488D01*
X123104919Y-70495501D01*
X123187048Y-70618415D01*
X123187051Y-70618419D01*
X123291580Y-70722948D01*
X123291584Y-70722951D01*
X123414498Y-70805080D01*
X123414511Y-70805087D01*
X123551082Y-70861656D01*
X123551087Y-70861658D01*
X123551091Y-70861658D01*
X123551092Y-70861659D01*
X123696079Y-70890500D01*
X123696082Y-70890500D01*
X133513920Y-70890500D01*
X133611462Y-70871096D01*
X133658913Y-70861658D01*
X133795495Y-70805084D01*
X133844729Y-70772186D01*
X133849326Y-70769115D01*
X133869071Y-70755921D01*
X133918416Y-70722952D01*
X135896384Y-68744983D01*
X144479500Y-68744983D01*
X144479500Y-70095001D01*
X144479501Y-70095018D01*
X144490000Y-70197796D01*
X144490001Y-70197799D01*
X144543388Y-70358907D01*
X144545186Y-70364334D01*
X144637288Y-70513656D01*
X144761344Y-70637712D01*
X144910666Y-70729814D01*
X145077203Y-70784999D01*
X145179991Y-70795500D01*
X145980008Y-70795499D01*
X145980016Y-70795498D01*
X145980019Y-70795498D01*
X146036302Y-70789748D01*
X146082797Y-70784999D01*
X146249334Y-70729814D01*
X146398656Y-70637712D01*
X146522712Y-70513656D01*
X146562581Y-70449016D01*
X146614525Y-70402294D01*
X146683488Y-70391071D01*
X146747570Y-70418914D01*
X146755799Y-70426434D01*
X146863397Y-70534032D01*
X147003475Y-70635804D01*
X147157744Y-70714408D01*
X147322415Y-70767914D01*
X147322414Y-70767914D01*
X147329999Y-70769115D01*
X147330000Y-70769114D01*
X147330000Y-69700330D01*
X147349745Y-69720075D01*
X147435255Y-69769444D01*
X147530630Y-69795000D01*
X147629370Y-69795000D01*
X147724745Y-69769444D01*
X147810255Y-69720075D01*
X147830000Y-69700330D01*
X147830000Y-70769115D01*
X147837584Y-70767914D01*
X148002255Y-70714408D01*
X148156524Y-70635804D01*
X148296602Y-70534032D01*
X148419032Y-70411602D01*
X148520804Y-70271524D01*
X148599408Y-70117257D01*
X148652914Y-69952584D01*
X148680000Y-69781571D01*
X148680000Y-69670000D01*
X147860330Y-69670000D01*
X147880075Y-69650255D01*
X147929444Y-69564745D01*
X147955000Y-69469370D01*
X147955000Y-69370630D01*
X147929444Y-69275255D01*
X147880075Y-69189745D01*
X147860330Y-69170000D01*
X148680000Y-69170000D01*
X148680000Y-69058428D01*
X148652914Y-68887415D01*
X148599408Y-68722742D01*
X148520804Y-68568475D01*
X148419032Y-68428397D01*
X148296602Y-68305967D01*
X148156524Y-68204195D01*
X148002257Y-68125591D01*
X147837589Y-68072087D01*
X147837581Y-68072085D01*
X147830000Y-68070884D01*
X147830000Y-69139670D01*
X147810255Y-69119925D01*
X147724745Y-69070556D01*
X147629370Y-69045000D01*
X147530630Y-69045000D01*
X147435255Y-69070556D01*
X147349745Y-69119925D01*
X147330000Y-69139670D01*
X147330000Y-68070884D01*
X147329999Y-68070884D01*
X147322418Y-68072085D01*
X147322410Y-68072087D01*
X147157742Y-68125591D01*
X147003475Y-68204195D01*
X146863401Y-68305964D01*
X146755799Y-68413566D01*
X146694476Y-68447050D01*
X146624784Y-68442066D01*
X146568851Y-68400194D01*
X146562585Y-68390988D01*
X146522712Y-68326344D01*
X146398656Y-68202288D01*
X146249334Y-68110186D01*
X146082797Y-68055001D01*
X146082795Y-68055000D01*
X145980010Y-68044500D01*
X145179998Y-68044500D01*
X145179980Y-68044501D01*
X145077203Y-68055000D01*
X145077200Y-68055001D01*
X144910668Y-68110185D01*
X144910663Y-68110187D01*
X144761342Y-68202289D01*
X144637289Y-68326342D01*
X144545187Y-68475663D01*
X144545186Y-68475666D01*
X144490001Y-68642203D01*
X144490001Y-68642204D01*
X144490000Y-68642204D01*
X144479500Y-68744983D01*
X135896384Y-68744983D01*
X138069647Y-66571719D01*
X138088431Y-66556304D01*
X138108416Y-66542952D01*
X138405297Y-66246068D01*
X138445525Y-66219190D01*
X138469179Y-66209394D01*
X138600289Y-66121789D01*
X138711789Y-66010289D01*
X138799394Y-65879179D01*
X138859737Y-65733497D01*
X138890500Y-65578842D01*
X138890500Y-65421158D01*
X138890500Y-65421155D01*
X138890499Y-65421153D01*
X138879069Y-65363691D01*
X138859737Y-65266503D01*
X138826048Y-65185170D01*
X138799397Y-65120827D01*
X138799390Y-65120814D01*
X138711789Y-64989711D01*
X138711786Y-64989707D01*
X138600292Y-64878213D01*
X138600288Y-64878210D01*
X138469185Y-64790609D01*
X138469172Y-64790602D01*
X138323501Y-64730264D01*
X138323489Y-64730261D01*
X138168845Y-64699500D01*
X138168842Y-64699500D01*
X138011158Y-64699500D01*
X138011155Y-64699500D01*
X137856510Y-64730261D01*
X137856498Y-64730264D01*
X137710827Y-64790602D01*
X137710814Y-64790609D01*
X137579711Y-64878210D01*
X137579707Y-64878213D01*
X137468213Y-64989707D01*
X137468210Y-64989711D01*
X137380609Y-65120814D01*
X137380603Y-65120826D01*
X137370806Y-65144478D01*
X137366174Y-65151409D01*
X137365078Y-65156450D01*
X137343927Y-65184705D01*
X137180357Y-65348274D01*
X137161572Y-65363691D01*
X137141583Y-65377048D01*
X137141578Y-65377052D01*
X133165451Y-69353181D01*
X133104128Y-69386666D01*
X133077770Y-69389500D01*
X124644500Y-69389500D01*
X124577461Y-69369815D01*
X124531706Y-69317011D01*
X124520500Y-69265500D01*
X124520500Y-66333729D01*
X124540185Y-66266690D01*
X124556819Y-66246048D01*
X124681078Y-66121789D01*
X124846797Y-65956069D01*
X124887022Y-65929192D01*
X124910679Y-65919394D01*
X125041789Y-65831789D01*
X125153289Y-65720289D01*
X125240894Y-65589179D01*
X125301237Y-65443497D01*
X125332000Y-65288842D01*
X125332000Y-65131158D01*
X125332000Y-65131155D01*
X125331999Y-65131153D01*
X125301238Y-64976510D01*
X125301237Y-64976503D01*
X125301235Y-64976498D01*
X125240897Y-64830827D01*
X125240890Y-64830814D01*
X125153289Y-64699711D01*
X125153286Y-64699707D01*
X125069136Y-64615557D01*
X125035651Y-64554234D01*
X125037042Y-64495783D01*
X125070548Y-64370738D01*
X125100500Y-64143234D01*
X125100500Y-63913766D01*
X125100499Y-63913758D01*
X126399500Y-63913758D01*
X126399500Y-64143241D01*
X126423926Y-64328768D01*
X126429452Y-64370738D01*
X126467996Y-64514586D01*
X126488842Y-64592387D01*
X126576650Y-64804376D01*
X126576657Y-64804390D01*
X126619277Y-64878210D01*
X126676023Y-64976498D01*
X126691392Y-65003117D01*
X126831081Y-65185161D01*
X126831089Y-65185170D01*
X126993330Y-65347411D01*
X126993338Y-65347418D01*
X126993339Y-65347419D01*
X127014545Y-65363691D01*
X127175382Y-65487107D01*
X127175385Y-65487108D01*
X127175388Y-65487111D01*
X127374112Y-65601844D01*
X127374117Y-65601846D01*
X127374123Y-65601849D01*
X127479589Y-65645534D01*
X127533993Y-65689374D01*
X127556058Y-65755668D01*
X127538779Y-65823368D01*
X127535241Y-65828983D01*
X127500610Y-65880814D01*
X127500602Y-65880828D01*
X127440264Y-66026498D01*
X127440261Y-66026510D01*
X127409500Y-66181153D01*
X127409500Y-66338846D01*
X127440261Y-66493489D01*
X127440264Y-66493501D01*
X127500602Y-66639172D01*
X127500609Y-66639185D01*
X127588210Y-66770288D01*
X127588213Y-66770292D01*
X127699707Y-66881786D01*
X127699711Y-66881789D01*
X127830814Y-66969390D01*
X127830827Y-66969397D01*
X127976498Y-67029735D01*
X127976503Y-67029737D01*
X128131153Y-67060499D01*
X128131156Y-67060500D01*
X128131158Y-67060500D01*
X128288844Y-67060500D01*
X128288845Y-67060499D01*
X128443497Y-67029737D01*
X128589179Y-66969394D01*
X128720289Y-66881789D01*
X128831789Y-66770289D01*
X128919394Y-66639179D01*
X128979737Y-66493497D01*
X129010500Y-66338842D01*
X129010500Y-66181158D01*
X129010500Y-66181155D01*
X129010499Y-66181153D01*
X128979738Y-66026510D01*
X128979737Y-66026503D01*
X128919394Y-65880821D01*
X128881396Y-65823953D01*
X128875746Y-65805907D01*
X128865523Y-65789999D01*
X128861071Y-65759036D01*
X128860520Y-65757276D01*
X128860500Y-65755064D01*
X128860500Y-65711187D01*
X128880185Y-65644148D01*
X128922500Y-65603800D01*
X128947824Y-65589179D01*
X129124612Y-65487111D01*
X129306661Y-65347419D01*
X129306665Y-65347414D01*
X129306670Y-65347411D01*
X129468911Y-65185170D01*
X129468914Y-65185165D01*
X129468919Y-65185161D01*
X129608611Y-65003112D01*
X129723344Y-64804388D01*
X129811158Y-64592387D01*
X129870548Y-64370738D01*
X129900500Y-64143234D01*
X129900500Y-63913766D01*
X129870548Y-63686262D01*
X129811158Y-63464613D01*
X129738856Y-63290060D01*
X129723349Y-63252623D01*
X129723346Y-63252617D01*
X129723344Y-63252612D01*
X129608611Y-63053888D01*
X129608608Y-63053885D01*
X129608607Y-63053882D01*
X129468918Y-62871838D01*
X129468911Y-62871830D01*
X129306670Y-62709589D01*
X129306661Y-62709581D01*
X129124617Y-62569892D01*
X128925890Y-62455157D01*
X128925876Y-62455150D01*
X128713887Y-62367342D01*
X128492238Y-62307952D01*
X128454215Y-62302946D01*
X128264741Y-62278000D01*
X128264734Y-62278000D01*
X128035266Y-62278000D01*
X128035258Y-62278000D01*
X127818715Y-62306509D01*
X127807762Y-62307952D01*
X127714076Y-62333054D01*
X127586112Y-62367342D01*
X127374123Y-62455150D01*
X127374109Y-62455157D01*
X127175382Y-62569892D01*
X126993338Y-62709581D01*
X126831081Y-62871838D01*
X126691392Y-63053882D01*
X126576657Y-63252609D01*
X126576650Y-63252623D01*
X126488842Y-63464612D01*
X126481730Y-63491155D01*
X126439478Y-63648846D01*
X126429453Y-63686259D01*
X126429451Y-63686270D01*
X126399500Y-63913758D01*
X125100499Y-63913758D01*
X125070548Y-63686262D01*
X125011158Y-63464613D01*
X124938856Y-63290060D01*
X124923349Y-63252623D01*
X124923346Y-63252617D01*
X124923344Y-63252612D01*
X124808611Y-63053888D01*
X124808608Y-63053885D01*
X124808607Y-63053882D01*
X124668918Y-62871838D01*
X124668911Y-62871830D01*
X124506670Y-62709589D01*
X124506661Y-62709581D01*
X124324617Y-62569892D01*
X124125890Y-62455157D01*
X124125876Y-62455150D01*
X123913887Y-62367342D01*
X123692238Y-62307952D01*
X123654215Y-62302946D01*
X123464741Y-62278000D01*
X123464734Y-62278000D01*
X123235266Y-62278000D01*
X123235258Y-62278000D01*
X123018715Y-62306509D01*
X123007762Y-62307952D01*
X122914076Y-62333054D01*
X122786112Y-62367342D01*
X122574123Y-62455150D01*
X122574109Y-62455157D01*
X122375382Y-62569892D01*
X122193338Y-62709581D01*
X122031081Y-62871838D01*
X121891392Y-63053882D01*
X121776657Y-63252609D01*
X121776650Y-63252623D01*
X121688842Y-63464612D01*
X121681730Y-63491155D01*
X121639478Y-63648846D01*
X121629453Y-63686259D01*
X121629451Y-63686270D01*
X121599500Y-63913758D01*
X120300499Y-63913758D01*
X120270548Y-63686262D01*
X120211158Y-63464613D01*
X120138856Y-63290060D01*
X120123349Y-63252623D01*
X120123346Y-63252617D01*
X120123344Y-63252612D01*
X120008611Y-63053888D01*
X120008608Y-63053885D01*
X120008607Y-63053882D01*
X119868918Y-62871838D01*
X119868911Y-62871830D01*
X119706670Y-62709589D01*
X119706661Y-62709581D01*
X119524617Y-62569892D01*
X119325890Y-62455157D01*
X119325876Y-62455150D01*
X119113887Y-62367342D01*
X118892238Y-62307952D01*
X118854215Y-62302946D01*
X118664741Y-62278000D01*
X118664734Y-62278000D01*
X118435266Y-62278000D01*
X118435258Y-62278000D01*
X118218715Y-62306509D01*
X118207762Y-62307952D01*
X118114076Y-62333054D01*
X117986112Y-62367342D01*
X117774123Y-62455150D01*
X117774109Y-62455157D01*
X117575382Y-62569892D01*
X117393338Y-62709581D01*
X117231081Y-62871838D01*
X117091392Y-63053882D01*
X116976661Y-63252601D01*
X116976652Y-63252620D01*
X116934151Y-63355223D01*
X116890310Y-63409626D01*
X116888483Y-63410870D01*
X116836585Y-63445547D01*
X116836579Y-63445552D01*
X116027050Y-64255080D01*
X116027044Y-64255088D01*
X115977812Y-64328768D01*
X115977813Y-64328769D01*
X115944921Y-64377996D01*
X115944914Y-64378008D01*
X115888342Y-64514586D01*
X115888340Y-64514592D01*
X115859500Y-64659579D01*
X115859500Y-64659582D01*
X115859500Y-75713918D01*
X115859500Y-75713920D01*
X115859499Y-75713920D01*
X115888340Y-75858907D01*
X115888343Y-75858917D01*
X115944914Y-75995492D01*
X115977812Y-76044727D01*
X115977813Y-76044730D01*
X116027046Y-76118414D01*
X116027052Y-76118421D01*
X124541584Y-84632952D01*
X124541586Y-84632954D01*
X124571058Y-84652645D01*
X124615270Y-84682186D01*
X124664505Y-84715084D01*
X124664506Y-84715084D01*
X124664507Y-84715085D01*
X124664509Y-84715086D01*
X124801082Y-84771656D01*
X124801087Y-84771658D01*
X124801091Y-84771658D01*
X124801092Y-84771659D01*
X124946079Y-84800500D01*
X124946082Y-84800500D01*
X124946083Y-84800500D01*
X125093917Y-84800500D01*
X134726082Y-84800500D01*
X134873917Y-84800500D01*
X136337770Y-84800500D01*
X136404809Y-84820185D01*
X136425451Y-84836819D01*
X140743181Y-89154548D01*
X140776666Y-89215871D01*
X140779500Y-89242229D01*
X140779500Y-96182467D01*
X140759815Y-96249506D01*
X140707011Y-96295261D01*
X140637853Y-96305205D01*
X140586614Y-96285573D01*
X140579183Y-96280608D01*
X140579172Y-96280602D01*
X140433501Y-96220264D01*
X140433489Y-96220261D01*
X140278845Y-96189500D01*
X140278842Y-96189500D01*
X140121158Y-96189500D01*
X140121155Y-96189500D01*
X139966510Y-96220261D01*
X139966498Y-96220264D01*
X139820827Y-96280602D01*
X139820814Y-96280609D01*
X139689711Y-96368210D01*
X139689707Y-96368213D01*
X139578213Y-96479707D01*
X139578210Y-96479711D01*
X139490609Y-96610814D01*
X139490602Y-96610827D01*
X139430264Y-96756498D01*
X139430261Y-96756510D01*
X139399500Y-96911153D01*
X139399500Y-97068846D01*
X139430261Y-97223489D01*
X139430264Y-97223501D01*
X139490602Y-97369172D01*
X139490609Y-97369185D01*
X139578210Y-97500288D01*
X139578213Y-97500292D01*
X139689707Y-97611786D01*
X139689711Y-97611789D01*
X139820814Y-97699390D01*
X139820827Y-97699397D01*
X139966498Y-97759735D01*
X139966503Y-97759737D01*
X139972446Y-97760919D01*
X140034357Y-97793299D01*
X140062822Y-97835084D01*
X140085316Y-97889390D01*
X140089916Y-97900494D01*
X140172048Y-98023416D01*
X140172052Y-98023420D01*
X140172052Y-98023421D01*
X140276578Y-98127947D01*
X140276581Y-98127949D01*
X140276584Y-98127952D01*
X140399506Y-98210084D01*
X140536088Y-98266658D01*
X140541716Y-98268989D01*
X140541358Y-98269852D01*
X140548355Y-98274046D01*
X140559399Y-98276449D01*
X140587654Y-98297600D01*
X140654181Y-98364126D01*
X140687666Y-98425449D01*
X140690500Y-98451808D01*
X140690500Y-99958197D01*
X140670815Y-100025236D01*
X140618011Y-100070991D01*
X140548853Y-100080935D01*
X140528183Y-100076128D01*
X140456244Y-100052754D01*
X140456240Y-100052753D01*
X140294957Y-100027208D01*
X140246287Y-100019500D01*
X140033713Y-100019500D01*
X139985042Y-100027208D01*
X139823760Y-100052753D01*
X139737025Y-100080935D01*
X139626242Y-100116931D01*
X139621585Y-100118444D01*
X139432179Y-100214951D01*
X139260213Y-100339890D01*
X139109890Y-100490213D01*
X138984949Y-100662182D01*
X138980484Y-100670946D01*
X138932509Y-100721742D01*
X138864688Y-100738536D01*
X138798553Y-100715998D01*
X138759516Y-100670946D01*
X138755050Y-100662182D01*
X138630109Y-100490213D01*
X138479786Y-100339890D01*
X138307820Y-100214951D01*
X138118414Y-100118444D01*
X138118413Y-100118443D01*
X138118412Y-100118443D01*
X137916243Y-100052754D01*
X137916241Y-100052753D01*
X137916240Y-100052753D01*
X137754957Y-100027208D01*
X137706287Y-100019500D01*
X137493713Y-100019500D01*
X137445042Y-100027208D01*
X137283760Y-100052753D01*
X137081584Y-100118444D01*
X137073375Y-100122627D01*
X137055650Y-100125954D01*
X137039558Y-100134086D01*
X137022029Y-100132268D01*
X137004705Y-100135521D01*
X136987995Y-100128738D01*
X136970061Y-100126878D01*
X136956297Y-100115871D01*
X136939966Y-100109242D01*
X136929576Y-100094502D01*
X136915494Y-100083241D01*
X136906056Y-100061136D01*
X136899711Y-100052134D01*
X136899577Y-100051740D01*
X136897027Y-100044174D01*
X136886501Y-99991256D01*
X136848909Y-99900500D01*
X136844117Y-99888932D01*
X136837469Y-99872881D01*
X136837468Y-99872880D01*
X136837466Y-99872874D01*
X136807139Y-99827486D01*
X136786262Y-99760810D01*
X136804747Y-99693430D01*
X136856725Y-99646740D01*
X136925695Y-99635564D01*
X136934430Y-99636979D01*
X136963755Y-99642812D01*
X137002401Y-99650500D01*
X137002402Y-99650500D01*
X138645065Y-99650500D01*
X138712104Y-99670185D01*
X138713909Y-99671366D01*
X138770821Y-99709394D01*
X138770823Y-99709395D01*
X138770827Y-99709397D01*
X138894951Y-99760810D01*
X138916503Y-99769737D01*
X139071153Y-99800499D01*
X139071156Y-99800500D01*
X139071158Y-99800500D01*
X139228844Y-99800500D01*
X139228845Y-99800499D01*
X139383497Y-99769737D01*
X139529179Y-99709394D01*
X139660289Y-99621789D01*
X139771789Y-99510289D01*
X139859394Y-99379179D01*
X139860358Y-99376853D01*
X139896442Y-99289737D01*
X139919737Y-99233497D01*
X139950500Y-99078842D01*
X139950500Y-98921158D01*
X139950500Y-98921155D01*
X139950499Y-98921153D01*
X139937081Y-98853695D01*
X139919737Y-98766503D01*
X139919735Y-98766498D01*
X139859397Y-98620827D01*
X139859390Y-98620814D01*
X139771789Y-98489711D01*
X139771786Y-98489707D01*
X139660292Y-98378213D01*
X139660288Y-98378210D01*
X139529185Y-98290609D01*
X139529172Y-98290602D01*
X139383501Y-98230264D01*
X139383489Y-98230261D01*
X139228845Y-98199500D01*
X139228842Y-98199500D01*
X139071158Y-98199500D01*
X139071155Y-98199500D01*
X138916510Y-98230261D01*
X138916498Y-98230264D01*
X138770827Y-98290602D01*
X138770820Y-98290606D01*
X138741928Y-98309911D01*
X138713955Y-98328602D01*
X138647279Y-98349480D01*
X138645065Y-98349500D01*
X137387279Y-98349500D01*
X137320240Y-98329815D01*
X137299598Y-98313181D01*
X136091140Y-97104723D01*
X136057655Y-97043400D01*
X136062639Y-96973708D01*
X136104511Y-96917775D01*
X136154630Y-96895425D01*
X136179497Y-96890478D01*
X136233497Y-96879737D01*
X136379179Y-96819394D01*
X136436044Y-96781397D01*
X136502721Y-96760520D01*
X136504935Y-96760500D01*
X137134071Y-96760500D01*
X137218615Y-96743682D01*
X137259744Y-96735501D01*
X137378127Y-96686465D01*
X137380815Y-96684669D01*
X137484669Y-96615277D01*
X139285276Y-94814669D01*
X139356465Y-94708127D01*
X139405501Y-94589744D01*
X139413286Y-94550606D01*
X139425289Y-94490264D01*
X139430500Y-94464070D01*
X139430500Y-91124799D01*
X139450185Y-91057760D01*
X139451398Y-91055908D01*
X139529390Y-90939185D01*
X139529390Y-90939184D01*
X139529394Y-90939179D01*
X139589737Y-90793497D01*
X139620500Y-90638842D01*
X139620500Y-90481158D01*
X139620500Y-90481155D01*
X139620499Y-90481153D01*
X139605231Y-90404397D01*
X139589737Y-90326503D01*
X139557796Y-90249390D01*
X139529397Y-90180827D01*
X139529390Y-90180814D01*
X139441789Y-90049711D01*
X139441786Y-90049707D01*
X139330292Y-89938213D01*
X139330288Y-89938210D01*
X139199185Y-89850609D01*
X139199172Y-89850602D01*
X139053501Y-89790264D01*
X139053489Y-89790261D01*
X138898845Y-89759500D01*
X138898842Y-89759500D01*
X138741158Y-89759500D01*
X138741155Y-89759500D01*
X138586510Y-89790261D01*
X138586498Y-89790264D01*
X138440827Y-89850602D01*
X138440814Y-89850609D01*
X138309711Y-89938210D01*
X138309707Y-89938213D01*
X138198213Y-90049707D01*
X138198210Y-90049711D01*
X138110609Y-90180814D01*
X138110602Y-90180827D01*
X138050264Y-90326498D01*
X138050261Y-90326510D01*
X138019500Y-90481153D01*
X138019500Y-90638846D01*
X138050261Y-90793489D01*
X138050264Y-90793501D01*
X138110603Y-90939174D01*
X138113478Y-90944552D01*
X138111544Y-90945585D01*
X138129480Y-91002849D01*
X138129500Y-91005071D01*
X138129500Y-94079192D01*
X138109815Y-94146231D01*
X138093181Y-94166873D01*
X136836873Y-95423181D01*
X136809945Y-95437884D01*
X136784127Y-95454477D01*
X136777926Y-95455368D01*
X136775550Y-95456666D01*
X136749192Y-95459500D01*
X136504935Y-95459500D01*
X136437896Y-95439815D01*
X136436090Y-95438633D01*
X136379179Y-95400606D01*
X136379172Y-95400602D01*
X136233501Y-95340264D01*
X136233489Y-95340261D01*
X136078845Y-95309500D01*
X136078842Y-95309500D01*
X135921158Y-95309500D01*
X135921155Y-95309500D01*
X135766510Y-95340261D01*
X135766498Y-95340264D01*
X135620827Y-95400602D01*
X135620814Y-95400609D01*
X135489711Y-95488210D01*
X135489707Y-95488213D01*
X135378213Y-95599707D01*
X135378210Y-95599711D01*
X135290609Y-95730814D01*
X135290602Y-95730827D01*
X135230264Y-95876498D01*
X135230261Y-95876507D01*
X135214574Y-95955371D01*
X135182188Y-96017281D01*
X135121472Y-96051855D01*
X135051703Y-96048114D01*
X135005276Y-96018859D01*
X134791145Y-95804727D01*
X134791144Y-95804726D01*
X134789275Y-95803477D01*
X134684598Y-95733535D01*
X134678060Y-95730827D01*
X134566215Y-95684499D01*
X134566209Y-95684497D01*
X134440542Y-95659500D01*
X134440540Y-95659500D01*
X126031173Y-95659500D01*
X125983721Y-95650061D01*
X125863498Y-95600263D01*
X125863488Y-95600260D01*
X125708845Y-95569500D01*
X125708842Y-95569500D01*
X125551158Y-95569500D01*
X125551155Y-95569500D01*
X125396510Y-95600261D01*
X125396498Y-95600264D01*
X125321952Y-95631142D01*
X125252482Y-95638611D01*
X125190003Y-95607335D01*
X125154352Y-95547246D01*
X125150500Y-95516581D01*
X125150500Y-95501155D01*
X125150499Y-95501153D01*
X125141392Y-95455368D01*
X125119737Y-95346503D01*
X125117152Y-95340263D01*
X125059397Y-95200827D01*
X125059390Y-95200814D01*
X124971789Y-95069711D01*
X124971786Y-95069707D01*
X124860292Y-94958213D01*
X124860288Y-94958210D01*
X124729185Y-94870609D01*
X124729172Y-94870602D01*
X124583501Y-94810264D01*
X124583489Y-94810261D01*
X124428845Y-94779500D01*
X124428842Y-94779500D01*
X124271158Y-94779500D01*
X124271155Y-94779500D01*
X124116510Y-94810261D01*
X124116498Y-94810264D01*
X124019213Y-94850561D01*
X123949744Y-94858030D01*
X123887265Y-94826754D01*
X123868658Y-94804890D01*
X123841000Y-94763497D01*
X123831789Y-94749711D01*
X123831787Y-94749708D01*
X123720292Y-94638213D01*
X123720288Y-94638210D01*
X123589185Y-94550609D01*
X123589172Y-94550602D01*
X123443501Y-94490264D01*
X123443489Y-94490261D01*
X123288845Y-94459500D01*
X123288842Y-94459500D01*
X123131158Y-94459500D01*
X123131155Y-94459500D01*
X122976510Y-94490261D01*
X122976498Y-94490264D01*
X122830827Y-94550602D01*
X122830814Y-94550609D01*
X122699711Y-94638210D01*
X122699707Y-94638213D01*
X122588213Y-94749707D01*
X122588210Y-94749711D01*
X122500609Y-94880814D01*
X122500604Y-94880823D01*
X122489659Y-94907247D01*
X122445816Y-94961649D01*
X122379521Y-94983712D01*
X122311823Y-94966431D01*
X122287418Y-94947472D01*
X121744674Y-94404727D01*
X121744673Y-94404726D01*
X121744669Y-94404723D01*
X121638127Y-94333535D01*
X121519744Y-94284499D01*
X121519738Y-94284497D01*
X121394071Y-94259500D01*
X121394069Y-94259500D01*
X104030808Y-94259500D01*
X103963769Y-94239815D01*
X103943127Y-94223181D01*
X102186819Y-92466873D01*
X102153334Y-92405550D01*
X102150500Y-92379192D01*
X102150500Y-83581153D01*
X105409500Y-83581153D01*
X105409500Y-83738846D01*
X105440261Y-83893489D01*
X105440264Y-83893501D01*
X105500602Y-84039172D01*
X105500609Y-84039185D01*
X105588210Y-84170288D01*
X105588213Y-84170292D01*
X105699707Y-84281786D01*
X105699711Y-84281789D01*
X105830814Y-84369390D01*
X105830827Y-84369397D01*
X105918230Y-84405599D01*
X105976503Y-84429737D01*
X106056063Y-84445562D01*
X106117971Y-84477944D01*
X106119551Y-84479497D01*
X108013181Y-86373127D01*
X108046666Y-86434450D01*
X108049500Y-86460808D01*
X108049500Y-87565064D01*
X108029815Y-87632103D01*
X108028603Y-87633954D01*
X107990608Y-87690817D01*
X107990602Y-87690828D01*
X107930264Y-87836498D01*
X107930261Y-87836510D01*
X107899500Y-87991153D01*
X107899500Y-88148846D01*
X107930261Y-88303489D01*
X107930264Y-88303501D01*
X107990602Y-88449172D01*
X107990606Y-88449179D01*
X108028602Y-88506044D01*
X108049480Y-88572721D01*
X108049500Y-88574935D01*
X108049500Y-89110030D01*
X108029815Y-89177069D01*
X108028602Y-89178921D01*
X108000609Y-89220814D01*
X108000602Y-89220827D01*
X107940264Y-89366498D01*
X107940261Y-89366510D01*
X107909500Y-89521153D01*
X107909500Y-89678846D01*
X107940261Y-89833489D01*
X107940264Y-89833501D01*
X108000602Y-89979172D01*
X108000609Y-89979185D01*
X108088210Y-90110288D01*
X108088213Y-90110292D01*
X108199707Y-90221786D01*
X108199711Y-90221789D01*
X108330814Y-90309390D01*
X108330827Y-90309397D01*
X108476498Y-90369735D01*
X108476503Y-90369737D01*
X108631153Y-90400499D01*
X108631156Y-90400500D01*
X108631158Y-90400500D01*
X108788844Y-90400500D01*
X108788845Y-90400499D01*
X108943497Y-90369737D01*
X109089179Y-90309394D01*
X109220289Y-90221789D01*
X109331789Y-90110289D01*
X109419394Y-89979179D01*
X109479737Y-89833497D01*
X109510500Y-89678842D01*
X109510500Y-89521158D01*
X109510500Y-89521155D01*
X109510499Y-89521153D01*
X109502193Y-89479397D01*
X109479737Y-89366503D01*
X109452312Y-89300292D01*
X109419397Y-89220828D01*
X109419396Y-89220827D01*
X109419394Y-89220821D01*
X109371397Y-89148988D01*
X109350520Y-89082312D01*
X109350500Y-89080099D01*
X109350500Y-88574935D01*
X109370185Y-88507896D01*
X109371366Y-88506090D01*
X109409394Y-88449179D01*
X109469737Y-88303497D01*
X109500500Y-88148842D01*
X109500500Y-87991158D01*
X109500500Y-87991155D01*
X109500499Y-87991153D01*
X109488392Y-87930288D01*
X109469737Y-87836503D01*
X109462020Y-87817872D01*
X109409397Y-87690828D01*
X109409396Y-87690827D01*
X109409394Y-87690821D01*
X109371396Y-87633953D01*
X109365746Y-87615907D01*
X109355523Y-87599999D01*
X109351071Y-87569036D01*
X109350520Y-87567276D01*
X109350500Y-87565064D01*
X109350500Y-87341153D01*
X112239500Y-87341153D01*
X112239500Y-87498846D01*
X112270261Y-87653489D01*
X112270264Y-87653501D01*
X112330602Y-87799172D01*
X112330609Y-87799185D01*
X112418210Y-87930288D01*
X112418213Y-87930292D01*
X112529707Y-88041786D01*
X112529711Y-88041789D01*
X112660814Y-88129390D01*
X112660827Y-88129397D01*
X112745568Y-88164497D01*
X112806503Y-88189737D01*
X112806507Y-88189737D01*
X112806508Y-88189738D01*
X112811159Y-88190663D01*
X112873072Y-88223045D01*
X112874654Y-88224600D01*
X114292984Y-89642930D01*
X114326469Y-89704253D01*
X114326920Y-89706420D01*
X114340261Y-89773489D01*
X114340264Y-89773501D01*
X114400602Y-89919172D01*
X114400609Y-89919185D01*
X114488210Y-90050288D01*
X114488213Y-90050292D01*
X114599707Y-90161786D01*
X114599711Y-90161789D01*
X114730814Y-90249390D01*
X114730827Y-90249397D01*
X114875665Y-90309390D01*
X114876503Y-90309737D01*
X115024482Y-90339172D01*
X115031153Y-90340499D01*
X115031156Y-90340500D01*
X115031158Y-90340500D01*
X115188844Y-90340500D01*
X115188845Y-90340499D01*
X115343497Y-90309737D01*
X115489179Y-90249394D01*
X115620289Y-90161789D01*
X115731789Y-90050289D01*
X115819394Y-89919179D01*
X115879737Y-89773497D01*
X115910500Y-89618842D01*
X115910500Y-89461158D01*
X115910500Y-89461155D01*
X115910499Y-89461153D01*
X115898929Y-89402989D01*
X115879737Y-89306503D01*
X115868879Y-89280289D01*
X115819397Y-89160827D01*
X115819390Y-89160814D01*
X115731789Y-89029711D01*
X115731786Y-89029707D01*
X115620292Y-88918213D01*
X115620288Y-88918210D01*
X115489185Y-88830609D01*
X115489172Y-88830602D01*
X115343501Y-88770264D01*
X115343489Y-88770261D01*
X115276420Y-88756920D01*
X115214509Y-88724535D01*
X115212930Y-88722984D01*
X113869431Y-87379485D01*
X113835946Y-87318162D01*
X113835495Y-87315995D01*
X113822954Y-87252947D01*
X113809737Y-87186503D01*
X113807163Y-87180288D01*
X113749397Y-87040827D01*
X113749390Y-87040814D01*
X113661789Y-86909711D01*
X113661786Y-86909707D01*
X113550292Y-86798213D01*
X113550288Y-86798210D01*
X113479863Y-86751153D01*
X118389500Y-86751153D01*
X118389500Y-86908846D01*
X118420261Y-87063489D01*
X118420264Y-87063501D01*
X118480602Y-87209172D01*
X118480606Y-87209179D01*
X118518602Y-87266044D01*
X118539480Y-87332721D01*
X118539500Y-87334935D01*
X118539500Y-89378325D01*
X118530061Y-89425777D01*
X118515263Y-89461501D01*
X118515260Y-89461511D01*
X118484500Y-89616153D01*
X118484500Y-89773846D01*
X118515261Y-89928489D01*
X118515264Y-89928501D01*
X118575602Y-90074172D01*
X118575609Y-90074185D01*
X118663210Y-90205288D01*
X118663213Y-90205292D01*
X118774707Y-90316786D01*
X118774711Y-90316789D01*
X118905814Y-90404390D01*
X118905827Y-90404397D01*
X119051498Y-90464735D01*
X119051503Y-90464737D01*
X119206153Y-90495499D01*
X119206156Y-90495500D01*
X119206158Y-90495500D01*
X119363844Y-90495500D01*
X119363845Y-90495499D01*
X119518497Y-90464737D01*
X119664179Y-90404394D01*
X119795289Y-90316789D01*
X119906789Y-90205289D01*
X119994394Y-90074179D01*
X119999054Y-90062930D01*
X120009031Y-90038842D01*
X120054737Y-89928497D01*
X120085500Y-89773842D01*
X120085500Y-89694500D01*
X120105185Y-89627461D01*
X120157989Y-89581706D01*
X120209500Y-89570500D01*
X120308844Y-89570500D01*
X120308845Y-89570499D01*
X120463497Y-89539737D01*
X120609179Y-89479394D01*
X120740289Y-89391789D01*
X120851789Y-89280289D01*
X120939394Y-89149179D01*
X120999737Y-89003497D01*
X121030500Y-88848842D01*
X121030500Y-88730807D01*
X121036270Y-88711153D01*
X132049500Y-88711153D01*
X132049500Y-88868846D01*
X132080261Y-89023489D01*
X132080264Y-89023501D01*
X132140602Y-89169172D01*
X132140609Y-89169185D01*
X132228210Y-89300288D01*
X132228213Y-89300292D01*
X132339707Y-89411786D01*
X132339711Y-89411789D01*
X132470814Y-89499390D01*
X132470827Y-89499397D01*
X132605115Y-89555020D01*
X132616503Y-89559737D01*
X132726948Y-89581706D01*
X132771153Y-89590499D01*
X132771156Y-89590500D01*
X132771158Y-89590500D01*
X132928844Y-89590500D01*
X132928845Y-89590499D01*
X133083497Y-89559737D01*
X133229179Y-89499394D01*
X133286044Y-89461397D01*
X133352721Y-89440520D01*
X133354935Y-89440500D01*
X134749192Y-89440500D01*
X134816231Y-89460185D01*
X134836873Y-89476819D01*
X135422984Y-90062930D01*
X135456469Y-90124253D01*
X135456920Y-90126420D01*
X135470261Y-90193489D01*
X135470264Y-90193501D01*
X135530602Y-90339172D01*
X135530609Y-90339185D01*
X135618210Y-90470288D01*
X135618213Y-90470292D01*
X135729707Y-90581786D01*
X135729711Y-90581789D01*
X135860814Y-90669390D01*
X135860827Y-90669397D01*
X136006498Y-90729735D01*
X136006503Y-90729737D01*
X136161153Y-90760499D01*
X136161156Y-90760500D01*
X136161158Y-90760500D01*
X136318844Y-90760500D01*
X136318845Y-90760499D01*
X136473497Y-90729737D01*
X136619179Y-90669394D01*
X136750289Y-90581789D01*
X136861789Y-90470289D01*
X136949394Y-90339179D01*
X137009737Y-90193497D01*
X137040500Y-90038842D01*
X137040500Y-89881158D01*
X137040500Y-89881155D01*
X137040499Y-89881153D01*
X137031020Y-89833501D01*
X137009737Y-89726503D01*
X137009735Y-89726498D01*
X136949397Y-89580827D01*
X136949390Y-89580814D01*
X136861789Y-89449711D01*
X136861786Y-89449707D01*
X136750292Y-89338213D01*
X136750288Y-89338210D01*
X136619185Y-89250609D01*
X136619172Y-89250602D01*
X136473501Y-89190264D01*
X136473489Y-89190261D01*
X136406420Y-89176920D01*
X136344509Y-89144535D01*
X136342930Y-89142984D01*
X135484674Y-88284727D01*
X135484673Y-88284726D01*
X135484669Y-88284723D01*
X135378127Y-88213535D01*
X135322909Y-88190663D01*
X135259744Y-88164499D01*
X135259738Y-88164497D01*
X135134071Y-88139500D01*
X135134069Y-88139500D01*
X133354935Y-88139500D01*
X133287896Y-88119815D01*
X133286090Y-88118633D01*
X133229179Y-88080606D01*
X133229172Y-88080602D01*
X133083501Y-88020264D01*
X133083489Y-88020261D01*
X132928845Y-87989500D01*
X132928842Y-87989500D01*
X132771158Y-87989500D01*
X132771155Y-87989500D01*
X132616510Y-88020261D01*
X132616498Y-88020264D01*
X132470827Y-88080602D01*
X132470814Y-88080609D01*
X132339711Y-88168210D01*
X132339707Y-88168213D01*
X132228213Y-88279707D01*
X132228210Y-88279711D01*
X132140609Y-88410814D01*
X132140602Y-88410827D01*
X132080264Y-88556498D01*
X132080261Y-88556510D01*
X132049500Y-88711153D01*
X121036270Y-88711153D01*
X121039144Y-88701366D01*
X121045668Y-88671380D01*
X121049422Y-88666364D01*
X121050185Y-88663768D01*
X121066819Y-88643126D01*
X121092560Y-88617385D01*
X122144881Y-87565064D01*
X123242931Y-86467013D01*
X123304252Y-86433530D01*
X123306317Y-86433099D01*
X123373497Y-86419737D01*
X123519179Y-86359394D01*
X123650289Y-86271789D01*
X123761789Y-86160289D01*
X123849394Y-86029179D01*
X123909737Y-85883497D01*
X123940500Y-85728842D01*
X123940500Y-85571158D01*
X123940500Y-85571155D01*
X123940499Y-85571153D01*
X123909738Y-85416510D01*
X123909738Y-85416508D01*
X123909737Y-85416503D01*
X123909735Y-85416498D01*
X123849397Y-85270827D01*
X123849390Y-85270814D01*
X123761789Y-85139711D01*
X123761786Y-85139707D01*
X123650292Y-85028213D01*
X123650288Y-85028210D01*
X123519185Y-84940609D01*
X123519172Y-84940602D01*
X123373501Y-84880264D01*
X123373489Y-84880261D01*
X123218845Y-84849500D01*
X123218842Y-84849500D01*
X123061158Y-84849500D01*
X123061155Y-84849500D01*
X122906510Y-84880261D01*
X122906498Y-84880264D01*
X122760827Y-84940602D01*
X122760814Y-84940609D01*
X122629711Y-85028210D01*
X122629707Y-85028213D01*
X122518213Y-85139707D01*
X122518210Y-85139711D01*
X122430609Y-85270814D01*
X122430602Y-85270827D01*
X122370264Y-85416498D01*
X122370261Y-85416508D01*
X122356920Y-85483579D01*
X122324535Y-85545490D01*
X122322984Y-85547068D01*
X120052181Y-87817872D01*
X119990858Y-87851357D01*
X119921166Y-87846373D01*
X119865233Y-87804501D01*
X119840816Y-87739037D01*
X119840500Y-87730191D01*
X119840500Y-87334935D01*
X119860185Y-87267896D01*
X119861366Y-87266090D01*
X119899394Y-87209179D01*
X119959737Y-87063497D01*
X119990500Y-86908842D01*
X119990500Y-86751158D01*
X119990500Y-86751155D01*
X119990499Y-86751153D01*
X119970431Y-86650264D01*
X119959737Y-86596503D01*
X119903531Y-86460808D01*
X119899397Y-86450827D01*
X119899390Y-86450814D01*
X119811789Y-86319711D01*
X119811786Y-86319707D01*
X119700292Y-86208213D01*
X119700288Y-86208210D01*
X119569185Y-86120609D01*
X119569172Y-86120602D01*
X119423501Y-86060264D01*
X119423489Y-86060261D01*
X119268845Y-86029500D01*
X119268842Y-86029500D01*
X119111158Y-86029500D01*
X119111155Y-86029500D01*
X118956510Y-86060261D01*
X118956498Y-86060264D01*
X118810827Y-86120602D01*
X118810814Y-86120609D01*
X118679711Y-86208210D01*
X118679707Y-86208213D01*
X118568213Y-86319707D01*
X118568210Y-86319711D01*
X118480609Y-86450814D01*
X118480602Y-86450827D01*
X118420264Y-86596498D01*
X118420261Y-86596510D01*
X118389500Y-86751153D01*
X113479863Y-86751153D01*
X113419185Y-86710609D01*
X113419172Y-86710602D01*
X113273501Y-86650264D01*
X113273489Y-86650261D01*
X113118845Y-86619500D01*
X113118842Y-86619500D01*
X112961158Y-86619500D01*
X112961155Y-86619500D01*
X112806510Y-86650261D01*
X112806498Y-86650264D01*
X112660827Y-86710602D01*
X112660814Y-86710609D01*
X112529711Y-86798210D01*
X112529707Y-86798213D01*
X112418213Y-86909707D01*
X112418210Y-86909711D01*
X112330609Y-87040814D01*
X112330602Y-87040827D01*
X112270264Y-87186498D01*
X112270261Y-87186510D01*
X112239500Y-87341153D01*
X109350500Y-87341153D01*
X109350500Y-86075928D01*
X109325502Y-85950261D01*
X109325501Y-85950260D01*
X109325501Y-85950256D01*
X109276465Y-85831873D01*
X109268361Y-85819744D01*
X109205277Y-85725331D01*
X109205275Y-85725329D01*
X109205273Y-85725326D01*
X109205272Y-85725325D01*
X107024532Y-83544586D01*
X106991047Y-83483263D01*
X106990610Y-83481170D01*
X106979737Y-83426503D01*
X106927131Y-83299500D01*
X106919397Y-83280827D01*
X106919390Y-83280814D01*
X106831789Y-83149711D01*
X106831786Y-83149707D01*
X106720292Y-83038213D01*
X106720288Y-83038210D01*
X106589185Y-82950609D01*
X106589172Y-82950602D01*
X106443501Y-82890264D01*
X106443489Y-82890261D01*
X106288845Y-82859500D01*
X106288842Y-82859500D01*
X106131158Y-82859500D01*
X106131155Y-82859500D01*
X105976510Y-82890261D01*
X105976498Y-82890264D01*
X105830827Y-82950602D01*
X105830814Y-82950609D01*
X105699711Y-83038210D01*
X105699707Y-83038213D01*
X105588213Y-83149707D01*
X105588210Y-83149711D01*
X105500609Y-83280814D01*
X105500602Y-83280827D01*
X105440264Y-83426498D01*
X105440261Y-83426510D01*
X105409500Y-83581153D01*
X102150500Y-83581153D01*
X102150500Y-63491158D01*
X102929500Y-63491158D01*
X102929500Y-63499001D01*
X102929500Y-63648846D01*
X102960261Y-63803489D01*
X102960264Y-63803501D01*
X103020602Y-63949172D01*
X103020609Y-63949185D01*
X103108210Y-64080288D01*
X103108213Y-64080292D01*
X103219707Y-64191786D01*
X103219711Y-64191789D01*
X103350814Y-64279390D01*
X103350827Y-64279397D01*
X103470026Y-64328770D01*
X103496503Y-64339737D01*
X103651153Y-64370499D01*
X103651156Y-64370500D01*
X103651158Y-64370500D01*
X103808844Y-64370500D01*
X103808845Y-64370499D01*
X103963497Y-64339737D01*
X104109179Y-64279394D01*
X104240289Y-64191789D01*
X104351789Y-64080289D01*
X104439394Y-63949179D01*
X104499737Y-63803497D01*
X104530500Y-63648842D01*
X104530500Y-63491158D01*
X104530500Y-63491155D01*
X104530499Y-63491153D01*
X104499739Y-63336511D01*
X104499738Y-63336508D01*
X104499737Y-63336503D01*
X104489937Y-63312844D01*
X104480500Y-63265396D01*
X104480500Y-59971153D01*
X139629500Y-59971153D01*
X139629500Y-60128846D01*
X139660261Y-60283489D01*
X139660264Y-60283501D01*
X139720602Y-60429172D01*
X139720609Y-60429185D01*
X139808210Y-60560288D01*
X139808213Y-60560292D01*
X139919707Y-60671786D01*
X139919711Y-60671789D01*
X140050814Y-60759390D01*
X140050827Y-60759397D01*
X140150060Y-60800500D01*
X140196503Y-60819737D01*
X140351153Y-60850499D01*
X140351156Y-60850500D01*
X140351158Y-60850500D01*
X140508844Y-60850500D01*
X140508845Y-60850499D01*
X140585152Y-60835320D01*
X140663488Y-60819739D01*
X140663489Y-60819738D01*
X140663497Y-60819737D01*
X140687155Y-60809937D01*
X140734604Y-60800500D01*
X142903920Y-60800500D01*
X143001462Y-60781096D01*
X143048913Y-60771658D01*
X143185495Y-60715084D01*
X143250291Y-60671789D01*
X143285168Y-60648484D01*
X143285171Y-60648484D01*
X143306596Y-60637031D01*
X143349179Y-60619394D01*
X143480289Y-60531789D01*
X143591789Y-60420289D01*
X143679394Y-60289179D01*
X143739737Y-60143497D01*
X143770500Y-59988842D01*
X143770500Y-59841153D01*
X153319500Y-59841153D01*
X153319500Y-59998846D01*
X153350261Y-60153489D01*
X153350264Y-60153501D01*
X153410602Y-60299172D01*
X153410609Y-60299185D01*
X153498210Y-60430288D01*
X153498213Y-60430292D01*
X153609707Y-60541786D01*
X153609711Y-60541789D01*
X153740814Y-60629390D01*
X153740827Y-60629397D01*
X153843172Y-60671789D01*
X153886503Y-60689737D01*
X154041153Y-60720499D01*
X154041156Y-60720500D01*
X154041158Y-60720500D01*
X154198844Y-60720500D01*
X154198845Y-60720499D01*
X154353497Y-60689737D01*
X154499179Y-60629394D01*
X154630289Y-60541789D01*
X154741789Y-60430289D01*
X154829394Y-60299179D01*
X154889737Y-60153497D01*
X154920500Y-59998842D01*
X154920500Y-59998840D01*
X154920637Y-59998152D01*
X154937279Y-59956341D01*
X154944703Y-59944532D01*
X154960520Y-59928716D01*
X155025306Y-59816503D01*
X155039577Y-59791785D01*
X155080501Y-59639057D01*
X155080501Y-59480943D01*
X155080501Y-59473348D01*
X155080500Y-59473330D01*
X155080500Y-56781297D01*
X155100185Y-56714258D01*
X155125836Y-56685443D01*
X155130279Y-56681795D01*
X155130289Y-56681789D01*
X155241789Y-56570289D01*
X155329394Y-56439179D01*
X155389737Y-56293497D01*
X155420500Y-56138842D01*
X155420500Y-55981158D01*
X155420500Y-55981155D01*
X155420499Y-55981153D01*
X155389738Y-55826510D01*
X155389737Y-55826503D01*
X155359956Y-55754604D01*
X155329397Y-55680827D01*
X155329390Y-55680814D01*
X155241789Y-55549711D01*
X155241786Y-55549707D01*
X155130292Y-55438213D01*
X155130288Y-55438210D01*
X154999185Y-55350609D01*
X154999172Y-55350602D01*
X154853501Y-55290264D01*
X154853489Y-55290261D01*
X154698845Y-55259500D01*
X154698842Y-55259500D01*
X154541158Y-55259500D01*
X154541155Y-55259500D01*
X154386510Y-55290261D01*
X154386498Y-55290264D01*
X154240827Y-55350602D01*
X154240814Y-55350609D01*
X154109711Y-55438210D01*
X154109707Y-55438213D01*
X153998213Y-55549707D01*
X153998210Y-55549711D01*
X153910609Y-55680814D01*
X153910602Y-55680827D01*
X153850264Y-55826498D01*
X153850261Y-55826510D01*
X153819500Y-55981153D01*
X153819500Y-56138846D01*
X153850261Y-56293489D01*
X153850263Y-56293497D01*
X153870061Y-56341293D01*
X153879500Y-56388746D01*
X153879500Y-59070308D01*
X153859815Y-59137347D01*
X153807011Y-59183102D01*
X153802954Y-59184869D01*
X153740821Y-59210606D01*
X153740814Y-59210609D01*
X153609711Y-59298210D01*
X153609707Y-59298213D01*
X153498213Y-59409707D01*
X153498210Y-59409711D01*
X153410609Y-59540814D01*
X153410602Y-59540827D01*
X153350264Y-59686498D01*
X153350261Y-59686510D01*
X153319500Y-59841153D01*
X143770500Y-59841153D01*
X143770500Y-59831158D01*
X143770500Y-59831155D01*
X143770499Y-59831153D01*
X143767182Y-59814476D01*
X143739737Y-59676503D01*
X143737386Y-59670827D01*
X143679397Y-59530827D01*
X143679390Y-59530814D01*
X143591789Y-59399711D01*
X143591786Y-59399707D01*
X143480292Y-59288213D01*
X143480288Y-59288210D01*
X143349185Y-59200609D01*
X143349172Y-59200602D01*
X143203501Y-59140264D01*
X143203489Y-59140261D01*
X143048845Y-59109500D01*
X143048842Y-59109500D01*
X142891158Y-59109500D01*
X142891155Y-59109500D01*
X142736510Y-59140261D01*
X142736498Y-59140264D01*
X142590827Y-59200602D01*
X142590814Y-59200609D01*
X142474091Y-59278602D01*
X142407413Y-59299480D01*
X142405200Y-59299500D01*
X140734604Y-59299500D01*
X140687155Y-59290062D01*
X140663497Y-59280263D01*
X140663493Y-59280262D01*
X140663488Y-59280260D01*
X140508845Y-59249500D01*
X140508842Y-59249500D01*
X140351158Y-59249500D01*
X140351155Y-59249500D01*
X140196510Y-59280261D01*
X140196498Y-59280264D01*
X140050827Y-59340602D01*
X140050814Y-59340609D01*
X139919711Y-59428210D01*
X139919707Y-59428213D01*
X139808213Y-59539707D01*
X139808210Y-59539711D01*
X139720609Y-59670814D01*
X139720602Y-59670827D01*
X139660264Y-59816498D01*
X139660261Y-59816510D01*
X139629500Y-59971153D01*
X104480500Y-59971153D01*
X104480500Y-59392230D01*
X104500185Y-59325191D01*
X104516819Y-59304549D01*
X104724549Y-59096819D01*
X104785872Y-59063334D01*
X104812230Y-59060500D01*
X132069538Y-59060500D01*
X132110471Y-59068641D01*
X132110676Y-59067969D01*
X132116492Y-59069732D01*
X132116503Y-59069737D01*
X132271153Y-59100499D01*
X132271156Y-59100500D01*
X132271158Y-59100500D01*
X132428844Y-59100500D01*
X132428845Y-59100499D01*
X132583497Y-59069737D01*
X132729179Y-59009394D01*
X132860289Y-58921789D01*
X132971789Y-58810289D01*
X133059394Y-58679179D01*
X133119737Y-58533497D01*
X133150500Y-58378842D01*
X133150500Y-58221158D01*
X133150500Y-58221155D01*
X133150499Y-58221153D01*
X133144139Y-58189179D01*
X133119737Y-58066503D01*
X133119735Y-58066498D01*
X133059397Y-57920827D01*
X133059390Y-57920814D01*
X132971789Y-57789711D01*
X132971786Y-57789707D01*
X132860292Y-57678213D01*
X132860288Y-57678210D01*
X132729185Y-57590609D01*
X132729172Y-57590602D01*
X132643228Y-57555004D01*
X132583501Y-57530264D01*
X132583489Y-57530261D01*
X132428845Y-57499500D01*
X132428842Y-57499500D01*
X132271158Y-57499500D01*
X132271155Y-57499500D01*
X132116511Y-57530260D01*
X132116501Y-57530263D01*
X132068706Y-57550061D01*
X132021254Y-57559500D01*
X104376080Y-57559500D01*
X104231092Y-57588340D01*
X104231082Y-57588343D01*
X104094511Y-57644912D01*
X104094499Y-57644919D01*
X104050232Y-57674498D01*
X104050231Y-57674499D01*
X103971582Y-57727049D01*
X103971581Y-57727050D01*
X103147052Y-58551578D01*
X103147049Y-58551581D01*
X103102585Y-58618126D01*
X103102586Y-58618127D01*
X103064914Y-58674508D01*
X103008343Y-58811082D01*
X103008340Y-58811092D01*
X102979500Y-58956079D01*
X102979500Y-63265396D01*
X102978049Y-63272687D01*
X102976408Y-63292916D01*
X102974079Y-63303147D01*
X102960263Y-63336503D01*
X102929500Y-63491158D01*
X102150500Y-63491158D01*
X102150500Y-57446530D01*
X136509500Y-57446530D01*
X136509500Y-58253469D01*
X136549868Y-58456412D01*
X136549870Y-58456420D01*
X136629058Y-58647596D01*
X136744024Y-58819657D01*
X136890342Y-58965975D01*
X136890345Y-58965977D01*
X137062402Y-59080941D01*
X137253580Y-59160130D01*
X137456530Y-59200499D01*
X137456534Y-59200500D01*
X137456535Y-59200500D01*
X137663466Y-59200500D01*
X137663467Y-59200499D01*
X137866420Y-59160130D01*
X138057598Y-59080941D01*
X138229655Y-58965977D01*
X138375977Y-58819655D01*
X138490941Y-58647598D01*
X138570130Y-58456420D01*
X138610500Y-58253465D01*
X138610500Y-57446535D01*
X138610499Y-57446530D01*
X145149500Y-57446530D01*
X145149500Y-58253469D01*
X145189868Y-58456412D01*
X145189870Y-58456420D01*
X145269058Y-58647596D01*
X145384024Y-58819657D01*
X145530342Y-58965975D01*
X145530345Y-58965977D01*
X145702402Y-59080941D01*
X145893580Y-59160130D01*
X146096530Y-59200499D01*
X146096534Y-59200500D01*
X146096535Y-59200500D01*
X146303466Y-59200500D01*
X146303467Y-59200499D01*
X146506420Y-59160130D01*
X146697598Y-59080941D01*
X146869655Y-58965977D01*
X147015977Y-58819655D01*
X147130941Y-58647598D01*
X147186221Y-58514138D01*
X147230062Y-58459737D01*
X147296356Y-58437672D01*
X147364055Y-58454951D01*
X147369673Y-58458491D01*
X147460814Y-58519390D01*
X147460827Y-58519397D01*
X147606498Y-58579735D01*
X147606503Y-58579737D01*
X147761153Y-58610499D01*
X147761156Y-58610500D01*
X147761158Y-58610500D01*
X147918844Y-58610500D01*
X147918845Y-58610499D01*
X148073497Y-58579737D01*
X148219179Y-58519394D01*
X148350289Y-58431789D01*
X148461789Y-58320289D01*
X148549394Y-58189179D01*
X148559191Y-58165524D01*
X148586069Y-58125297D01*
X149642952Y-57068415D01*
X149695175Y-56990257D01*
X149725084Y-56945495D01*
X149768391Y-56840943D01*
X149781659Y-56808912D01*
X149807353Y-56679737D01*
X149808350Y-56674726D01*
X149810500Y-56663922D01*
X149810500Y-55754604D01*
X149819939Y-55707151D01*
X149829737Y-55683497D01*
X149860500Y-55528842D01*
X149860500Y-55371158D01*
X149860500Y-55371155D01*
X149860499Y-55371153D01*
X149858306Y-55360129D01*
X149829737Y-55216503D01*
X149823151Y-55200602D01*
X149769397Y-55070827D01*
X149769390Y-55070814D01*
X149681789Y-54939711D01*
X149681786Y-54939707D01*
X149570292Y-54828213D01*
X149570288Y-54828210D01*
X149439185Y-54740609D01*
X149439172Y-54740602D01*
X149293501Y-54680264D01*
X149293489Y-54680261D01*
X149138845Y-54649500D01*
X149138842Y-54649500D01*
X148981158Y-54649500D01*
X148981155Y-54649500D01*
X148826510Y-54680261D01*
X148826498Y-54680264D01*
X148680827Y-54740602D01*
X148680814Y-54740609D01*
X148549711Y-54828210D01*
X148549707Y-54828213D01*
X148438213Y-54939707D01*
X148438210Y-54939711D01*
X148350609Y-55070814D01*
X148350602Y-55070827D01*
X148290264Y-55216498D01*
X148290261Y-55216510D01*
X148259500Y-55371153D01*
X148259500Y-55528846D01*
X148290261Y-55683489D01*
X148290263Y-55683497D01*
X148300061Y-55707151D01*
X148309500Y-55754604D01*
X148309500Y-56227769D01*
X148289815Y-56294808D01*
X148273181Y-56315450D01*
X147524703Y-57063927D01*
X147501864Y-57081942D01*
X147493517Y-57087062D01*
X147460821Y-57100606D01*
X147341728Y-57180181D01*
X147339670Y-57181444D01*
X147308167Y-57189981D01*
X147277040Y-57199728D01*
X147274638Y-57199069D01*
X147272233Y-57199721D01*
X147241119Y-57189873D01*
X147209660Y-57181243D01*
X147207995Y-57179389D01*
X147205620Y-57178638D01*
X147184768Y-57153531D01*
X147162971Y-57129264D01*
X147161065Y-57124990D01*
X147160980Y-57124888D01*
X147160965Y-57124766D01*
X147160267Y-57123201D01*
X147143177Y-57081942D01*
X147130941Y-57052402D01*
X147015977Y-56880345D01*
X147015975Y-56880342D01*
X146869657Y-56734024D01*
X146764735Y-56663918D01*
X146697598Y-56619059D01*
X146539412Y-56553536D01*
X146506420Y-56539870D01*
X146506412Y-56539868D01*
X146303469Y-56499500D01*
X146303465Y-56499500D01*
X146096535Y-56499500D01*
X146096530Y-56499500D01*
X145893587Y-56539868D01*
X145893579Y-56539870D01*
X145702403Y-56619058D01*
X145530342Y-56734024D01*
X145384024Y-56880342D01*
X145269058Y-57052403D01*
X145189870Y-57243579D01*
X145189868Y-57243587D01*
X145149500Y-57446530D01*
X138610499Y-57446530D01*
X138570130Y-57243580D01*
X138490941Y-57052402D01*
X138375977Y-56880345D01*
X138375975Y-56880342D01*
X138229657Y-56734024D01*
X138124735Y-56663918D01*
X138057598Y-56619059D01*
X137899412Y-56553536D01*
X137866420Y-56539870D01*
X137866412Y-56539868D01*
X137663469Y-56499500D01*
X137663465Y-56499500D01*
X137456535Y-56499500D01*
X137456530Y-56499500D01*
X137253587Y-56539868D01*
X137253579Y-56539870D01*
X137062403Y-56619058D01*
X136890342Y-56734024D01*
X136744024Y-56880342D01*
X136629058Y-57052403D01*
X136549870Y-57243579D01*
X136549868Y-57243587D01*
X136509500Y-57446530D01*
X102150500Y-57446530D01*
X102150500Y-56385002D01*
X102170185Y-56317963D01*
X102171398Y-56316111D01*
X102171840Y-56315450D01*
X102189394Y-56289179D01*
X102249737Y-56143497D01*
X102280500Y-55988842D01*
X102280500Y-55831158D01*
X102280500Y-55831155D01*
X102280499Y-55831153D01*
X102251128Y-55683497D01*
X102249737Y-55676503D01*
X102219867Y-55604390D01*
X102189397Y-55530827D01*
X102189390Y-55530814D01*
X102101789Y-55399711D01*
X102101786Y-55399707D01*
X101990292Y-55288213D01*
X101990288Y-55288210D01*
X101859185Y-55200609D01*
X101859172Y-55200602D01*
X101713501Y-55140264D01*
X101713489Y-55140261D01*
X101558845Y-55109500D01*
X101558842Y-55109500D01*
X101401158Y-55109500D01*
X101401155Y-55109500D01*
X101246510Y-55140261D01*
X101246498Y-55140264D01*
X101100827Y-55200602D01*
X101100814Y-55200609D01*
X100969711Y-55288210D01*
X100969707Y-55288213D01*
X100858213Y-55399707D01*
X100858210Y-55399711D01*
X100770609Y-55530814D01*
X100770602Y-55530827D01*
X100710264Y-55676498D01*
X100710261Y-55676510D01*
X100679500Y-55831153D01*
X100679500Y-55988846D01*
X100710261Y-56143489D01*
X100710264Y-56143501D01*
X100770602Y-56289172D01*
X100770609Y-56289184D01*
X100828602Y-56375976D01*
X100849480Y-56442653D01*
X100849500Y-56444867D01*
X100849500Y-92764069D01*
X100863795Y-92835931D01*
X100874499Y-92889744D01*
X100911405Y-92978844D01*
X100923535Y-93008127D01*
X100994723Y-93114669D01*
X100994726Y-93114673D01*
X103177872Y-95297819D01*
X103211357Y-95359142D01*
X103206373Y-95428834D01*
X103164501Y-95484767D01*
X103099037Y-95509184D01*
X103090191Y-95509500D01*
X103081155Y-95509500D01*
X102926510Y-95540261D01*
X102926498Y-95540264D01*
X102780827Y-95600602D01*
X102780814Y-95600609D01*
X102649711Y-95688210D01*
X102649707Y-95688213D01*
X102538213Y-95799707D01*
X102538210Y-95799711D01*
X102450609Y-95930814D01*
X102450602Y-95930827D01*
X102390264Y-96076498D01*
X102390261Y-96076508D01*
X102376920Y-96143579D01*
X102344535Y-96205490D01*
X102342984Y-96207068D01*
X101104726Y-97445326D01*
X101033534Y-97551874D01*
X100984499Y-97670255D01*
X100984497Y-97670261D01*
X100959500Y-97795928D01*
X100959500Y-100815064D01*
X100939815Y-100882103D01*
X100938603Y-100883954D01*
X100900608Y-100940817D01*
X100900602Y-100940828D01*
X100840264Y-101086498D01*
X100840261Y-101086510D01*
X100809500Y-101241153D01*
X100809500Y-101398846D01*
X100840261Y-101553489D01*
X100840264Y-101553501D01*
X100900602Y-101699172D01*
X100900609Y-101699185D01*
X100988210Y-101830288D01*
X100988213Y-101830292D01*
X101099707Y-101941786D01*
X101099711Y-101941789D01*
X101230814Y-102029390D01*
X101230827Y-102029397D01*
X101376498Y-102089735D01*
X101376503Y-102089737D01*
X101531153Y-102120499D01*
X101531156Y-102120500D01*
X101531158Y-102120500D01*
X101688844Y-102120500D01*
X101688845Y-102120499D01*
X101843497Y-102089737D01*
X101983597Y-102031706D01*
X101989172Y-102029397D01*
X101989172Y-102029396D01*
X101989179Y-102029394D01*
X102120289Y-101941789D01*
X102231789Y-101830289D01*
X102319394Y-101699179D01*
X102379737Y-101553497D01*
X102410500Y-101398842D01*
X102410500Y-101241158D01*
X102410500Y-101241155D01*
X102410499Y-101241153D01*
X102397739Y-101177007D01*
X102379737Y-101086503D01*
X102319394Y-100940821D01*
X102281396Y-100883953D01*
X102260520Y-100817276D01*
X102260500Y-100815064D01*
X102260500Y-98180807D01*
X102280185Y-98113768D01*
X102296814Y-98093130D01*
X103262931Y-97127013D01*
X103324252Y-97093530D01*
X103326317Y-97093099D01*
X103393497Y-97079737D01*
X103539179Y-97019394D01*
X103670289Y-96931789D01*
X103781789Y-96820289D01*
X103869394Y-96689179D01*
X103929737Y-96543497D01*
X103960500Y-96388842D01*
X103960500Y-96231158D01*
X103960500Y-96231155D01*
X103960499Y-96231153D01*
X103930788Y-96081789D01*
X103929737Y-96076503D01*
X103914707Y-96040217D01*
X103869397Y-95930827D01*
X103869390Y-95930814D01*
X103781789Y-95799711D01*
X103781786Y-95799707D01*
X103754260Y-95772181D01*
X103720775Y-95710858D01*
X103725759Y-95641166D01*
X103767631Y-95585233D01*
X103833095Y-95560816D01*
X103841941Y-95560500D01*
X113128201Y-95560500D01*
X113150476Y-95567040D01*
X113173600Y-95569110D01*
X113183370Y-95576699D01*
X113195240Y-95580185D01*
X113210441Y-95597728D01*
X113228778Y-95611972D01*
X113232894Y-95623640D01*
X113240995Y-95632989D01*
X113244299Y-95655967D01*
X113252023Y-95677862D01*
X113249178Y-95689901D01*
X113250939Y-95702147D01*
X113241294Y-95723265D01*
X113235956Y-95745859D01*
X113227053Y-95754449D01*
X113221914Y-95765703D01*
X113202383Y-95778254D01*
X113185677Y-95794375D01*
X113167103Y-95800927D01*
X113163136Y-95803477D01*
X113152393Y-95806117D01*
X113115293Y-95813497D01*
X113115288Y-95813498D01*
X113110258Y-95814498D01*
X113110257Y-95814498D01*
X112991870Y-95863535D01*
X112885331Y-95934722D01*
X112885324Y-95934728D01*
X106097068Y-102722984D01*
X106035745Y-102756469D01*
X106033579Y-102756920D01*
X105966508Y-102770261D01*
X105966498Y-102770264D01*
X105820827Y-102830602D01*
X105820814Y-102830609D01*
X105689711Y-102918210D01*
X105689707Y-102918213D01*
X105578213Y-103029707D01*
X105578210Y-103029711D01*
X105490609Y-103160814D01*
X105490602Y-103160827D01*
X105430264Y-103306498D01*
X105430261Y-103306510D01*
X105399500Y-103461153D01*
X105399500Y-103618846D01*
X105430261Y-103773489D01*
X105430264Y-103773501D01*
X105490602Y-103919172D01*
X105490609Y-103919185D01*
X105578210Y-104050288D01*
X105578213Y-104050292D01*
X105689707Y-104161786D01*
X105689711Y-104161789D01*
X105820814Y-104249390D01*
X105820827Y-104249397D01*
X105966498Y-104309735D01*
X105966503Y-104309737D01*
X106121153Y-104340499D01*
X106121156Y-104340500D01*
X106121158Y-104340500D01*
X106278844Y-104340500D01*
X106278845Y-104340499D01*
X106433497Y-104309737D01*
X106579179Y-104249394D01*
X106677516Y-104183686D01*
X106744191Y-104162810D01*
X106811571Y-104181294D01*
X106858261Y-104233272D01*
X106860966Y-104239338D01*
X106910602Y-104359172D01*
X106910609Y-104359185D01*
X106998210Y-104490288D01*
X106998213Y-104490292D01*
X107109707Y-104601786D01*
X107109711Y-104601789D01*
X107240814Y-104689390D01*
X107240827Y-104689397D01*
X107386498Y-104749735D01*
X107386503Y-104749737D01*
X107529661Y-104778213D01*
X107541153Y-104780499D01*
X107541156Y-104780500D01*
X107541158Y-104780500D01*
X107698844Y-104780500D01*
X107698845Y-104780499D01*
X107853497Y-104749737D01*
X107999179Y-104689394D01*
X108130289Y-104601789D01*
X108241789Y-104490289D01*
X108329394Y-104359179D01*
X108389737Y-104213497D01*
X108389738Y-104213490D01*
X108391507Y-104207662D01*
X108394047Y-104208432D01*
X108421056Y-104156717D01*
X108481749Y-104122102D01*
X108486105Y-104121152D01*
X108543497Y-104109737D01*
X108689179Y-104049394D01*
X108820289Y-103961789D01*
X108931789Y-103850289D01*
X109019394Y-103719179D01*
X109079737Y-103573497D01*
X109093079Y-103506417D01*
X109125462Y-103444508D01*
X109126898Y-103443045D01*
X109312127Y-103257816D01*
X109373450Y-103224334D01*
X109399807Y-103221500D01*
X115913317Y-103221500D01*
X115980356Y-103241185D01*
X116026111Y-103293989D01*
X116036055Y-103363147D01*
X116029558Y-103386827D01*
X116029949Y-103386954D01*
X116028443Y-103391586D01*
X116028443Y-103391588D01*
X115987095Y-103518844D01*
X115962753Y-103593760D01*
X115929500Y-103803713D01*
X115929500Y-104016286D01*
X115955634Y-104181294D01*
X115962754Y-104226243D01*
X116008327Y-104366503D01*
X116028444Y-104428414D01*
X116124951Y-104617820D01*
X116249890Y-104789786D01*
X116400213Y-104940109D01*
X116572179Y-105065048D01*
X116572181Y-105065049D01*
X116572184Y-105065051D01*
X116761588Y-105161557D01*
X116963757Y-105227246D01*
X117173713Y-105260500D01*
X117173714Y-105260500D01*
X117386286Y-105260500D01*
X117386287Y-105260500D01*
X117596243Y-105227246D01*
X117798412Y-105161557D01*
X117987816Y-105065051D01*
X118048694Y-105020821D01*
X118159786Y-104940109D01*
X118159788Y-104940106D01*
X118159792Y-104940104D01*
X118310104Y-104789792D01*
X118310106Y-104789788D01*
X118310109Y-104789786D01*
X118435048Y-104617820D01*
X118435047Y-104617820D01*
X118435051Y-104617816D01*
X118439514Y-104609054D01*
X118487488Y-104558259D01*
X118555308Y-104541463D01*
X118621444Y-104563999D01*
X118660486Y-104609056D01*
X118664951Y-104617820D01*
X118789890Y-104789786D01*
X118789896Y-104789792D01*
X118940208Y-104940104D01*
X119112184Y-105065051D01*
X119112188Y-105065053D01*
X119116126Y-105067914D01*
X119115146Y-105069262D01*
X119157160Y-105115690D01*
X119169500Y-105169617D01*
X119169500Y-106374069D01*
X119169500Y-106374071D01*
X119169499Y-106374071D01*
X119191665Y-106485498D01*
X119194497Y-106499739D01*
X119194500Y-106499746D01*
X119240062Y-106609744D01*
X119243535Y-106618127D01*
X119314723Y-106724669D01*
X119314726Y-106724673D01*
X119314727Y-106724674D01*
X119747873Y-107157819D01*
X119781358Y-107219142D01*
X119776374Y-107288833D01*
X119734503Y-107344767D01*
X119669038Y-107369184D01*
X119660192Y-107369500D01*
X101100477Y-107369500D01*
X101033438Y-107349815D01*
X100987683Y-107297011D01*
X100977739Y-107227853D01*
X101000310Y-107176627D01*
X100998405Y-107175354D01*
X101089390Y-107039185D01*
X101089390Y-107039184D01*
X101089394Y-107039179D01*
X101090503Y-107036503D01*
X101112221Y-106984069D01*
X101149737Y-106893497D01*
X101168045Y-106801451D01*
X101200429Y-106739543D01*
X101201925Y-106738019D01*
X101722931Y-106217013D01*
X101784252Y-106183530D01*
X101786317Y-106183099D01*
X101853497Y-106169737D01*
X101999179Y-106109394D01*
X102130289Y-106021789D01*
X102241789Y-105910289D01*
X102329394Y-105779179D01*
X102389737Y-105633497D01*
X102420500Y-105478842D01*
X102420500Y-105321158D01*
X102420500Y-105321155D01*
X102420499Y-105321153D01*
X102409989Y-105268316D01*
X102389737Y-105166503D01*
X102387688Y-105161557D01*
X102329397Y-105020827D01*
X102329390Y-105020814D01*
X102241789Y-104889711D01*
X102241786Y-104889707D01*
X102130292Y-104778213D01*
X102130288Y-104778210D01*
X101999185Y-104690609D01*
X101999172Y-104690602D01*
X101853501Y-104630264D01*
X101853489Y-104630261D01*
X101698845Y-104599500D01*
X101698842Y-104599500D01*
X101541158Y-104599500D01*
X101541155Y-104599500D01*
X101386510Y-104630261D01*
X101386498Y-104630264D01*
X101240827Y-104690602D01*
X101240814Y-104690609D01*
X101109711Y-104778210D01*
X101109707Y-104778213D01*
X100998213Y-104889707D01*
X100998210Y-104889711D01*
X100910609Y-105020814D01*
X100910602Y-105020827D01*
X100850264Y-105166498D01*
X100850261Y-105166508D01*
X100836920Y-105233579D01*
X100804535Y-105295490D01*
X100802984Y-105297068D01*
X100252102Y-105847950D01*
X100190779Y-105881435D01*
X100188613Y-105881886D01*
X100146508Y-105890261D01*
X100146498Y-105890264D01*
X100000827Y-105950602D01*
X100000814Y-105950609D01*
X99869711Y-106038210D01*
X99869707Y-106038213D01*
X99758217Y-106149704D01*
X99754353Y-106154413D01*
X99753300Y-106153549D01*
X99704991Y-106193912D01*
X99635664Y-106202609D01*
X99572641Y-106172446D01*
X99567836Y-106167890D01*
X99356819Y-105956873D01*
X99323334Y-105895550D01*
X99320500Y-105869192D01*
X99320500Y-57285928D01*
X99295502Y-57160261D01*
X99295501Y-57160260D01*
X99295501Y-57160256D01*
X99246465Y-57041873D01*
X99246464Y-57041872D01*
X99246460Y-57041864D01*
X99224835Y-57009501D01*
X99224833Y-57009499D01*
X99175276Y-56935330D01*
X99175274Y-56935328D01*
X99175272Y-56935325D01*
X98914673Y-56674726D01*
X98914669Y-56674723D01*
X98808127Y-56603535D01*
X98689744Y-56554499D01*
X98689742Y-56554498D01*
X98689741Y-56554498D01*
X98684903Y-56553536D01*
X98684898Y-56553535D01*
X98564071Y-56529500D01*
X98564069Y-56529500D01*
X96989766Y-56529500D01*
X96922727Y-56509815D01*
X96920875Y-56508602D01*
X96789185Y-56420609D01*
X96789172Y-56420602D01*
X96643501Y-56360264D01*
X96643489Y-56360261D01*
X96488845Y-56329500D01*
X96488842Y-56329500D01*
X96331158Y-56329500D01*
X96331155Y-56329500D01*
X96176510Y-56360261D01*
X96176498Y-56360264D01*
X96030827Y-56420602D01*
X96030814Y-56420609D01*
X95899711Y-56508210D01*
X95899707Y-56508213D01*
X95788213Y-56619707D01*
X95788210Y-56619711D01*
X95700609Y-56750814D01*
X95700602Y-56750827D01*
X95640264Y-56896498D01*
X95640261Y-56896510D01*
X95609500Y-57051153D01*
X95609500Y-57208846D01*
X95640261Y-57363489D01*
X95640264Y-57363501D01*
X95700602Y-57509172D01*
X95700609Y-57509185D01*
X95788210Y-57640288D01*
X95788213Y-57640292D01*
X95899707Y-57751786D01*
X95899711Y-57751789D01*
X96030814Y-57839390D01*
X96030827Y-57839397D01*
X96176498Y-57899735D01*
X96176503Y-57899737D01*
X96331153Y-57930499D01*
X96331156Y-57930500D01*
X96331158Y-57930500D01*
X96488844Y-57930500D01*
X96488845Y-57930499D01*
X96643497Y-57899737D01*
X96718963Y-57868478D01*
X96787864Y-57839939D01*
X96835316Y-57830500D01*
X97895500Y-57830500D01*
X97962539Y-57850185D01*
X98008294Y-57902989D01*
X98019500Y-57954500D01*
X98019500Y-106254071D01*
X98037522Y-106344669D01*
X98037522Y-106344670D01*
X98044497Y-106379736D01*
X98044499Y-106379744D01*
X98089427Y-106488211D01*
X98093535Y-106498127D01*
X98164723Y-106604669D01*
X98164726Y-106604673D01*
X100085326Y-108525273D01*
X100085329Y-108525275D01*
X100085331Y-108525277D01*
X100191873Y-108596465D01*
X100310256Y-108645501D01*
X100310260Y-108645501D01*
X100310261Y-108645502D01*
X100435928Y-108670500D01*
X100435931Y-108670500D01*
X117575500Y-108670500D01*
X117578371Y-108671343D01*
X117581277Y-108670635D01*
X117611681Y-108681124D01*
X117642539Y-108690185D01*
X117644497Y-108692445D01*
X117647326Y-108693421D01*
X117667240Y-108718692D01*
X117688294Y-108742989D01*
X117689279Y-108746658D01*
X117690572Y-108748299D01*
X117692760Y-108759622D01*
X117698927Y-108782590D01*
X117699500Y-108788528D01*
X117699500Y-108818842D01*
X117705180Y-108847401D01*
X117705778Y-108853590D01*
X117700322Y-108882045D01*
X117697740Y-108910901D01*
X117693824Y-108915940D01*
X117692623Y-108922210D01*
X117672650Y-108943198D01*
X117654877Y-108966078D01*
X117648857Y-108968201D01*
X117644458Y-108972825D01*
X117616309Y-108979683D01*
X117588987Y-108989322D01*
X117582351Y-108989500D01*
X114225929Y-108989500D01*
X114100261Y-109014497D01*
X114100255Y-109014499D01*
X113981859Y-109063540D01*
X113980723Y-109064148D01*
X113978307Y-109065011D01*
X113976246Y-109065866D01*
X113976203Y-109065764D01*
X113946481Y-109076397D01*
X113826508Y-109100261D01*
X113826498Y-109100264D01*
X113680827Y-109160602D01*
X113680814Y-109160609D01*
X113549711Y-109248210D01*
X113549707Y-109248213D01*
X113438213Y-109359707D01*
X113438210Y-109359711D01*
X113350609Y-109490814D01*
X113350602Y-109490827D01*
X113290264Y-109636498D01*
X113290261Y-109636510D01*
X113259500Y-109791153D01*
X113259500Y-109948846D01*
X113290261Y-110103489D01*
X113290264Y-110103501D01*
X113350602Y-110249172D01*
X113350609Y-110249185D01*
X113438210Y-110380288D01*
X113438213Y-110380292D01*
X113549707Y-110491786D01*
X113549711Y-110491789D01*
X113680814Y-110579390D01*
X113680827Y-110579397D01*
X113826498Y-110639735D01*
X113826503Y-110639737D01*
X113979931Y-110670256D01*
X113981153Y-110670499D01*
X113981156Y-110670500D01*
X113981158Y-110670500D01*
X114138844Y-110670500D01*
X114138845Y-110670499D01*
X114293497Y-110639737D01*
X114439179Y-110579394D01*
X114570289Y-110491789D01*
X114681789Y-110380289D01*
X114697987Y-110356047D01*
X114704962Y-110345609D01*
X114758574Y-110300804D01*
X114808064Y-110290500D01*
X120889573Y-110290500D01*
X120956612Y-110310185D01*
X120997175Y-110354144D01*
X120997221Y-110354114D01*
X120997414Y-110354403D01*
X120998931Y-110356047D01*
X121000604Y-110359177D01*
X121088210Y-110490288D01*
X121088213Y-110490292D01*
X121199707Y-110601786D01*
X121199711Y-110601789D01*
X121330814Y-110689390D01*
X121330827Y-110689397D01*
X121430060Y-110730500D01*
X121476503Y-110749737D01*
X121560183Y-110766382D01*
X121631153Y-110780499D01*
X121631156Y-110780500D01*
X121631158Y-110780500D01*
X121788844Y-110780500D01*
X121788845Y-110780499D01*
X121865152Y-110765320D01*
X121943488Y-110749739D01*
X121943489Y-110749738D01*
X121943497Y-110749737D01*
X121967155Y-110739937D01*
X122014604Y-110730500D01*
X122953417Y-110730500D01*
X123050676Y-110711153D01*
X123079090Y-110705501D01*
X123197473Y-110656465D01*
X123197478Y-110656461D01*
X123201541Y-110654290D01*
X123204475Y-110653678D01*
X123206709Y-110651681D01*
X123238456Y-110646602D01*
X123269943Y-110640045D01*
X123273637Y-110640974D01*
X123275701Y-110640644D01*
X123288268Y-110644654D01*
X123309719Y-110650050D01*
X123319014Y-110654118D01*
X123322528Y-110656466D01*
X123355821Y-110670256D01*
X123440910Y-110705501D01*
X123440914Y-110705501D01*
X123440915Y-110705502D01*
X123566582Y-110730500D01*
X123566585Y-110730500D01*
X126144071Y-110730500D01*
X126241330Y-110711153D01*
X126269744Y-110705501D01*
X126388127Y-110656465D01*
X126494669Y-110585277D01*
X128752931Y-108327013D01*
X128814252Y-108293530D01*
X128816317Y-108293099D01*
X128883497Y-108279737D01*
X129029179Y-108219394D01*
X129160289Y-108131789D01*
X129271789Y-108020289D01*
X129359394Y-107889179D01*
X129419737Y-107743497D01*
X129450500Y-107588842D01*
X129450500Y-107431158D01*
X129450500Y-107431155D01*
X129450499Y-107431153D01*
X129444208Y-107399528D01*
X129419737Y-107276503D01*
X129400955Y-107231158D01*
X129359397Y-107130827D01*
X129359390Y-107130814D01*
X129271789Y-106999711D01*
X129271786Y-106999707D01*
X129160292Y-106888213D01*
X129160288Y-106888210D01*
X129029185Y-106800609D01*
X129029172Y-106800602D01*
X128904738Y-106749061D01*
X128850334Y-106705221D01*
X128828269Y-106638926D01*
X128845548Y-106571227D01*
X128896685Y-106523616D01*
X128952190Y-106510500D01*
X129795065Y-106510500D01*
X129862104Y-106530185D01*
X129863909Y-106531366D01*
X129920821Y-106569394D01*
X129920823Y-106569395D01*
X129920827Y-106569397D01*
X130066440Y-106629711D01*
X130066503Y-106629737D01*
X130221153Y-106660499D01*
X130221156Y-106660500D01*
X130221158Y-106660500D01*
X130378844Y-106660500D01*
X130378845Y-106660499D01*
X130533497Y-106629737D01*
X130679179Y-106569394D01*
X130810289Y-106481789D01*
X130921789Y-106370289D01*
X131009394Y-106239179D01*
X131069737Y-106093497D01*
X131100500Y-105938842D01*
X131100500Y-105781158D01*
X131100500Y-105781155D01*
X131100499Y-105781153D01*
X131071128Y-105633497D01*
X131069737Y-105626503D01*
X131050581Y-105580255D01*
X131009397Y-105480827D01*
X131009390Y-105480814D01*
X130921789Y-105349711D01*
X130921786Y-105349707D01*
X130810292Y-105238213D01*
X130810284Y-105238207D01*
X130770268Y-105211469D01*
X130725462Y-105157857D01*
X130716755Y-105088532D01*
X130746909Y-105025505D01*
X130766274Y-105008048D01*
X130859788Y-104940107D01*
X130859788Y-104940106D01*
X130859792Y-104940104D01*
X131010104Y-104789792D01*
X131010106Y-104789788D01*
X131010109Y-104789786D01*
X131135048Y-104617820D01*
X131135047Y-104617820D01*
X131135051Y-104617816D01*
X131139514Y-104609054D01*
X131187488Y-104558259D01*
X131255308Y-104541463D01*
X131321444Y-104563999D01*
X131360486Y-104609056D01*
X131364951Y-104617820D01*
X131489890Y-104789786D01*
X131489896Y-104789792D01*
X131640208Y-104940104D01*
X131718384Y-104996902D01*
X131761051Y-105052231D01*
X131769500Y-105097220D01*
X131769500Y-108238769D01*
X131749815Y-108305808D01*
X131733181Y-108326450D01*
X129945703Y-110113927D01*
X129905480Y-110140805D01*
X129881819Y-110150606D01*
X129881818Y-110150607D01*
X129750715Y-110238207D01*
X129750707Y-110238213D01*
X129639213Y-110349707D01*
X129639210Y-110349711D01*
X129551609Y-110480814D01*
X129551602Y-110480827D01*
X129491264Y-110626498D01*
X129491261Y-110626510D01*
X129460500Y-110781153D01*
X129460500Y-110938846D01*
X129491261Y-111093489D01*
X129491263Y-111093497D01*
X129494464Y-111101225D01*
X129501933Y-111170692D01*
X129470659Y-111233172D01*
X129410570Y-111268825D01*
X129379857Y-111272677D01*
X94604454Y-111259732D01*
X94537422Y-111240022D01*
X94491686Y-111187201D01*
X94480500Y-111135732D01*
X94480500Y-54713758D01*
X114949500Y-54713758D01*
X114949500Y-54943241D01*
X114966297Y-55070821D01*
X114979452Y-55170738D01*
X115010929Y-55288213D01*
X115038842Y-55392387D01*
X115126650Y-55604376D01*
X115126657Y-55604390D01*
X115241392Y-55803117D01*
X115381081Y-55985161D01*
X115381089Y-55985170D01*
X115543330Y-56147411D01*
X115543338Y-56147418D01*
X115725382Y-56287107D01*
X115725385Y-56287108D01*
X115725388Y-56287111D01*
X115924112Y-56401844D01*
X115924117Y-56401846D01*
X115924123Y-56401849D01*
X116014229Y-56439172D01*
X116136113Y-56489658D01*
X116357762Y-56549048D01*
X116585266Y-56579000D01*
X116585273Y-56579000D01*
X116814727Y-56579000D01*
X116814734Y-56579000D01*
X117042238Y-56549048D01*
X117263887Y-56489658D01*
X117475888Y-56401844D01*
X117674612Y-56287111D01*
X117856661Y-56147419D01*
X117856665Y-56147414D01*
X117856670Y-56147411D01*
X118018911Y-55985170D01*
X118018914Y-55985165D01*
X118018919Y-55985161D01*
X118158611Y-55803112D01*
X118273344Y-55604388D01*
X118361158Y-55392387D01*
X118420548Y-55170738D01*
X118450500Y-54943234D01*
X118450500Y-54713766D01*
X118450499Y-54713758D01*
X128249500Y-54713758D01*
X128249500Y-54943241D01*
X128266297Y-55070821D01*
X128279452Y-55170738D01*
X128310929Y-55288213D01*
X128338842Y-55392387D01*
X128426650Y-55604376D01*
X128426657Y-55604390D01*
X128541392Y-55803117D01*
X128681081Y-55985161D01*
X128681089Y-55985170D01*
X128843330Y-56147411D01*
X128843338Y-56147418D01*
X129025382Y-56287107D01*
X129025385Y-56287108D01*
X129025388Y-56287111D01*
X129224112Y-56401844D01*
X129224117Y-56401846D01*
X129224123Y-56401849D01*
X129314229Y-56439172D01*
X129436113Y-56489658D01*
X129657762Y-56549048D01*
X129885266Y-56579000D01*
X129885273Y-56579000D01*
X130114727Y-56579000D01*
X130114734Y-56579000D01*
X130342238Y-56549048D01*
X130563887Y-56489658D01*
X130775888Y-56401844D01*
X130974612Y-56287111D01*
X131156661Y-56147419D01*
X131156665Y-56147414D01*
X131156670Y-56147411D01*
X131318911Y-55985170D01*
X131318914Y-55985165D01*
X131318919Y-55985161D01*
X131458611Y-55803112D01*
X131573344Y-55604388D01*
X131661158Y-55392387D01*
X131720548Y-55170738D01*
X131750500Y-54943234D01*
X131750500Y-54713766D01*
X131720548Y-54486262D01*
X131661158Y-54264613D01*
X131573344Y-54052612D01*
X131458611Y-53853888D01*
X131458608Y-53853885D01*
X131458607Y-53853882D01*
X131352751Y-53715930D01*
X131318919Y-53671839D01*
X131318918Y-53671838D01*
X131318916Y-53671835D01*
X131293611Y-53646530D01*
X136509500Y-53646530D01*
X136509500Y-54453469D01*
X136549868Y-54656412D01*
X136549870Y-54656420D01*
X136629058Y-54847596D01*
X136744024Y-55019657D01*
X136890342Y-55165975D01*
X136890345Y-55165977D01*
X137062402Y-55280941D01*
X137253580Y-55360130D01*
X137415748Y-55392387D01*
X137456530Y-55400499D01*
X137456534Y-55400500D01*
X137456535Y-55400500D01*
X137663466Y-55400500D01*
X137663467Y-55400499D01*
X137866420Y-55360130D01*
X138057598Y-55280941D01*
X138229655Y-55165977D01*
X138375977Y-55019655D01*
X138490941Y-54847598D01*
X138570130Y-54656420D01*
X138610500Y-54453465D01*
X138610500Y-53646535D01*
X138610499Y-53646530D01*
X145149500Y-53646530D01*
X145149500Y-54453469D01*
X145189868Y-54656412D01*
X145189870Y-54656420D01*
X145269058Y-54847596D01*
X145384024Y-55019657D01*
X145530342Y-55165975D01*
X145530345Y-55165977D01*
X145702402Y-55280941D01*
X145893580Y-55360130D01*
X146055748Y-55392387D01*
X146096530Y-55400499D01*
X146096534Y-55400500D01*
X146096535Y-55400500D01*
X146303466Y-55400500D01*
X146303467Y-55400499D01*
X146506420Y-55360130D01*
X146697598Y-55280941D01*
X146869655Y-55165977D01*
X147015977Y-55019655D01*
X147130941Y-54847598D01*
X147210130Y-54656420D01*
X147250500Y-54453465D01*
X147250500Y-53646535D01*
X147210130Y-53443580D01*
X147130941Y-53252402D01*
X147015977Y-53080345D01*
X147015975Y-53080342D01*
X146869657Y-52934024D01*
X146783626Y-52876541D01*
X146697598Y-52819059D01*
X146506420Y-52739870D01*
X146506412Y-52739868D01*
X146303469Y-52699500D01*
X146303465Y-52699500D01*
X146096535Y-52699500D01*
X146096530Y-52699500D01*
X145893587Y-52739868D01*
X145893579Y-52739870D01*
X145702403Y-52819058D01*
X145530342Y-52934024D01*
X145384024Y-53080342D01*
X145269058Y-53252403D01*
X145189870Y-53443579D01*
X145189868Y-53443587D01*
X145149500Y-53646530D01*
X138610499Y-53646530D01*
X138570130Y-53443580D01*
X138490941Y-53252402D01*
X138375977Y-53080345D01*
X138375975Y-53080342D01*
X138229657Y-52934024D01*
X138143626Y-52876541D01*
X138057598Y-52819059D01*
X137866420Y-52739870D01*
X137866412Y-52739868D01*
X137663469Y-52699500D01*
X137663465Y-52699500D01*
X137456535Y-52699500D01*
X137456530Y-52699500D01*
X137253587Y-52739868D01*
X137253579Y-52739870D01*
X137062403Y-52819058D01*
X136890342Y-52934024D01*
X136744024Y-53080342D01*
X136629058Y-53252403D01*
X136549870Y-53443579D01*
X136549868Y-53443587D01*
X136509500Y-53646530D01*
X131293611Y-53646530D01*
X131156670Y-53509589D01*
X131156661Y-53509581D01*
X130974617Y-53369892D01*
X130775890Y-53255157D01*
X130775876Y-53255150D01*
X130563887Y-53167342D01*
X130342238Y-53107952D01*
X130304215Y-53102946D01*
X130114741Y-53078000D01*
X130114734Y-53078000D01*
X129885266Y-53078000D01*
X129885258Y-53078000D01*
X129668715Y-53106509D01*
X129657762Y-53107952D01*
X129564076Y-53133054D01*
X129436112Y-53167342D01*
X129224123Y-53255150D01*
X129224109Y-53255157D01*
X129025382Y-53369892D01*
X128843338Y-53509581D01*
X128681081Y-53671838D01*
X128541392Y-53853882D01*
X128426657Y-54052609D01*
X128426650Y-54052623D01*
X128338842Y-54264612D01*
X128279453Y-54486259D01*
X128279451Y-54486270D01*
X128249500Y-54713758D01*
X118450499Y-54713758D01*
X118420548Y-54486262D01*
X118361158Y-54264613D01*
X118273344Y-54052612D01*
X118158611Y-53853888D01*
X118158608Y-53853885D01*
X118158607Y-53853882D01*
X118018918Y-53671838D01*
X118018911Y-53671830D01*
X117856670Y-53509589D01*
X117856661Y-53509581D01*
X117674617Y-53369892D01*
X117475890Y-53255157D01*
X117475876Y-53255150D01*
X117263887Y-53167342D01*
X117042238Y-53107952D01*
X117004215Y-53102946D01*
X116814741Y-53078000D01*
X116814734Y-53078000D01*
X116585266Y-53078000D01*
X116585258Y-53078000D01*
X116368715Y-53106509D01*
X116357762Y-53107952D01*
X116264076Y-53133054D01*
X116136112Y-53167342D01*
X115924123Y-53255150D01*
X115924109Y-53255157D01*
X115725382Y-53369892D01*
X115543338Y-53509581D01*
X115381081Y-53671838D01*
X115241392Y-53853882D01*
X115126657Y-54052609D01*
X115126650Y-54052623D01*
X115038842Y-54264612D01*
X114979453Y-54486259D01*
X114979451Y-54486270D01*
X114949500Y-54713758D01*
X94480500Y-54713758D01*
X94480500Y-51424731D01*
X94500185Y-51357692D01*
X94552989Y-51311937D01*
X94604545Y-51300731D01*
X173945548Y-51330266D01*
G37*
%TD.AperFunction*%
%TA.AperFunction,Conductor*%
G36*
X134122702Y-96980185D02*
G01*
X134143344Y-96996819D01*
X135254344Y-98107819D01*
X135287829Y-98169142D01*
X135282845Y-98238834D01*
X135240973Y-98294767D01*
X135175509Y-98319184D01*
X135166663Y-98319500D01*
X135121155Y-98319500D01*
X134966510Y-98350261D01*
X134966498Y-98350264D01*
X134820827Y-98410602D01*
X134820814Y-98410609D01*
X134689711Y-98498210D01*
X134689707Y-98498213D01*
X134578213Y-98609707D01*
X134578210Y-98609711D01*
X134490609Y-98740814D01*
X134490602Y-98740827D01*
X134430264Y-98886498D01*
X134430261Y-98886510D01*
X134399500Y-99041153D01*
X134399500Y-99198846D01*
X134430261Y-99353489D01*
X134430264Y-99353501D01*
X134490602Y-99499172D01*
X134490609Y-99499185D01*
X134578210Y-99630288D01*
X134578213Y-99630292D01*
X134689707Y-99741786D01*
X134689711Y-99741789D01*
X134812857Y-99824073D01*
X134857662Y-99877685D01*
X134866369Y-99947010D01*
X134836215Y-100010038D01*
X134776772Y-100046757D01*
X134763366Y-100049648D01*
X134743758Y-100052753D01*
X134541585Y-100118444D01*
X134352179Y-100214951D01*
X134180213Y-100339890D01*
X134029890Y-100490213D01*
X133904949Y-100662182D01*
X133900202Y-100671499D01*
X133852227Y-100722293D01*
X133784405Y-100739087D01*
X133718271Y-100716548D01*
X133679234Y-100671495D01*
X133674622Y-100662444D01*
X133549727Y-100490540D01*
X133549723Y-100490535D01*
X133399464Y-100340276D01*
X133399459Y-100340272D01*
X133227557Y-100215379D01*
X133038215Y-100118903D01*
X132836124Y-100053241D01*
X132770000Y-100042768D01*
X132770000Y-100936988D01*
X132712993Y-100904075D01*
X132585826Y-100870000D01*
X132454174Y-100870000D01*
X132327007Y-100904075D01*
X132270000Y-100936988D01*
X132270000Y-100042768D01*
X132269999Y-100042768D01*
X132203874Y-100053241D01*
X132102817Y-100086076D01*
X132032975Y-100088071D01*
X131973143Y-100051990D01*
X131942316Y-99989288D01*
X131940500Y-99968145D01*
X131940500Y-99612229D01*
X131960185Y-99545190D01*
X131976819Y-99524548D01*
X133447948Y-98053419D01*
X133447951Y-98053416D01*
X133530084Y-97930495D01*
X133586658Y-97793913D01*
X133599332Y-97730193D01*
X133606387Y-97706939D01*
X133609514Y-97699390D01*
X133634737Y-97638497D01*
X133665500Y-97483842D01*
X133665500Y-97326158D01*
X133665500Y-97326155D01*
X133665499Y-97326153D01*
X133652505Y-97260827D01*
X133634737Y-97171503D01*
X133634735Y-97171498D01*
X133618355Y-97131952D01*
X133610886Y-97062483D01*
X133642162Y-97000004D01*
X133702251Y-96964352D01*
X133732916Y-96960500D01*
X134055663Y-96960500D01*
X134122702Y-96980185D01*
G37*
%TD.AperFunction*%
%TA.AperFunction,Conductor*%
G36*
X122479398Y-96995192D02*
G01*
X122523747Y-97023693D01*
X123087873Y-97587819D01*
X123121358Y-97649142D01*
X123116374Y-97718834D01*
X123074502Y-97774767D01*
X123009038Y-97799184D01*
X123000192Y-97799500D01*
X119254935Y-97799500D01*
X119187896Y-97779815D01*
X119186090Y-97778633D01*
X119129179Y-97740606D01*
X119129172Y-97740602D01*
X118983501Y-97680264D01*
X118983489Y-97680261D01*
X118828845Y-97649500D01*
X118828842Y-97649500D01*
X118671158Y-97649500D01*
X118671155Y-97649500D01*
X118516510Y-97680261D01*
X118516498Y-97680264D01*
X118370827Y-97740602D01*
X118370814Y-97740609D01*
X118239711Y-97828210D01*
X118239707Y-97828213D01*
X118128213Y-97939707D01*
X118128210Y-97939711D01*
X118040609Y-98070814D01*
X118040602Y-98070827D01*
X117980264Y-98216498D01*
X117980261Y-98216510D01*
X117949500Y-98371153D01*
X117949500Y-98528846D01*
X117980261Y-98683489D01*
X117980264Y-98683501D01*
X118040602Y-98829172D01*
X118040609Y-98829185D01*
X118128210Y-98960288D01*
X118128213Y-98960292D01*
X118239707Y-99071786D01*
X118239711Y-99071789D01*
X118370814Y-99159390D01*
X118370827Y-99159397D01*
X118507312Y-99215930D01*
X118516503Y-99219737D01*
X118671153Y-99250499D01*
X118671156Y-99250500D01*
X118671158Y-99250500D01*
X118828844Y-99250500D01*
X118828845Y-99250499D01*
X118983497Y-99219737D01*
X119129179Y-99159394D01*
X119186044Y-99121397D01*
X119252721Y-99100520D01*
X119254935Y-99100500D01*
X123357663Y-99100500D01*
X123424702Y-99120185D01*
X123445344Y-99136819D01*
X124290967Y-99982442D01*
X124324452Y-100043765D01*
X124319468Y-100113457D01*
X124277596Y-100169390D01*
X124259582Y-100180607D01*
X124192182Y-100214949D01*
X124020213Y-100339890D01*
X123869890Y-100490213D01*
X123744949Y-100662182D01*
X123740484Y-100670946D01*
X123692509Y-100721742D01*
X123624688Y-100738536D01*
X123558553Y-100715998D01*
X123519516Y-100670946D01*
X123515050Y-100662182D01*
X123390109Y-100490213D01*
X123239786Y-100339890D01*
X123067820Y-100214951D01*
X122878414Y-100118444D01*
X122878413Y-100118443D01*
X122878412Y-100118443D01*
X122676243Y-100052754D01*
X122676241Y-100052753D01*
X122676240Y-100052753D01*
X122514957Y-100027208D01*
X122466287Y-100019500D01*
X122253713Y-100019500D01*
X122205042Y-100027208D01*
X122043760Y-100052753D01*
X121957025Y-100080935D01*
X121846242Y-100116931D01*
X121841585Y-100118444D01*
X121652179Y-100214951D01*
X121480213Y-100339890D01*
X121329890Y-100490213D01*
X121204949Y-100662182D01*
X121200484Y-100670946D01*
X121152509Y-100721742D01*
X121084688Y-100738536D01*
X121018553Y-100715998D01*
X120979516Y-100670946D01*
X120975050Y-100662182D01*
X120850109Y-100490213D01*
X120699786Y-100339890D01*
X120527820Y-100214951D01*
X120338414Y-100118444D01*
X120338413Y-100118443D01*
X120338412Y-100118443D01*
X120136243Y-100052754D01*
X120136241Y-100052753D01*
X120136240Y-100052753D01*
X119974957Y-100027208D01*
X119926287Y-100019500D01*
X119713713Y-100019500D01*
X119603888Y-100036894D01*
X119498945Y-100053516D01*
X119498686Y-100051882D01*
X119436094Y-100048730D01*
X119389288Y-100019342D01*
X119033674Y-99663727D01*
X119033673Y-99663726D01*
X119013879Y-99650500D01*
X118927127Y-99592535D01*
X118837714Y-99555499D01*
X118808744Y-99543499D01*
X118808738Y-99543497D01*
X118683071Y-99518500D01*
X118683069Y-99518500D01*
X111440808Y-99518500D01*
X111373769Y-99498815D01*
X111328014Y-99446011D01*
X111318070Y-99376853D01*
X111347095Y-99313297D01*
X111353127Y-99306819D01*
X113533127Y-97126819D01*
X113594450Y-97093334D01*
X113620808Y-97090500D01*
X121295065Y-97090500D01*
X121362104Y-97110185D01*
X121363909Y-97111366D01*
X121420821Y-97149394D01*
X121420823Y-97149395D01*
X121420827Y-97149397D01*
X121544992Y-97200827D01*
X121566503Y-97209737D01*
X121721153Y-97240499D01*
X121721156Y-97240500D01*
X121721158Y-97240500D01*
X121878844Y-97240500D01*
X121878845Y-97240499D01*
X122033497Y-97209737D01*
X122179179Y-97149394D01*
X122310289Y-97061789D01*
X122348384Y-97023694D01*
X122409706Y-96990208D01*
X122479398Y-96995192D01*
G37*
%TD.AperFunction*%
%TD*%
M02*
