%TF.GenerationSoftware,KiCad,Pcbnew,9.0.0*%
%TF.CreationDate,2025-03-28T14:38:41+02:00*%
%TF.ProjectId,Main,4d61696e-2e6b-4696-9361-645f70636258,rev?*%
%TF.SameCoordinates,Original*%
%TF.FileFunction,Soldermask,Top*%
%TF.FilePolarity,Negative*%
%FSLAX46Y46*%
G04 Gerber Fmt 4.6, Leading zero omitted, Abs format (unit mm)*
G04 Created by KiCad (PCBNEW 9.0.0) date 2025-03-28 14:38:41*
%MOMM*%
%LPD*%
G01*
G04 APERTURE LIST*
G04 Aperture macros list*
%AMRoundRect*
0 Rectangle with rounded corners*
0 $1 Rounding radius*
0 $2 $3 $4 $5 $6 $7 $8 $9 X,Y pos of 4 corners*
0 Add a 4 corners polygon primitive as box body*
4,1,4,$2,$3,$4,$5,$6,$7,$8,$9,$2,$3,0*
0 Add four circle primitives for the rounded corners*
1,1,$1+$1,$2,$3*
1,1,$1+$1,$4,$5*
1,1,$1+$1,$6,$7*
1,1,$1+$1,$8,$9*
0 Add four rect primitives between the rounded corners*
20,1,$1+$1,$2,$3,$4,$5,0*
20,1,$1+$1,$4,$5,$6,$7,0*
20,1,$1+$1,$6,$7,$8,$9,0*
20,1,$1+$1,$8,$9,$2,$3,0*%
G04 Aperture macros list end*
%ADD10C,0.010000*%
%ADD11RoundRect,0.100000X-0.637500X-0.100000X0.637500X-0.100000X0.637500X0.100000X-0.637500X0.100000X0*%
%ADD12C,1.000000*%
%ADD13RoundRect,0.250000X0.650000X-0.412500X0.650000X0.412500X-0.650000X0.412500X-0.650000X-0.412500X0*%
%ADD14RoundRect,0.250000X-0.400000X-0.625000X0.400000X-0.625000X0.400000X0.625000X-0.400000X0.625000X0*%
%ADD15RoundRect,0.160000X0.197500X0.160000X-0.197500X0.160000X-0.197500X-0.160000X0.197500X-0.160000X0*%
%ADD16RoundRect,0.250000X0.400000X0.625000X-0.400000X0.625000X-0.400000X-0.625000X0.400000X-0.625000X0*%
%ADD17RoundRect,0.162500X0.837500X0.162500X-0.837500X0.162500X-0.837500X-0.162500X0.837500X-0.162500X0*%
%ADD18RoundRect,0.250000X-0.350000X-0.625000X0.350000X-0.625000X0.350000X0.625000X-0.350000X0.625000X0*%
%ADD19O,1.200000X1.750000*%
%ADD20RoundRect,0.155000X-0.155000X0.212500X-0.155000X-0.212500X0.155000X-0.212500X0.155000X0.212500X0*%
%ADD21RoundRect,0.160000X0.160000X-0.197500X0.160000X0.197500X-0.160000X0.197500X-0.160000X-0.197500X0*%
%ADD22RoundRect,0.075000X-0.247500X-0.075000X0.247500X-0.075000X0.247500X0.075000X-0.247500X0.075000X0*%
%ADD23R,1.010000X1.700000*%
%ADD24RoundRect,0.160000X-0.197500X-0.160000X0.197500X-0.160000X0.197500X0.160000X-0.197500X0.160000X0*%
%ADD25RoundRect,0.100000X-0.680000X-0.100000X0.680000X-0.100000X0.680000X0.100000X-0.680000X0.100000X0*%
%ADD26RoundRect,0.375000X-0.625000X-0.375000X0.625000X-0.375000X0.625000X0.375000X-0.625000X0.375000X0*%
%ADD27RoundRect,0.500000X-0.500000X-1.400000X0.500000X-1.400000X0.500000X1.400000X-0.500000X1.400000X0*%
%ADD28RoundRect,0.250000X0.337500X0.475000X-0.337500X0.475000X-0.337500X-0.475000X0.337500X-0.475000X0*%
%ADD29RoundRect,0.155000X-0.212500X-0.155000X0.212500X-0.155000X0.212500X0.155000X-0.212500X0.155000X0*%
%ADD30RoundRect,0.155000X0.155000X-0.212500X0.155000X0.212500X-0.155000X0.212500X-0.155000X-0.212500X0*%
%ADD31RoundRect,0.237500X-0.300000X-0.237500X0.300000X-0.237500X0.300000X0.237500X-0.300000X0.237500X0*%
%ADD32RoundRect,0.250000X-0.350000X-1.775000X0.350000X-1.775000X0.350000X1.775000X-0.350000X1.775000X0*%
%ADD33RoundRect,0.102000X0.400000X0.400000X-0.400000X0.400000X-0.400000X-0.400000X0.400000X-0.400000X0*%
%ADD34R,1.700000X1.700000*%
%ADD35O,1.700000X1.700000*%
%ADD36RoundRect,0.250000X-0.412500X-0.650000X0.412500X-0.650000X0.412500X0.650000X-0.412500X0.650000X0*%
%ADD37RoundRect,0.155000X0.212500X0.155000X-0.212500X0.155000X-0.212500X-0.155000X0.212500X-0.155000X0*%
%ADD38RoundRect,0.237500X-0.250000X-0.237500X0.250000X-0.237500X0.250000X0.237500X-0.250000X0.237500X0*%
%ADD39RoundRect,0.160000X-0.160000X0.197500X-0.160000X-0.197500X0.160000X-0.197500X0.160000X0.197500X0*%
%ADD40RoundRect,0.102000X-0.400000X-0.400000X0.400000X-0.400000X0.400000X0.400000X-0.400000X0.400000X0*%
%ADD41RoundRect,0.140000X-0.170000X0.140000X-0.170000X-0.140000X0.170000X-0.140000X0.170000X0.140000X0*%
%ADD42RoundRect,0.175000X0.175000X0.425000X-0.175000X0.425000X-0.175000X-0.425000X0.175000X-0.425000X0*%
%ADD43RoundRect,0.190000X-0.190000X-0.410000X0.190000X-0.410000X0.190000X0.410000X-0.190000X0.410000X0*%
%ADD44RoundRect,0.200000X-0.200000X-0.400000X0.200000X-0.400000X0.200000X0.400000X-0.200000X0.400000X0*%
%ADD45RoundRect,0.175000X-0.175000X-0.425000X0.175000X-0.425000X0.175000X0.425000X-0.175000X0.425000X0*%
%ADD46RoundRect,0.190000X0.190000X0.410000X-0.190000X0.410000X-0.190000X-0.410000X0.190000X-0.410000X0*%
%ADD47RoundRect,0.200000X0.200000X0.400000X-0.200000X0.400000X-0.200000X-0.400000X0.200000X-0.400000X0*%
%ADD48O,1.100000X1.700000*%
%ADD49RoundRect,0.062500X0.375000X0.062500X-0.375000X0.062500X-0.375000X-0.062500X0.375000X-0.062500X0*%
%ADD50RoundRect,0.062500X0.062500X0.375000X-0.062500X0.375000X-0.062500X-0.375000X0.062500X-0.375000X0*%
%ADD51R,1.600000X1.600000*%
%ADD52RoundRect,0.200000X0.750000X0.200000X-0.750000X0.200000X-0.750000X-0.200000X0.750000X-0.200000X0*%
%ADD53C,2.500000*%
%ADD54RoundRect,0.237500X-0.287500X-0.237500X0.287500X-0.237500X0.287500X0.237500X-0.287500X0.237500X0*%
G04 APERTURE END LIST*
D10*
%TO.C,U7*%
X110153000Y-86006000D02*
X110159000Y-86006000D01*
X110165000Y-86008000D01*
X110171000Y-86009000D01*
X110177000Y-86011000D01*
X110183000Y-86013000D01*
X110189000Y-86015000D01*
X110194000Y-86018000D01*
X110200000Y-86021000D01*
X110205000Y-86024000D01*
X110211000Y-86028000D01*
X110216000Y-86032000D01*
X110220000Y-86036000D01*
X110225000Y-86040000D01*
X110229000Y-86045000D01*
X110233000Y-86049000D01*
X110237000Y-86054000D01*
X110241000Y-86060000D01*
X110244000Y-86065000D01*
X110247000Y-86071000D01*
X110250000Y-86076000D01*
X110252000Y-86082000D01*
X110254000Y-86088000D01*
X110256000Y-86094000D01*
X110257000Y-86100000D01*
X110259000Y-86106000D01*
X110259000Y-86112000D01*
X110260000Y-86119000D01*
X110260000Y-86125000D01*
X110260000Y-86275000D01*
X110260000Y-86281000D01*
X110259000Y-86288000D01*
X110259000Y-86294000D01*
X110257000Y-86300000D01*
X110256000Y-86306000D01*
X110254000Y-86312000D01*
X110252000Y-86318000D01*
X110250000Y-86324000D01*
X110247000Y-86329000D01*
X110244000Y-86335000D01*
X110241000Y-86340000D01*
X110237000Y-86346000D01*
X110233000Y-86351000D01*
X110229000Y-86355000D01*
X110225000Y-86360000D01*
X110220000Y-86364000D01*
X110216000Y-86368000D01*
X110211000Y-86372000D01*
X110205000Y-86376000D01*
X110200000Y-86379000D01*
X110194000Y-86382000D01*
X110189000Y-86385000D01*
X110183000Y-86387000D01*
X110177000Y-86389000D01*
X110171000Y-86391000D01*
X110165000Y-86392000D01*
X110159000Y-86394000D01*
X110153000Y-86394000D01*
X110146000Y-86395000D01*
X110140000Y-86395000D01*
X109640000Y-86395000D01*
X109634000Y-86395000D01*
X109627000Y-86394000D01*
X109621000Y-86394000D01*
X109615000Y-86392000D01*
X109609000Y-86391000D01*
X109603000Y-86389000D01*
X109597000Y-86387000D01*
X109591000Y-86385000D01*
X109586000Y-86382000D01*
X109580000Y-86379000D01*
X109575000Y-86376000D01*
X109569000Y-86372000D01*
X109564000Y-86368000D01*
X109560000Y-86364000D01*
X109555000Y-86360000D01*
X109551000Y-86355000D01*
X109547000Y-86351000D01*
X109543000Y-86346000D01*
X109539000Y-86340000D01*
X109536000Y-86335000D01*
X109533000Y-86329000D01*
X109530000Y-86324000D01*
X109528000Y-86318000D01*
X109526000Y-86312000D01*
X109524000Y-86306000D01*
X109523000Y-86300000D01*
X109521000Y-86294000D01*
X109521000Y-86288000D01*
X109520000Y-86281000D01*
X109520000Y-86275000D01*
X109520000Y-86125000D01*
X109520000Y-86119000D01*
X109521000Y-86112000D01*
X109521000Y-86106000D01*
X109523000Y-86100000D01*
X109524000Y-86094000D01*
X109526000Y-86088000D01*
X109528000Y-86082000D01*
X109530000Y-86076000D01*
X109533000Y-86071000D01*
X109536000Y-86065000D01*
X109539000Y-86060000D01*
X109543000Y-86054000D01*
X109547000Y-86049000D01*
X109551000Y-86045000D01*
X109555000Y-86040000D01*
X109560000Y-86036000D01*
X109564000Y-86032000D01*
X109569000Y-86028000D01*
X109575000Y-86024000D01*
X109580000Y-86021000D01*
X109586000Y-86018000D01*
X109591000Y-86015000D01*
X109597000Y-86013000D01*
X109603000Y-86011000D01*
X109609000Y-86009000D01*
X109615000Y-86008000D01*
X109621000Y-86006000D01*
X109627000Y-86006000D01*
X109634000Y-86005000D01*
X109640000Y-86005000D01*
X110140000Y-86005000D01*
X110146000Y-86005000D01*
X110153000Y-86006000D01*
G36*
X110153000Y-86006000D02*
G01*
X110159000Y-86006000D01*
X110165000Y-86008000D01*
X110171000Y-86009000D01*
X110177000Y-86011000D01*
X110183000Y-86013000D01*
X110189000Y-86015000D01*
X110194000Y-86018000D01*
X110200000Y-86021000D01*
X110205000Y-86024000D01*
X110211000Y-86028000D01*
X110216000Y-86032000D01*
X110220000Y-86036000D01*
X110225000Y-86040000D01*
X110229000Y-86045000D01*
X110233000Y-86049000D01*
X110237000Y-86054000D01*
X110241000Y-86060000D01*
X110244000Y-86065000D01*
X110247000Y-86071000D01*
X110250000Y-86076000D01*
X110252000Y-86082000D01*
X110254000Y-86088000D01*
X110256000Y-86094000D01*
X110257000Y-86100000D01*
X110259000Y-86106000D01*
X110259000Y-86112000D01*
X110260000Y-86119000D01*
X110260000Y-86125000D01*
X110260000Y-86275000D01*
X110260000Y-86281000D01*
X110259000Y-86288000D01*
X110259000Y-86294000D01*
X110257000Y-86300000D01*
X110256000Y-86306000D01*
X110254000Y-86312000D01*
X110252000Y-86318000D01*
X110250000Y-86324000D01*
X110247000Y-86329000D01*
X110244000Y-86335000D01*
X110241000Y-86340000D01*
X110237000Y-86346000D01*
X110233000Y-86351000D01*
X110229000Y-86355000D01*
X110225000Y-86360000D01*
X110220000Y-86364000D01*
X110216000Y-86368000D01*
X110211000Y-86372000D01*
X110205000Y-86376000D01*
X110200000Y-86379000D01*
X110194000Y-86382000D01*
X110189000Y-86385000D01*
X110183000Y-86387000D01*
X110177000Y-86389000D01*
X110171000Y-86391000D01*
X110165000Y-86392000D01*
X110159000Y-86394000D01*
X110153000Y-86394000D01*
X110146000Y-86395000D01*
X110140000Y-86395000D01*
X109640000Y-86395000D01*
X109634000Y-86395000D01*
X109627000Y-86394000D01*
X109621000Y-86394000D01*
X109615000Y-86392000D01*
X109609000Y-86391000D01*
X109603000Y-86389000D01*
X109597000Y-86387000D01*
X109591000Y-86385000D01*
X109586000Y-86382000D01*
X109580000Y-86379000D01*
X109575000Y-86376000D01*
X109569000Y-86372000D01*
X109564000Y-86368000D01*
X109560000Y-86364000D01*
X109555000Y-86360000D01*
X109551000Y-86355000D01*
X109547000Y-86351000D01*
X109543000Y-86346000D01*
X109539000Y-86340000D01*
X109536000Y-86335000D01*
X109533000Y-86329000D01*
X109530000Y-86324000D01*
X109528000Y-86318000D01*
X109526000Y-86312000D01*
X109524000Y-86306000D01*
X109523000Y-86300000D01*
X109521000Y-86294000D01*
X109521000Y-86288000D01*
X109520000Y-86281000D01*
X109520000Y-86275000D01*
X109520000Y-86125000D01*
X109520000Y-86119000D01*
X109521000Y-86112000D01*
X109521000Y-86106000D01*
X109523000Y-86100000D01*
X109524000Y-86094000D01*
X109526000Y-86088000D01*
X109528000Y-86082000D01*
X109530000Y-86076000D01*
X109533000Y-86071000D01*
X109536000Y-86065000D01*
X109539000Y-86060000D01*
X109543000Y-86054000D01*
X109547000Y-86049000D01*
X109551000Y-86045000D01*
X109555000Y-86040000D01*
X109560000Y-86036000D01*
X109564000Y-86032000D01*
X109569000Y-86028000D01*
X109575000Y-86024000D01*
X109580000Y-86021000D01*
X109586000Y-86018000D01*
X109591000Y-86015000D01*
X109597000Y-86013000D01*
X109603000Y-86011000D01*
X109609000Y-86009000D01*
X109615000Y-86008000D01*
X109621000Y-86006000D01*
X109627000Y-86006000D01*
X109634000Y-86005000D01*
X109640000Y-86005000D01*
X110140000Y-86005000D01*
X110146000Y-86005000D01*
X110153000Y-86006000D01*
G37*
X110153000Y-86506000D02*
X110159000Y-86506000D01*
X110165000Y-86508000D01*
X110171000Y-86509000D01*
X110177000Y-86511000D01*
X110183000Y-86513000D01*
X110189000Y-86515000D01*
X110194000Y-86518000D01*
X110200000Y-86521000D01*
X110205000Y-86524000D01*
X110211000Y-86528000D01*
X110216000Y-86532000D01*
X110220000Y-86536000D01*
X110225000Y-86540000D01*
X110229000Y-86545000D01*
X110233000Y-86549000D01*
X110237000Y-86554000D01*
X110241000Y-86560000D01*
X110244000Y-86565000D01*
X110247000Y-86571000D01*
X110250000Y-86576000D01*
X110252000Y-86582000D01*
X110254000Y-86588000D01*
X110256000Y-86594000D01*
X110257000Y-86600000D01*
X110259000Y-86606000D01*
X110259000Y-86612000D01*
X110260000Y-86619000D01*
X110260000Y-86625000D01*
X110260000Y-86775000D01*
X110260000Y-86781000D01*
X110259000Y-86788000D01*
X110259000Y-86794000D01*
X110257000Y-86800000D01*
X110256000Y-86806000D01*
X110254000Y-86812000D01*
X110252000Y-86818000D01*
X110250000Y-86824000D01*
X110247000Y-86829000D01*
X110244000Y-86835000D01*
X110241000Y-86840000D01*
X110237000Y-86846000D01*
X110233000Y-86851000D01*
X110229000Y-86855000D01*
X110225000Y-86860000D01*
X110220000Y-86864000D01*
X110216000Y-86868000D01*
X110211000Y-86872000D01*
X110205000Y-86876000D01*
X110200000Y-86879000D01*
X110194000Y-86882000D01*
X110189000Y-86885000D01*
X110183000Y-86887000D01*
X110177000Y-86889000D01*
X110171000Y-86891000D01*
X110165000Y-86892000D01*
X110159000Y-86894000D01*
X110153000Y-86894000D01*
X110146000Y-86895000D01*
X110140000Y-86895000D01*
X109640000Y-86895000D01*
X109634000Y-86895000D01*
X109627000Y-86894000D01*
X109621000Y-86894000D01*
X109615000Y-86892000D01*
X109609000Y-86891000D01*
X109603000Y-86889000D01*
X109597000Y-86887000D01*
X109591000Y-86885000D01*
X109586000Y-86882000D01*
X109580000Y-86879000D01*
X109575000Y-86876000D01*
X109569000Y-86872000D01*
X109564000Y-86868000D01*
X109560000Y-86864000D01*
X109555000Y-86860000D01*
X109551000Y-86855000D01*
X109547000Y-86851000D01*
X109543000Y-86846000D01*
X109539000Y-86840000D01*
X109536000Y-86835000D01*
X109533000Y-86829000D01*
X109530000Y-86824000D01*
X109528000Y-86818000D01*
X109526000Y-86812000D01*
X109524000Y-86806000D01*
X109523000Y-86800000D01*
X109521000Y-86794000D01*
X109521000Y-86788000D01*
X109520000Y-86781000D01*
X109520000Y-86775000D01*
X109520000Y-86625000D01*
X109520000Y-86619000D01*
X109521000Y-86612000D01*
X109521000Y-86606000D01*
X109523000Y-86600000D01*
X109524000Y-86594000D01*
X109526000Y-86588000D01*
X109528000Y-86582000D01*
X109530000Y-86576000D01*
X109533000Y-86571000D01*
X109536000Y-86565000D01*
X109539000Y-86560000D01*
X109543000Y-86554000D01*
X109547000Y-86549000D01*
X109551000Y-86545000D01*
X109555000Y-86540000D01*
X109560000Y-86536000D01*
X109564000Y-86532000D01*
X109569000Y-86528000D01*
X109575000Y-86524000D01*
X109580000Y-86521000D01*
X109586000Y-86518000D01*
X109591000Y-86515000D01*
X109597000Y-86513000D01*
X109603000Y-86511000D01*
X109609000Y-86509000D01*
X109615000Y-86508000D01*
X109621000Y-86506000D01*
X109627000Y-86506000D01*
X109634000Y-86505000D01*
X109640000Y-86505000D01*
X110140000Y-86505000D01*
X110146000Y-86505000D01*
X110153000Y-86506000D01*
G36*
X110153000Y-86506000D02*
G01*
X110159000Y-86506000D01*
X110165000Y-86508000D01*
X110171000Y-86509000D01*
X110177000Y-86511000D01*
X110183000Y-86513000D01*
X110189000Y-86515000D01*
X110194000Y-86518000D01*
X110200000Y-86521000D01*
X110205000Y-86524000D01*
X110211000Y-86528000D01*
X110216000Y-86532000D01*
X110220000Y-86536000D01*
X110225000Y-86540000D01*
X110229000Y-86545000D01*
X110233000Y-86549000D01*
X110237000Y-86554000D01*
X110241000Y-86560000D01*
X110244000Y-86565000D01*
X110247000Y-86571000D01*
X110250000Y-86576000D01*
X110252000Y-86582000D01*
X110254000Y-86588000D01*
X110256000Y-86594000D01*
X110257000Y-86600000D01*
X110259000Y-86606000D01*
X110259000Y-86612000D01*
X110260000Y-86619000D01*
X110260000Y-86625000D01*
X110260000Y-86775000D01*
X110260000Y-86781000D01*
X110259000Y-86788000D01*
X110259000Y-86794000D01*
X110257000Y-86800000D01*
X110256000Y-86806000D01*
X110254000Y-86812000D01*
X110252000Y-86818000D01*
X110250000Y-86824000D01*
X110247000Y-86829000D01*
X110244000Y-86835000D01*
X110241000Y-86840000D01*
X110237000Y-86846000D01*
X110233000Y-86851000D01*
X110229000Y-86855000D01*
X110225000Y-86860000D01*
X110220000Y-86864000D01*
X110216000Y-86868000D01*
X110211000Y-86872000D01*
X110205000Y-86876000D01*
X110200000Y-86879000D01*
X110194000Y-86882000D01*
X110189000Y-86885000D01*
X110183000Y-86887000D01*
X110177000Y-86889000D01*
X110171000Y-86891000D01*
X110165000Y-86892000D01*
X110159000Y-86894000D01*
X110153000Y-86894000D01*
X110146000Y-86895000D01*
X110140000Y-86895000D01*
X109640000Y-86895000D01*
X109634000Y-86895000D01*
X109627000Y-86894000D01*
X109621000Y-86894000D01*
X109615000Y-86892000D01*
X109609000Y-86891000D01*
X109603000Y-86889000D01*
X109597000Y-86887000D01*
X109591000Y-86885000D01*
X109586000Y-86882000D01*
X109580000Y-86879000D01*
X109575000Y-86876000D01*
X109569000Y-86872000D01*
X109564000Y-86868000D01*
X109560000Y-86864000D01*
X109555000Y-86860000D01*
X109551000Y-86855000D01*
X109547000Y-86851000D01*
X109543000Y-86846000D01*
X109539000Y-86840000D01*
X109536000Y-86835000D01*
X109533000Y-86829000D01*
X109530000Y-86824000D01*
X109528000Y-86818000D01*
X109526000Y-86812000D01*
X109524000Y-86806000D01*
X109523000Y-86800000D01*
X109521000Y-86794000D01*
X109521000Y-86788000D01*
X109520000Y-86781000D01*
X109520000Y-86775000D01*
X109520000Y-86625000D01*
X109520000Y-86619000D01*
X109521000Y-86612000D01*
X109521000Y-86606000D01*
X109523000Y-86600000D01*
X109524000Y-86594000D01*
X109526000Y-86588000D01*
X109528000Y-86582000D01*
X109530000Y-86576000D01*
X109533000Y-86571000D01*
X109536000Y-86565000D01*
X109539000Y-86560000D01*
X109543000Y-86554000D01*
X109547000Y-86549000D01*
X109551000Y-86545000D01*
X109555000Y-86540000D01*
X109560000Y-86536000D01*
X109564000Y-86532000D01*
X109569000Y-86528000D01*
X109575000Y-86524000D01*
X109580000Y-86521000D01*
X109586000Y-86518000D01*
X109591000Y-86515000D01*
X109597000Y-86513000D01*
X109603000Y-86511000D01*
X109609000Y-86509000D01*
X109615000Y-86508000D01*
X109621000Y-86506000D01*
X109627000Y-86506000D01*
X109634000Y-86505000D01*
X109640000Y-86505000D01*
X110140000Y-86505000D01*
X110146000Y-86505000D01*
X110153000Y-86506000D01*
G37*
X110153000Y-87006000D02*
X110159000Y-87006000D01*
X110165000Y-87008000D01*
X110171000Y-87009000D01*
X110177000Y-87011000D01*
X110183000Y-87013000D01*
X110189000Y-87015000D01*
X110194000Y-87018000D01*
X110200000Y-87021000D01*
X110205000Y-87024000D01*
X110211000Y-87028000D01*
X110216000Y-87032000D01*
X110220000Y-87036000D01*
X110225000Y-87040000D01*
X110229000Y-87045000D01*
X110233000Y-87049000D01*
X110237000Y-87054000D01*
X110241000Y-87060000D01*
X110244000Y-87065000D01*
X110247000Y-87071000D01*
X110250000Y-87076000D01*
X110252000Y-87082000D01*
X110254000Y-87088000D01*
X110256000Y-87094000D01*
X110257000Y-87100000D01*
X110259000Y-87106000D01*
X110259000Y-87112000D01*
X110260000Y-87119000D01*
X110260000Y-87125000D01*
X110260000Y-87275000D01*
X110260000Y-87281000D01*
X110259000Y-87288000D01*
X110259000Y-87294000D01*
X110257000Y-87300000D01*
X110256000Y-87306000D01*
X110254000Y-87312000D01*
X110252000Y-87318000D01*
X110250000Y-87324000D01*
X110247000Y-87329000D01*
X110244000Y-87335000D01*
X110241000Y-87340000D01*
X110237000Y-87346000D01*
X110233000Y-87351000D01*
X110229000Y-87355000D01*
X110225000Y-87360000D01*
X110220000Y-87364000D01*
X110216000Y-87368000D01*
X110211000Y-87372000D01*
X110205000Y-87376000D01*
X110200000Y-87379000D01*
X110194000Y-87382000D01*
X110189000Y-87385000D01*
X110183000Y-87387000D01*
X110177000Y-87389000D01*
X110171000Y-87391000D01*
X110165000Y-87392000D01*
X110159000Y-87394000D01*
X110153000Y-87394000D01*
X110146000Y-87395000D01*
X110140000Y-87395000D01*
X109640000Y-87395000D01*
X109634000Y-87395000D01*
X109627000Y-87394000D01*
X109621000Y-87394000D01*
X109615000Y-87392000D01*
X109609000Y-87391000D01*
X109603000Y-87389000D01*
X109597000Y-87387000D01*
X109591000Y-87385000D01*
X109586000Y-87382000D01*
X109580000Y-87379000D01*
X109575000Y-87376000D01*
X109569000Y-87372000D01*
X109564000Y-87368000D01*
X109560000Y-87364000D01*
X109555000Y-87360000D01*
X109551000Y-87355000D01*
X109547000Y-87351000D01*
X109543000Y-87346000D01*
X109539000Y-87340000D01*
X109536000Y-87335000D01*
X109533000Y-87329000D01*
X109530000Y-87324000D01*
X109528000Y-87318000D01*
X109526000Y-87312000D01*
X109524000Y-87306000D01*
X109523000Y-87300000D01*
X109521000Y-87294000D01*
X109521000Y-87288000D01*
X109520000Y-87281000D01*
X109520000Y-87275000D01*
X109520000Y-87125000D01*
X109520000Y-87119000D01*
X109521000Y-87112000D01*
X109521000Y-87106000D01*
X109523000Y-87100000D01*
X109524000Y-87094000D01*
X109526000Y-87088000D01*
X109528000Y-87082000D01*
X109530000Y-87076000D01*
X109533000Y-87071000D01*
X109536000Y-87065000D01*
X109539000Y-87060000D01*
X109543000Y-87054000D01*
X109547000Y-87049000D01*
X109551000Y-87045000D01*
X109555000Y-87040000D01*
X109560000Y-87036000D01*
X109564000Y-87032000D01*
X109569000Y-87028000D01*
X109575000Y-87024000D01*
X109580000Y-87021000D01*
X109586000Y-87018000D01*
X109591000Y-87015000D01*
X109597000Y-87013000D01*
X109603000Y-87011000D01*
X109609000Y-87009000D01*
X109615000Y-87008000D01*
X109621000Y-87006000D01*
X109627000Y-87006000D01*
X109634000Y-87005000D01*
X109640000Y-87005000D01*
X110140000Y-87005000D01*
X110146000Y-87005000D01*
X110153000Y-87006000D01*
G36*
X110153000Y-87006000D02*
G01*
X110159000Y-87006000D01*
X110165000Y-87008000D01*
X110171000Y-87009000D01*
X110177000Y-87011000D01*
X110183000Y-87013000D01*
X110189000Y-87015000D01*
X110194000Y-87018000D01*
X110200000Y-87021000D01*
X110205000Y-87024000D01*
X110211000Y-87028000D01*
X110216000Y-87032000D01*
X110220000Y-87036000D01*
X110225000Y-87040000D01*
X110229000Y-87045000D01*
X110233000Y-87049000D01*
X110237000Y-87054000D01*
X110241000Y-87060000D01*
X110244000Y-87065000D01*
X110247000Y-87071000D01*
X110250000Y-87076000D01*
X110252000Y-87082000D01*
X110254000Y-87088000D01*
X110256000Y-87094000D01*
X110257000Y-87100000D01*
X110259000Y-87106000D01*
X110259000Y-87112000D01*
X110260000Y-87119000D01*
X110260000Y-87125000D01*
X110260000Y-87275000D01*
X110260000Y-87281000D01*
X110259000Y-87288000D01*
X110259000Y-87294000D01*
X110257000Y-87300000D01*
X110256000Y-87306000D01*
X110254000Y-87312000D01*
X110252000Y-87318000D01*
X110250000Y-87324000D01*
X110247000Y-87329000D01*
X110244000Y-87335000D01*
X110241000Y-87340000D01*
X110237000Y-87346000D01*
X110233000Y-87351000D01*
X110229000Y-87355000D01*
X110225000Y-87360000D01*
X110220000Y-87364000D01*
X110216000Y-87368000D01*
X110211000Y-87372000D01*
X110205000Y-87376000D01*
X110200000Y-87379000D01*
X110194000Y-87382000D01*
X110189000Y-87385000D01*
X110183000Y-87387000D01*
X110177000Y-87389000D01*
X110171000Y-87391000D01*
X110165000Y-87392000D01*
X110159000Y-87394000D01*
X110153000Y-87394000D01*
X110146000Y-87395000D01*
X110140000Y-87395000D01*
X109640000Y-87395000D01*
X109634000Y-87395000D01*
X109627000Y-87394000D01*
X109621000Y-87394000D01*
X109615000Y-87392000D01*
X109609000Y-87391000D01*
X109603000Y-87389000D01*
X109597000Y-87387000D01*
X109591000Y-87385000D01*
X109586000Y-87382000D01*
X109580000Y-87379000D01*
X109575000Y-87376000D01*
X109569000Y-87372000D01*
X109564000Y-87368000D01*
X109560000Y-87364000D01*
X109555000Y-87360000D01*
X109551000Y-87355000D01*
X109547000Y-87351000D01*
X109543000Y-87346000D01*
X109539000Y-87340000D01*
X109536000Y-87335000D01*
X109533000Y-87329000D01*
X109530000Y-87324000D01*
X109528000Y-87318000D01*
X109526000Y-87312000D01*
X109524000Y-87306000D01*
X109523000Y-87300000D01*
X109521000Y-87294000D01*
X109521000Y-87288000D01*
X109520000Y-87281000D01*
X109520000Y-87275000D01*
X109520000Y-87125000D01*
X109520000Y-87119000D01*
X109521000Y-87112000D01*
X109521000Y-87106000D01*
X109523000Y-87100000D01*
X109524000Y-87094000D01*
X109526000Y-87088000D01*
X109528000Y-87082000D01*
X109530000Y-87076000D01*
X109533000Y-87071000D01*
X109536000Y-87065000D01*
X109539000Y-87060000D01*
X109543000Y-87054000D01*
X109547000Y-87049000D01*
X109551000Y-87045000D01*
X109555000Y-87040000D01*
X109560000Y-87036000D01*
X109564000Y-87032000D01*
X109569000Y-87028000D01*
X109575000Y-87024000D01*
X109580000Y-87021000D01*
X109586000Y-87018000D01*
X109591000Y-87015000D01*
X109597000Y-87013000D01*
X109603000Y-87011000D01*
X109609000Y-87009000D01*
X109615000Y-87008000D01*
X109621000Y-87006000D01*
X109627000Y-87006000D01*
X109634000Y-87005000D01*
X109640000Y-87005000D01*
X110140000Y-87005000D01*
X110146000Y-87005000D01*
X110153000Y-87006000D01*
G37*
X110153000Y-87506000D02*
X110159000Y-87506000D01*
X110165000Y-87508000D01*
X110171000Y-87509000D01*
X110177000Y-87511000D01*
X110183000Y-87513000D01*
X110189000Y-87515000D01*
X110194000Y-87518000D01*
X110200000Y-87521000D01*
X110205000Y-87524000D01*
X110211000Y-87528000D01*
X110216000Y-87532000D01*
X110220000Y-87536000D01*
X110225000Y-87540000D01*
X110229000Y-87545000D01*
X110233000Y-87549000D01*
X110237000Y-87554000D01*
X110241000Y-87560000D01*
X110244000Y-87565000D01*
X110247000Y-87571000D01*
X110250000Y-87576000D01*
X110252000Y-87582000D01*
X110254000Y-87588000D01*
X110256000Y-87594000D01*
X110257000Y-87600000D01*
X110259000Y-87606000D01*
X110259000Y-87612000D01*
X110260000Y-87619000D01*
X110260000Y-87625000D01*
X110260000Y-87775000D01*
X110260000Y-87781000D01*
X110259000Y-87788000D01*
X110259000Y-87794000D01*
X110257000Y-87800000D01*
X110256000Y-87806000D01*
X110254000Y-87812000D01*
X110252000Y-87818000D01*
X110250000Y-87824000D01*
X110247000Y-87829000D01*
X110244000Y-87835000D01*
X110241000Y-87840000D01*
X110237000Y-87846000D01*
X110233000Y-87851000D01*
X110229000Y-87855000D01*
X110225000Y-87860000D01*
X110220000Y-87864000D01*
X110216000Y-87868000D01*
X110211000Y-87872000D01*
X110205000Y-87876000D01*
X110200000Y-87879000D01*
X110194000Y-87882000D01*
X110189000Y-87885000D01*
X110183000Y-87887000D01*
X110177000Y-87889000D01*
X110171000Y-87891000D01*
X110165000Y-87892000D01*
X110159000Y-87894000D01*
X110153000Y-87894000D01*
X110146000Y-87895000D01*
X110140000Y-87895000D01*
X109640000Y-87895000D01*
X109634000Y-87895000D01*
X109627000Y-87894000D01*
X109621000Y-87894000D01*
X109615000Y-87892000D01*
X109609000Y-87891000D01*
X109603000Y-87889000D01*
X109597000Y-87887000D01*
X109591000Y-87885000D01*
X109586000Y-87882000D01*
X109580000Y-87879000D01*
X109575000Y-87876000D01*
X109569000Y-87872000D01*
X109564000Y-87868000D01*
X109560000Y-87864000D01*
X109555000Y-87860000D01*
X109551000Y-87855000D01*
X109547000Y-87851000D01*
X109543000Y-87846000D01*
X109539000Y-87840000D01*
X109536000Y-87835000D01*
X109533000Y-87829000D01*
X109530000Y-87824000D01*
X109528000Y-87818000D01*
X109526000Y-87812000D01*
X109524000Y-87806000D01*
X109523000Y-87800000D01*
X109521000Y-87794000D01*
X109521000Y-87788000D01*
X109520000Y-87781000D01*
X109520000Y-87775000D01*
X109520000Y-87625000D01*
X109520000Y-87619000D01*
X109521000Y-87612000D01*
X109521000Y-87606000D01*
X109523000Y-87600000D01*
X109524000Y-87594000D01*
X109526000Y-87588000D01*
X109528000Y-87582000D01*
X109530000Y-87576000D01*
X109533000Y-87571000D01*
X109536000Y-87565000D01*
X109539000Y-87560000D01*
X109543000Y-87554000D01*
X109547000Y-87549000D01*
X109551000Y-87545000D01*
X109555000Y-87540000D01*
X109560000Y-87536000D01*
X109564000Y-87532000D01*
X109569000Y-87528000D01*
X109575000Y-87524000D01*
X109580000Y-87521000D01*
X109586000Y-87518000D01*
X109591000Y-87515000D01*
X109597000Y-87513000D01*
X109603000Y-87511000D01*
X109609000Y-87509000D01*
X109615000Y-87508000D01*
X109621000Y-87506000D01*
X109627000Y-87506000D01*
X109634000Y-87505000D01*
X109640000Y-87505000D01*
X110140000Y-87505000D01*
X110146000Y-87505000D01*
X110153000Y-87506000D01*
G36*
X110153000Y-87506000D02*
G01*
X110159000Y-87506000D01*
X110165000Y-87508000D01*
X110171000Y-87509000D01*
X110177000Y-87511000D01*
X110183000Y-87513000D01*
X110189000Y-87515000D01*
X110194000Y-87518000D01*
X110200000Y-87521000D01*
X110205000Y-87524000D01*
X110211000Y-87528000D01*
X110216000Y-87532000D01*
X110220000Y-87536000D01*
X110225000Y-87540000D01*
X110229000Y-87545000D01*
X110233000Y-87549000D01*
X110237000Y-87554000D01*
X110241000Y-87560000D01*
X110244000Y-87565000D01*
X110247000Y-87571000D01*
X110250000Y-87576000D01*
X110252000Y-87582000D01*
X110254000Y-87588000D01*
X110256000Y-87594000D01*
X110257000Y-87600000D01*
X110259000Y-87606000D01*
X110259000Y-87612000D01*
X110260000Y-87619000D01*
X110260000Y-87625000D01*
X110260000Y-87775000D01*
X110260000Y-87781000D01*
X110259000Y-87788000D01*
X110259000Y-87794000D01*
X110257000Y-87800000D01*
X110256000Y-87806000D01*
X110254000Y-87812000D01*
X110252000Y-87818000D01*
X110250000Y-87824000D01*
X110247000Y-87829000D01*
X110244000Y-87835000D01*
X110241000Y-87840000D01*
X110237000Y-87846000D01*
X110233000Y-87851000D01*
X110229000Y-87855000D01*
X110225000Y-87860000D01*
X110220000Y-87864000D01*
X110216000Y-87868000D01*
X110211000Y-87872000D01*
X110205000Y-87876000D01*
X110200000Y-87879000D01*
X110194000Y-87882000D01*
X110189000Y-87885000D01*
X110183000Y-87887000D01*
X110177000Y-87889000D01*
X110171000Y-87891000D01*
X110165000Y-87892000D01*
X110159000Y-87894000D01*
X110153000Y-87894000D01*
X110146000Y-87895000D01*
X110140000Y-87895000D01*
X109640000Y-87895000D01*
X109634000Y-87895000D01*
X109627000Y-87894000D01*
X109621000Y-87894000D01*
X109615000Y-87892000D01*
X109609000Y-87891000D01*
X109603000Y-87889000D01*
X109597000Y-87887000D01*
X109591000Y-87885000D01*
X109586000Y-87882000D01*
X109580000Y-87879000D01*
X109575000Y-87876000D01*
X109569000Y-87872000D01*
X109564000Y-87868000D01*
X109560000Y-87864000D01*
X109555000Y-87860000D01*
X109551000Y-87855000D01*
X109547000Y-87851000D01*
X109543000Y-87846000D01*
X109539000Y-87840000D01*
X109536000Y-87835000D01*
X109533000Y-87829000D01*
X109530000Y-87824000D01*
X109528000Y-87818000D01*
X109526000Y-87812000D01*
X109524000Y-87806000D01*
X109523000Y-87800000D01*
X109521000Y-87794000D01*
X109521000Y-87788000D01*
X109520000Y-87781000D01*
X109520000Y-87775000D01*
X109520000Y-87625000D01*
X109520000Y-87619000D01*
X109521000Y-87612000D01*
X109521000Y-87606000D01*
X109523000Y-87600000D01*
X109524000Y-87594000D01*
X109526000Y-87588000D01*
X109528000Y-87582000D01*
X109530000Y-87576000D01*
X109533000Y-87571000D01*
X109536000Y-87565000D01*
X109539000Y-87560000D01*
X109543000Y-87554000D01*
X109547000Y-87549000D01*
X109551000Y-87545000D01*
X109555000Y-87540000D01*
X109560000Y-87536000D01*
X109564000Y-87532000D01*
X109569000Y-87528000D01*
X109575000Y-87524000D01*
X109580000Y-87521000D01*
X109586000Y-87518000D01*
X109591000Y-87515000D01*
X109597000Y-87513000D01*
X109603000Y-87511000D01*
X109609000Y-87509000D01*
X109615000Y-87508000D01*
X109621000Y-87506000D01*
X109627000Y-87506000D01*
X109634000Y-87505000D01*
X109640000Y-87505000D01*
X110140000Y-87505000D01*
X110146000Y-87505000D01*
X110153000Y-87506000D01*
G37*
X110153000Y-88006000D02*
X110159000Y-88006000D01*
X110165000Y-88008000D01*
X110171000Y-88009000D01*
X110177000Y-88011000D01*
X110183000Y-88013000D01*
X110189000Y-88015000D01*
X110194000Y-88018000D01*
X110200000Y-88021000D01*
X110205000Y-88024000D01*
X110211000Y-88028000D01*
X110216000Y-88032000D01*
X110220000Y-88036000D01*
X110225000Y-88040000D01*
X110229000Y-88045000D01*
X110233000Y-88049000D01*
X110237000Y-88054000D01*
X110241000Y-88060000D01*
X110244000Y-88065000D01*
X110247000Y-88071000D01*
X110250000Y-88076000D01*
X110252000Y-88082000D01*
X110254000Y-88088000D01*
X110256000Y-88094000D01*
X110257000Y-88100000D01*
X110259000Y-88106000D01*
X110259000Y-88112000D01*
X110260000Y-88119000D01*
X110260000Y-88125000D01*
X110260000Y-88275000D01*
X110260000Y-88281000D01*
X110259000Y-88288000D01*
X110259000Y-88294000D01*
X110257000Y-88300000D01*
X110256000Y-88306000D01*
X110254000Y-88312000D01*
X110252000Y-88318000D01*
X110250000Y-88324000D01*
X110247000Y-88329000D01*
X110244000Y-88335000D01*
X110241000Y-88340000D01*
X110237000Y-88346000D01*
X110233000Y-88351000D01*
X110229000Y-88355000D01*
X110225000Y-88360000D01*
X110220000Y-88364000D01*
X110216000Y-88368000D01*
X110211000Y-88372000D01*
X110205000Y-88376000D01*
X110200000Y-88379000D01*
X110194000Y-88382000D01*
X110189000Y-88385000D01*
X110183000Y-88387000D01*
X110177000Y-88389000D01*
X110171000Y-88391000D01*
X110165000Y-88392000D01*
X110159000Y-88394000D01*
X110153000Y-88394000D01*
X110146000Y-88395000D01*
X110140000Y-88395000D01*
X109640000Y-88395000D01*
X109634000Y-88395000D01*
X109627000Y-88394000D01*
X109621000Y-88394000D01*
X109615000Y-88392000D01*
X109609000Y-88391000D01*
X109603000Y-88389000D01*
X109597000Y-88387000D01*
X109591000Y-88385000D01*
X109586000Y-88382000D01*
X109580000Y-88379000D01*
X109575000Y-88376000D01*
X109569000Y-88372000D01*
X109564000Y-88368000D01*
X109560000Y-88364000D01*
X109555000Y-88360000D01*
X109551000Y-88355000D01*
X109547000Y-88351000D01*
X109543000Y-88346000D01*
X109539000Y-88340000D01*
X109536000Y-88335000D01*
X109533000Y-88329000D01*
X109530000Y-88324000D01*
X109528000Y-88318000D01*
X109526000Y-88312000D01*
X109524000Y-88306000D01*
X109523000Y-88300000D01*
X109521000Y-88294000D01*
X109521000Y-88288000D01*
X109520000Y-88281000D01*
X109520000Y-88275000D01*
X109520000Y-88125000D01*
X109520000Y-88119000D01*
X109521000Y-88112000D01*
X109521000Y-88106000D01*
X109523000Y-88100000D01*
X109524000Y-88094000D01*
X109526000Y-88088000D01*
X109528000Y-88082000D01*
X109530000Y-88076000D01*
X109533000Y-88071000D01*
X109536000Y-88065000D01*
X109539000Y-88060000D01*
X109543000Y-88054000D01*
X109547000Y-88049000D01*
X109551000Y-88045000D01*
X109555000Y-88040000D01*
X109560000Y-88036000D01*
X109564000Y-88032000D01*
X109569000Y-88028000D01*
X109575000Y-88024000D01*
X109580000Y-88021000D01*
X109586000Y-88018000D01*
X109591000Y-88015000D01*
X109597000Y-88013000D01*
X109603000Y-88011000D01*
X109609000Y-88009000D01*
X109615000Y-88008000D01*
X109621000Y-88006000D01*
X109627000Y-88006000D01*
X109634000Y-88005000D01*
X109640000Y-88005000D01*
X110140000Y-88005000D01*
X110146000Y-88005000D01*
X110153000Y-88006000D01*
G36*
X110153000Y-88006000D02*
G01*
X110159000Y-88006000D01*
X110165000Y-88008000D01*
X110171000Y-88009000D01*
X110177000Y-88011000D01*
X110183000Y-88013000D01*
X110189000Y-88015000D01*
X110194000Y-88018000D01*
X110200000Y-88021000D01*
X110205000Y-88024000D01*
X110211000Y-88028000D01*
X110216000Y-88032000D01*
X110220000Y-88036000D01*
X110225000Y-88040000D01*
X110229000Y-88045000D01*
X110233000Y-88049000D01*
X110237000Y-88054000D01*
X110241000Y-88060000D01*
X110244000Y-88065000D01*
X110247000Y-88071000D01*
X110250000Y-88076000D01*
X110252000Y-88082000D01*
X110254000Y-88088000D01*
X110256000Y-88094000D01*
X110257000Y-88100000D01*
X110259000Y-88106000D01*
X110259000Y-88112000D01*
X110260000Y-88119000D01*
X110260000Y-88125000D01*
X110260000Y-88275000D01*
X110260000Y-88281000D01*
X110259000Y-88288000D01*
X110259000Y-88294000D01*
X110257000Y-88300000D01*
X110256000Y-88306000D01*
X110254000Y-88312000D01*
X110252000Y-88318000D01*
X110250000Y-88324000D01*
X110247000Y-88329000D01*
X110244000Y-88335000D01*
X110241000Y-88340000D01*
X110237000Y-88346000D01*
X110233000Y-88351000D01*
X110229000Y-88355000D01*
X110225000Y-88360000D01*
X110220000Y-88364000D01*
X110216000Y-88368000D01*
X110211000Y-88372000D01*
X110205000Y-88376000D01*
X110200000Y-88379000D01*
X110194000Y-88382000D01*
X110189000Y-88385000D01*
X110183000Y-88387000D01*
X110177000Y-88389000D01*
X110171000Y-88391000D01*
X110165000Y-88392000D01*
X110159000Y-88394000D01*
X110153000Y-88394000D01*
X110146000Y-88395000D01*
X110140000Y-88395000D01*
X109640000Y-88395000D01*
X109634000Y-88395000D01*
X109627000Y-88394000D01*
X109621000Y-88394000D01*
X109615000Y-88392000D01*
X109609000Y-88391000D01*
X109603000Y-88389000D01*
X109597000Y-88387000D01*
X109591000Y-88385000D01*
X109586000Y-88382000D01*
X109580000Y-88379000D01*
X109575000Y-88376000D01*
X109569000Y-88372000D01*
X109564000Y-88368000D01*
X109560000Y-88364000D01*
X109555000Y-88360000D01*
X109551000Y-88355000D01*
X109547000Y-88351000D01*
X109543000Y-88346000D01*
X109539000Y-88340000D01*
X109536000Y-88335000D01*
X109533000Y-88329000D01*
X109530000Y-88324000D01*
X109528000Y-88318000D01*
X109526000Y-88312000D01*
X109524000Y-88306000D01*
X109523000Y-88300000D01*
X109521000Y-88294000D01*
X109521000Y-88288000D01*
X109520000Y-88281000D01*
X109520000Y-88275000D01*
X109520000Y-88125000D01*
X109520000Y-88119000D01*
X109521000Y-88112000D01*
X109521000Y-88106000D01*
X109523000Y-88100000D01*
X109524000Y-88094000D01*
X109526000Y-88088000D01*
X109528000Y-88082000D01*
X109530000Y-88076000D01*
X109533000Y-88071000D01*
X109536000Y-88065000D01*
X109539000Y-88060000D01*
X109543000Y-88054000D01*
X109547000Y-88049000D01*
X109551000Y-88045000D01*
X109555000Y-88040000D01*
X109560000Y-88036000D01*
X109564000Y-88032000D01*
X109569000Y-88028000D01*
X109575000Y-88024000D01*
X109580000Y-88021000D01*
X109586000Y-88018000D01*
X109591000Y-88015000D01*
X109597000Y-88013000D01*
X109603000Y-88011000D01*
X109609000Y-88009000D01*
X109615000Y-88008000D01*
X109621000Y-88006000D01*
X109627000Y-88006000D01*
X109634000Y-88005000D01*
X109640000Y-88005000D01*
X110140000Y-88005000D01*
X110146000Y-88005000D01*
X110153000Y-88006000D01*
G37*
X111953000Y-86006000D02*
X111959000Y-86006000D01*
X111965000Y-86008000D01*
X111971000Y-86009000D01*
X111977000Y-86011000D01*
X111983000Y-86013000D01*
X111989000Y-86015000D01*
X111994000Y-86018000D01*
X112000000Y-86021000D01*
X112005000Y-86024000D01*
X112011000Y-86028000D01*
X112016000Y-86032000D01*
X112020000Y-86036000D01*
X112025000Y-86040000D01*
X112029000Y-86045000D01*
X112033000Y-86049000D01*
X112037000Y-86054000D01*
X112041000Y-86060000D01*
X112044000Y-86065000D01*
X112047000Y-86071000D01*
X112050000Y-86076000D01*
X112052000Y-86082000D01*
X112054000Y-86088000D01*
X112056000Y-86094000D01*
X112057000Y-86100000D01*
X112059000Y-86106000D01*
X112059000Y-86112000D01*
X112060000Y-86119000D01*
X112060000Y-86125000D01*
X112060000Y-86275000D01*
X112060000Y-86281000D01*
X112059000Y-86288000D01*
X112059000Y-86294000D01*
X112057000Y-86300000D01*
X112056000Y-86306000D01*
X112054000Y-86312000D01*
X112052000Y-86318000D01*
X112050000Y-86324000D01*
X112047000Y-86329000D01*
X112044000Y-86335000D01*
X112041000Y-86340000D01*
X112037000Y-86346000D01*
X112033000Y-86351000D01*
X112029000Y-86355000D01*
X112025000Y-86360000D01*
X112020000Y-86364000D01*
X112016000Y-86368000D01*
X112011000Y-86372000D01*
X112005000Y-86376000D01*
X112000000Y-86379000D01*
X111994000Y-86382000D01*
X111989000Y-86385000D01*
X111983000Y-86387000D01*
X111977000Y-86389000D01*
X111971000Y-86391000D01*
X111965000Y-86392000D01*
X111959000Y-86394000D01*
X111953000Y-86394000D01*
X111946000Y-86395000D01*
X111940000Y-86395000D01*
X111140000Y-86395000D01*
X111134000Y-86395000D01*
X111127000Y-86394000D01*
X111121000Y-86394000D01*
X111115000Y-86392000D01*
X111109000Y-86391000D01*
X111103000Y-86389000D01*
X111097000Y-86387000D01*
X111091000Y-86385000D01*
X111086000Y-86382000D01*
X111080000Y-86379000D01*
X111075000Y-86376000D01*
X111069000Y-86372000D01*
X111064000Y-86368000D01*
X111060000Y-86364000D01*
X111055000Y-86360000D01*
X111051000Y-86355000D01*
X111047000Y-86351000D01*
X111043000Y-86346000D01*
X111039000Y-86340000D01*
X111036000Y-86335000D01*
X111033000Y-86329000D01*
X111030000Y-86324000D01*
X111028000Y-86318000D01*
X111026000Y-86312000D01*
X111024000Y-86306000D01*
X111023000Y-86300000D01*
X111021000Y-86294000D01*
X111021000Y-86288000D01*
X111020000Y-86281000D01*
X111020000Y-86275000D01*
X111020000Y-86125000D01*
X111020000Y-86119000D01*
X111021000Y-86112000D01*
X111021000Y-86106000D01*
X111023000Y-86100000D01*
X111024000Y-86094000D01*
X111026000Y-86088000D01*
X111028000Y-86082000D01*
X111030000Y-86076000D01*
X111033000Y-86071000D01*
X111036000Y-86065000D01*
X111039000Y-86060000D01*
X111043000Y-86054000D01*
X111047000Y-86049000D01*
X111051000Y-86045000D01*
X111055000Y-86040000D01*
X111060000Y-86036000D01*
X111064000Y-86032000D01*
X111069000Y-86028000D01*
X111075000Y-86024000D01*
X111080000Y-86021000D01*
X111086000Y-86018000D01*
X111091000Y-86015000D01*
X111097000Y-86013000D01*
X111103000Y-86011000D01*
X111109000Y-86009000D01*
X111115000Y-86008000D01*
X111121000Y-86006000D01*
X111127000Y-86006000D01*
X111134000Y-86005000D01*
X111140000Y-86005000D01*
X111940000Y-86005000D01*
X111946000Y-86005000D01*
X111953000Y-86006000D01*
G36*
X111953000Y-86006000D02*
G01*
X111959000Y-86006000D01*
X111965000Y-86008000D01*
X111971000Y-86009000D01*
X111977000Y-86011000D01*
X111983000Y-86013000D01*
X111989000Y-86015000D01*
X111994000Y-86018000D01*
X112000000Y-86021000D01*
X112005000Y-86024000D01*
X112011000Y-86028000D01*
X112016000Y-86032000D01*
X112020000Y-86036000D01*
X112025000Y-86040000D01*
X112029000Y-86045000D01*
X112033000Y-86049000D01*
X112037000Y-86054000D01*
X112041000Y-86060000D01*
X112044000Y-86065000D01*
X112047000Y-86071000D01*
X112050000Y-86076000D01*
X112052000Y-86082000D01*
X112054000Y-86088000D01*
X112056000Y-86094000D01*
X112057000Y-86100000D01*
X112059000Y-86106000D01*
X112059000Y-86112000D01*
X112060000Y-86119000D01*
X112060000Y-86125000D01*
X112060000Y-86275000D01*
X112060000Y-86281000D01*
X112059000Y-86288000D01*
X112059000Y-86294000D01*
X112057000Y-86300000D01*
X112056000Y-86306000D01*
X112054000Y-86312000D01*
X112052000Y-86318000D01*
X112050000Y-86324000D01*
X112047000Y-86329000D01*
X112044000Y-86335000D01*
X112041000Y-86340000D01*
X112037000Y-86346000D01*
X112033000Y-86351000D01*
X112029000Y-86355000D01*
X112025000Y-86360000D01*
X112020000Y-86364000D01*
X112016000Y-86368000D01*
X112011000Y-86372000D01*
X112005000Y-86376000D01*
X112000000Y-86379000D01*
X111994000Y-86382000D01*
X111989000Y-86385000D01*
X111983000Y-86387000D01*
X111977000Y-86389000D01*
X111971000Y-86391000D01*
X111965000Y-86392000D01*
X111959000Y-86394000D01*
X111953000Y-86394000D01*
X111946000Y-86395000D01*
X111940000Y-86395000D01*
X111140000Y-86395000D01*
X111134000Y-86395000D01*
X111127000Y-86394000D01*
X111121000Y-86394000D01*
X111115000Y-86392000D01*
X111109000Y-86391000D01*
X111103000Y-86389000D01*
X111097000Y-86387000D01*
X111091000Y-86385000D01*
X111086000Y-86382000D01*
X111080000Y-86379000D01*
X111075000Y-86376000D01*
X111069000Y-86372000D01*
X111064000Y-86368000D01*
X111060000Y-86364000D01*
X111055000Y-86360000D01*
X111051000Y-86355000D01*
X111047000Y-86351000D01*
X111043000Y-86346000D01*
X111039000Y-86340000D01*
X111036000Y-86335000D01*
X111033000Y-86329000D01*
X111030000Y-86324000D01*
X111028000Y-86318000D01*
X111026000Y-86312000D01*
X111024000Y-86306000D01*
X111023000Y-86300000D01*
X111021000Y-86294000D01*
X111021000Y-86288000D01*
X111020000Y-86281000D01*
X111020000Y-86275000D01*
X111020000Y-86125000D01*
X111020000Y-86119000D01*
X111021000Y-86112000D01*
X111021000Y-86106000D01*
X111023000Y-86100000D01*
X111024000Y-86094000D01*
X111026000Y-86088000D01*
X111028000Y-86082000D01*
X111030000Y-86076000D01*
X111033000Y-86071000D01*
X111036000Y-86065000D01*
X111039000Y-86060000D01*
X111043000Y-86054000D01*
X111047000Y-86049000D01*
X111051000Y-86045000D01*
X111055000Y-86040000D01*
X111060000Y-86036000D01*
X111064000Y-86032000D01*
X111069000Y-86028000D01*
X111075000Y-86024000D01*
X111080000Y-86021000D01*
X111086000Y-86018000D01*
X111091000Y-86015000D01*
X111097000Y-86013000D01*
X111103000Y-86011000D01*
X111109000Y-86009000D01*
X111115000Y-86008000D01*
X111121000Y-86006000D01*
X111127000Y-86006000D01*
X111134000Y-86005000D01*
X111140000Y-86005000D01*
X111940000Y-86005000D01*
X111946000Y-86005000D01*
X111953000Y-86006000D01*
G37*
X111953000Y-86506000D02*
X111959000Y-86506000D01*
X111965000Y-86508000D01*
X111971000Y-86509000D01*
X111977000Y-86511000D01*
X111983000Y-86513000D01*
X111989000Y-86515000D01*
X111994000Y-86518000D01*
X112000000Y-86521000D01*
X112005000Y-86524000D01*
X112011000Y-86528000D01*
X112016000Y-86532000D01*
X112020000Y-86536000D01*
X112025000Y-86540000D01*
X112029000Y-86545000D01*
X112033000Y-86549000D01*
X112037000Y-86554000D01*
X112041000Y-86560000D01*
X112044000Y-86565000D01*
X112047000Y-86571000D01*
X112050000Y-86576000D01*
X112052000Y-86582000D01*
X112054000Y-86588000D01*
X112056000Y-86594000D01*
X112057000Y-86600000D01*
X112059000Y-86606000D01*
X112059000Y-86612000D01*
X112060000Y-86619000D01*
X112060000Y-86625000D01*
X112060000Y-86775000D01*
X112060000Y-86781000D01*
X112059000Y-86788000D01*
X112059000Y-86794000D01*
X112057000Y-86800000D01*
X112056000Y-86806000D01*
X112054000Y-86812000D01*
X112052000Y-86818000D01*
X112050000Y-86824000D01*
X112047000Y-86829000D01*
X112044000Y-86835000D01*
X112041000Y-86840000D01*
X112037000Y-86846000D01*
X112033000Y-86851000D01*
X112029000Y-86855000D01*
X112025000Y-86860000D01*
X112020000Y-86864000D01*
X112016000Y-86868000D01*
X112011000Y-86872000D01*
X112005000Y-86876000D01*
X112000000Y-86879000D01*
X111994000Y-86882000D01*
X111989000Y-86885000D01*
X111983000Y-86887000D01*
X111977000Y-86889000D01*
X111971000Y-86891000D01*
X111965000Y-86892000D01*
X111959000Y-86894000D01*
X111953000Y-86894000D01*
X111946000Y-86895000D01*
X111940000Y-86895000D01*
X111140000Y-86895000D01*
X111134000Y-86895000D01*
X111127000Y-86894000D01*
X111121000Y-86894000D01*
X111115000Y-86892000D01*
X111109000Y-86891000D01*
X111103000Y-86889000D01*
X111097000Y-86887000D01*
X111091000Y-86885000D01*
X111086000Y-86882000D01*
X111080000Y-86879000D01*
X111075000Y-86876000D01*
X111069000Y-86872000D01*
X111064000Y-86868000D01*
X111060000Y-86864000D01*
X111055000Y-86860000D01*
X111051000Y-86855000D01*
X111047000Y-86851000D01*
X111043000Y-86846000D01*
X111039000Y-86840000D01*
X111036000Y-86835000D01*
X111033000Y-86829000D01*
X111030000Y-86824000D01*
X111028000Y-86818000D01*
X111026000Y-86812000D01*
X111024000Y-86806000D01*
X111023000Y-86800000D01*
X111021000Y-86794000D01*
X111021000Y-86788000D01*
X111020000Y-86781000D01*
X111020000Y-86775000D01*
X111020000Y-86625000D01*
X111020000Y-86619000D01*
X111021000Y-86612000D01*
X111021000Y-86606000D01*
X111023000Y-86600000D01*
X111024000Y-86594000D01*
X111026000Y-86588000D01*
X111028000Y-86582000D01*
X111030000Y-86576000D01*
X111033000Y-86571000D01*
X111036000Y-86565000D01*
X111039000Y-86560000D01*
X111043000Y-86554000D01*
X111047000Y-86549000D01*
X111051000Y-86545000D01*
X111055000Y-86540000D01*
X111060000Y-86536000D01*
X111064000Y-86532000D01*
X111069000Y-86528000D01*
X111075000Y-86524000D01*
X111080000Y-86521000D01*
X111086000Y-86518000D01*
X111091000Y-86515000D01*
X111097000Y-86513000D01*
X111103000Y-86511000D01*
X111109000Y-86509000D01*
X111115000Y-86508000D01*
X111121000Y-86506000D01*
X111127000Y-86506000D01*
X111134000Y-86505000D01*
X111140000Y-86505000D01*
X111940000Y-86505000D01*
X111946000Y-86505000D01*
X111953000Y-86506000D01*
G36*
X111953000Y-86506000D02*
G01*
X111959000Y-86506000D01*
X111965000Y-86508000D01*
X111971000Y-86509000D01*
X111977000Y-86511000D01*
X111983000Y-86513000D01*
X111989000Y-86515000D01*
X111994000Y-86518000D01*
X112000000Y-86521000D01*
X112005000Y-86524000D01*
X112011000Y-86528000D01*
X112016000Y-86532000D01*
X112020000Y-86536000D01*
X112025000Y-86540000D01*
X112029000Y-86545000D01*
X112033000Y-86549000D01*
X112037000Y-86554000D01*
X112041000Y-86560000D01*
X112044000Y-86565000D01*
X112047000Y-86571000D01*
X112050000Y-86576000D01*
X112052000Y-86582000D01*
X112054000Y-86588000D01*
X112056000Y-86594000D01*
X112057000Y-86600000D01*
X112059000Y-86606000D01*
X112059000Y-86612000D01*
X112060000Y-86619000D01*
X112060000Y-86625000D01*
X112060000Y-86775000D01*
X112060000Y-86781000D01*
X112059000Y-86788000D01*
X112059000Y-86794000D01*
X112057000Y-86800000D01*
X112056000Y-86806000D01*
X112054000Y-86812000D01*
X112052000Y-86818000D01*
X112050000Y-86824000D01*
X112047000Y-86829000D01*
X112044000Y-86835000D01*
X112041000Y-86840000D01*
X112037000Y-86846000D01*
X112033000Y-86851000D01*
X112029000Y-86855000D01*
X112025000Y-86860000D01*
X112020000Y-86864000D01*
X112016000Y-86868000D01*
X112011000Y-86872000D01*
X112005000Y-86876000D01*
X112000000Y-86879000D01*
X111994000Y-86882000D01*
X111989000Y-86885000D01*
X111983000Y-86887000D01*
X111977000Y-86889000D01*
X111971000Y-86891000D01*
X111965000Y-86892000D01*
X111959000Y-86894000D01*
X111953000Y-86894000D01*
X111946000Y-86895000D01*
X111940000Y-86895000D01*
X111140000Y-86895000D01*
X111134000Y-86895000D01*
X111127000Y-86894000D01*
X111121000Y-86894000D01*
X111115000Y-86892000D01*
X111109000Y-86891000D01*
X111103000Y-86889000D01*
X111097000Y-86887000D01*
X111091000Y-86885000D01*
X111086000Y-86882000D01*
X111080000Y-86879000D01*
X111075000Y-86876000D01*
X111069000Y-86872000D01*
X111064000Y-86868000D01*
X111060000Y-86864000D01*
X111055000Y-86860000D01*
X111051000Y-86855000D01*
X111047000Y-86851000D01*
X111043000Y-86846000D01*
X111039000Y-86840000D01*
X111036000Y-86835000D01*
X111033000Y-86829000D01*
X111030000Y-86824000D01*
X111028000Y-86818000D01*
X111026000Y-86812000D01*
X111024000Y-86806000D01*
X111023000Y-86800000D01*
X111021000Y-86794000D01*
X111021000Y-86788000D01*
X111020000Y-86781000D01*
X111020000Y-86775000D01*
X111020000Y-86625000D01*
X111020000Y-86619000D01*
X111021000Y-86612000D01*
X111021000Y-86606000D01*
X111023000Y-86600000D01*
X111024000Y-86594000D01*
X111026000Y-86588000D01*
X111028000Y-86582000D01*
X111030000Y-86576000D01*
X111033000Y-86571000D01*
X111036000Y-86565000D01*
X111039000Y-86560000D01*
X111043000Y-86554000D01*
X111047000Y-86549000D01*
X111051000Y-86545000D01*
X111055000Y-86540000D01*
X111060000Y-86536000D01*
X111064000Y-86532000D01*
X111069000Y-86528000D01*
X111075000Y-86524000D01*
X111080000Y-86521000D01*
X111086000Y-86518000D01*
X111091000Y-86515000D01*
X111097000Y-86513000D01*
X111103000Y-86511000D01*
X111109000Y-86509000D01*
X111115000Y-86508000D01*
X111121000Y-86506000D01*
X111127000Y-86506000D01*
X111134000Y-86505000D01*
X111140000Y-86505000D01*
X111940000Y-86505000D01*
X111946000Y-86505000D01*
X111953000Y-86506000D01*
G37*
X111953000Y-87006000D02*
X111959000Y-87006000D01*
X111965000Y-87008000D01*
X111971000Y-87009000D01*
X111977000Y-87011000D01*
X111983000Y-87013000D01*
X111989000Y-87015000D01*
X111994000Y-87018000D01*
X112000000Y-87021000D01*
X112005000Y-87024000D01*
X112011000Y-87028000D01*
X112016000Y-87032000D01*
X112020000Y-87036000D01*
X112025000Y-87040000D01*
X112029000Y-87045000D01*
X112033000Y-87049000D01*
X112037000Y-87054000D01*
X112041000Y-87060000D01*
X112044000Y-87065000D01*
X112047000Y-87071000D01*
X112050000Y-87076000D01*
X112052000Y-87082000D01*
X112054000Y-87088000D01*
X112056000Y-87094000D01*
X112057000Y-87100000D01*
X112059000Y-87106000D01*
X112059000Y-87112000D01*
X112060000Y-87119000D01*
X112060000Y-87125000D01*
X112060000Y-87275000D01*
X112060000Y-87281000D01*
X112059000Y-87288000D01*
X112059000Y-87294000D01*
X112057000Y-87300000D01*
X112056000Y-87306000D01*
X112054000Y-87312000D01*
X112052000Y-87318000D01*
X112050000Y-87324000D01*
X112047000Y-87329000D01*
X112044000Y-87335000D01*
X112041000Y-87340000D01*
X112037000Y-87346000D01*
X112033000Y-87351000D01*
X112029000Y-87355000D01*
X112025000Y-87360000D01*
X112020000Y-87364000D01*
X112016000Y-87368000D01*
X112011000Y-87372000D01*
X112005000Y-87376000D01*
X112000000Y-87379000D01*
X111994000Y-87382000D01*
X111989000Y-87385000D01*
X111983000Y-87387000D01*
X111977000Y-87389000D01*
X111971000Y-87391000D01*
X111965000Y-87392000D01*
X111959000Y-87394000D01*
X111953000Y-87394000D01*
X111946000Y-87395000D01*
X111940000Y-87395000D01*
X110740000Y-87395000D01*
X110734000Y-87395000D01*
X110727000Y-87394000D01*
X110721000Y-87394000D01*
X110715000Y-87392000D01*
X110709000Y-87391000D01*
X110703000Y-87389000D01*
X110697000Y-87387000D01*
X110691000Y-87385000D01*
X110686000Y-87382000D01*
X110680000Y-87379000D01*
X110675000Y-87376000D01*
X110669000Y-87372000D01*
X110664000Y-87368000D01*
X110660000Y-87364000D01*
X110655000Y-87360000D01*
X110651000Y-87355000D01*
X110647000Y-87351000D01*
X110643000Y-87346000D01*
X110639000Y-87340000D01*
X110636000Y-87335000D01*
X110633000Y-87329000D01*
X110630000Y-87324000D01*
X110628000Y-87318000D01*
X110626000Y-87312000D01*
X110624000Y-87306000D01*
X110623000Y-87300000D01*
X110621000Y-87294000D01*
X110621000Y-87288000D01*
X110620000Y-87281000D01*
X110620000Y-87275000D01*
X110620000Y-87125000D01*
X110620000Y-87119000D01*
X110621000Y-87112000D01*
X110621000Y-87106000D01*
X110623000Y-87100000D01*
X110624000Y-87094000D01*
X110626000Y-87088000D01*
X110628000Y-87082000D01*
X110630000Y-87076000D01*
X110633000Y-87071000D01*
X110636000Y-87065000D01*
X110639000Y-87060000D01*
X110643000Y-87054000D01*
X110647000Y-87049000D01*
X110651000Y-87045000D01*
X110655000Y-87040000D01*
X110660000Y-87036000D01*
X110664000Y-87032000D01*
X110669000Y-87028000D01*
X110675000Y-87024000D01*
X110680000Y-87021000D01*
X110686000Y-87018000D01*
X110691000Y-87015000D01*
X110697000Y-87013000D01*
X110703000Y-87011000D01*
X110709000Y-87009000D01*
X110715000Y-87008000D01*
X110721000Y-87006000D01*
X110727000Y-87006000D01*
X110734000Y-87005000D01*
X110740000Y-87005000D01*
X111940000Y-87005000D01*
X111946000Y-87005000D01*
X111953000Y-87006000D01*
G36*
X111953000Y-87006000D02*
G01*
X111959000Y-87006000D01*
X111965000Y-87008000D01*
X111971000Y-87009000D01*
X111977000Y-87011000D01*
X111983000Y-87013000D01*
X111989000Y-87015000D01*
X111994000Y-87018000D01*
X112000000Y-87021000D01*
X112005000Y-87024000D01*
X112011000Y-87028000D01*
X112016000Y-87032000D01*
X112020000Y-87036000D01*
X112025000Y-87040000D01*
X112029000Y-87045000D01*
X112033000Y-87049000D01*
X112037000Y-87054000D01*
X112041000Y-87060000D01*
X112044000Y-87065000D01*
X112047000Y-87071000D01*
X112050000Y-87076000D01*
X112052000Y-87082000D01*
X112054000Y-87088000D01*
X112056000Y-87094000D01*
X112057000Y-87100000D01*
X112059000Y-87106000D01*
X112059000Y-87112000D01*
X112060000Y-87119000D01*
X112060000Y-87125000D01*
X112060000Y-87275000D01*
X112060000Y-87281000D01*
X112059000Y-87288000D01*
X112059000Y-87294000D01*
X112057000Y-87300000D01*
X112056000Y-87306000D01*
X112054000Y-87312000D01*
X112052000Y-87318000D01*
X112050000Y-87324000D01*
X112047000Y-87329000D01*
X112044000Y-87335000D01*
X112041000Y-87340000D01*
X112037000Y-87346000D01*
X112033000Y-87351000D01*
X112029000Y-87355000D01*
X112025000Y-87360000D01*
X112020000Y-87364000D01*
X112016000Y-87368000D01*
X112011000Y-87372000D01*
X112005000Y-87376000D01*
X112000000Y-87379000D01*
X111994000Y-87382000D01*
X111989000Y-87385000D01*
X111983000Y-87387000D01*
X111977000Y-87389000D01*
X111971000Y-87391000D01*
X111965000Y-87392000D01*
X111959000Y-87394000D01*
X111953000Y-87394000D01*
X111946000Y-87395000D01*
X111940000Y-87395000D01*
X110740000Y-87395000D01*
X110734000Y-87395000D01*
X110727000Y-87394000D01*
X110721000Y-87394000D01*
X110715000Y-87392000D01*
X110709000Y-87391000D01*
X110703000Y-87389000D01*
X110697000Y-87387000D01*
X110691000Y-87385000D01*
X110686000Y-87382000D01*
X110680000Y-87379000D01*
X110675000Y-87376000D01*
X110669000Y-87372000D01*
X110664000Y-87368000D01*
X110660000Y-87364000D01*
X110655000Y-87360000D01*
X110651000Y-87355000D01*
X110647000Y-87351000D01*
X110643000Y-87346000D01*
X110639000Y-87340000D01*
X110636000Y-87335000D01*
X110633000Y-87329000D01*
X110630000Y-87324000D01*
X110628000Y-87318000D01*
X110626000Y-87312000D01*
X110624000Y-87306000D01*
X110623000Y-87300000D01*
X110621000Y-87294000D01*
X110621000Y-87288000D01*
X110620000Y-87281000D01*
X110620000Y-87275000D01*
X110620000Y-87125000D01*
X110620000Y-87119000D01*
X110621000Y-87112000D01*
X110621000Y-87106000D01*
X110623000Y-87100000D01*
X110624000Y-87094000D01*
X110626000Y-87088000D01*
X110628000Y-87082000D01*
X110630000Y-87076000D01*
X110633000Y-87071000D01*
X110636000Y-87065000D01*
X110639000Y-87060000D01*
X110643000Y-87054000D01*
X110647000Y-87049000D01*
X110651000Y-87045000D01*
X110655000Y-87040000D01*
X110660000Y-87036000D01*
X110664000Y-87032000D01*
X110669000Y-87028000D01*
X110675000Y-87024000D01*
X110680000Y-87021000D01*
X110686000Y-87018000D01*
X110691000Y-87015000D01*
X110697000Y-87013000D01*
X110703000Y-87011000D01*
X110709000Y-87009000D01*
X110715000Y-87008000D01*
X110721000Y-87006000D01*
X110727000Y-87006000D01*
X110734000Y-87005000D01*
X110740000Y-87005000D01*
X111940000Y-87005000D01*
X111946000Y-87005000D01*
X111953000Y-87006000D01*
G37*
X111953000Y-87506000D02*
X111959000Y-87506000D01*
X111965000Y-87508000D01*
X111971000Y-87509000D01*
X111977000Y-87511000D01*
X111983000Y-87513000D01*
X111989000Y-87515000D01*
X111994000Y-87518000D01*
X112000000Y-87521000D01*
X112005000Y-87524000D01*
X112011000Y-87528000D01*
X112016000Y-87532000D01*
X112020000Y-87536000D01*
X112025000Y-87540000D01*
X112029000Y-87545000D01*
X112033000Y-87549000D01*
X112037000Y-87554000D01*
X112041000Y-87560000D01*
X112044000Y-87565000D01*
X112047000Y-87571000D01*
X112050000Y-87576000D01*
X112052000Y-87582000D01*
X112054000Y-87588000D01*
X112056000Y-87594000D01*
X112057000Y-87600000D01*
X112059000Y-87606000D01*
X112059000Y-87612000D01*
X112060000Y-87619000D01*
X112060000Y-87625000D01*
X112060000Y-87775000D01*
X112060000Y-87781000D01*
X112059000Y-87788000D01*
X112059000Y-87794000D01*
X112057000Y-87800000D01*
X112056000Y-87806000D01*
X112054000Y-87812000D01*
X112052000Y-87818000D01*
X112050000Y-87824000D01*
X112047000Y-87829000D01*
X112044000Y-87835000D01*
X112041000Y-87840000D01*
X112037000Y-87846000D01*
X112033000Y-87851000D01*
X112029000Y-87855000D01*
X112025000Y-87860000D01*
X112020000Y-87864000D01*
X112016000Y-87868000D01*
X112011000Y-87872000D01*
X112005000Y-87876000D01*
X112000000Y-87879000D01*
X111994000Y-87882000D01*
X111989000Y-87885000D01*
X111983000Y-87887000D01*
X111977000Y-87889000D01*
X111971000Y-87891000D01*
X111965000Y-87892000D01*
X111959000Y-87894000D01*
X111953000Y-87894000D01*
X111946000Y-87895000D01*
X111940000Y-87895000D01*
X111140000Y-87895000D01*
X111134000Y-87895000D01*
X111127000Y-87894000D01*
X111121000Y-87894000D01*
X111115000Y-87892000D01*
X111109000Y-87891000D01*
X111103000Y-87889000D01*
X111097000Y-87887000D01*
X111091000Y-87885000D01*
X111086000Y-87882000D01*
X111080000Y-87879000D01*
X111075000Y-87876000D01*
X111069000Y-87872000D01*
X111064000Y-87868000D01*
X111060000Y-87864000D01*
X111055000Y-87860000D01*
X111051000Y-87855000D01*
X111047000Y-87851000D01*
X111043000Y-87846000D01*
X111039000Y-87840000D01*
X111036000Y-87835000D01*
X111033000Y-87829000D01*
X111030000Y-87824000D01*
X111028000Y-87818000D01*
X111026000Y-87812000D01*
X111024000Y-87806000D01*
X111023000Y-87800000D01*
X111021000Y-87794000D01*
X111021000Y-87788000D01*
X111020000Y-87781000D01*
X111020000Y-87775000D01*
X111020000Y-87625000D01*
X111020000Y-87619000D01*
X111021000Y-87612000D01*
X111021000Y-87606000D01*
X111023000Y-87600000D01*
X111024000Y-87594000D01*
X111026000Y-87588000D01*
X111028000Y-87582000D01*
X111030000Y-87576000D01*
X111033000Y-87571000D01*
X111036000Y-87565000D01*
X111039000Y-87560000D01*
X111043000Y-87554000D01*
X111047000Y-87549000D01*
X111051000Y-87545000D01*
X111055000Y-87540000D01*
X111060000Y-87536000D01*
X111064000Y-87532000D01*
X111069000Y-87528000D01*
X111075000Y-87524000D01*
X111080000Y-87521000D01*
X111086000Y-87518000D01*
X111091000Y-87515000D01*
X111097000Y-87513000D01*
X111103000Y-87511000D01*
X111109000Y-87509000D01*
X111115000Y-87508000D01*
X111121000Y-87506000D01*
X111127000Y-87506000D01*
X111134000Y-87505000D01*
X111140000Y-87505000D01*
X111940000Y-87505000D01*
X111946000Y-87505000D01*
X111953000Y-87506000D01*
G36*
X111953000Y-87506000D02*
G01*
X111959000Y-87506000D01*
X111965000Y-87508000D01*
X111971000Y-87509000D01*
X111977000Y-87511000D01*
X111983000Y-87513000D01*
X111989000Y-87515000D01*
X111994000Y-87518000D01*
X112000000Y-87521000D01*
X112005000Y-87524000D01*
X112011000Y-87528000D01*
X112016000Y-87532000D01*
X112020000Y-87536000D01*
X112025000Y-87540000D01*
X112029000Y-87545000D01*
X112033000Y-87549000D01*
X112037000Y-87554000D01*
X112041000Y-87560000D01*
X112044000Y-87565000D01*
X112047000Y-87571000D01*
X112050000Y-87576000D01*
X112052000Y-87582000D01*
X112054000Y-87588000D01*
X112056000Y-87594000D01*
X112057000Y-87600000D01*
X112059000Y-87606000D01*
X112059000Y-87612000D01*
X112060000Y-87619000D01*
X112060000Y-87625000D01*
X112060000Y-87775000D01*
X112060000Y-87781000D01*
X112059000Y-87788000D01*
X112059000Y-87794000D01*
X112057000Y-87800000D01*
X112056000Y-87806000D01*
X112054000Y-87812000D01*
X112052000Y-87818000D01*
X112050000Y-87824000D01*
X112047000Y-87829000D01*
X112044000Y-87835000D01*
X112041000Y-87840000D01*
X112037000Y-87846000D01*
X112033000Y-87851000D01*
X112029000Y-87855000D01*
X112025000Y-87860000D01*
X112020000Y-87864000D01*
X112016000Y-87868000D01*
X112011000Y-87872000D01*
X112005000Y-87876000D01*
X112000000Y-87879000D01*
X111994000Y-87882000D01*
X111989000Y-87885000D01*
X111983000Y-87887000D01*
X111977000Y-87889000D01*
X111971000Y-87891000D01*
X111965000Y-87892000D01*
X111959000Y-87894000D01*
X111953000Y-87894000D01*
X111946000Y-87895000D01*
X111940000Y-87895000D01*
X111140000Y-87895000D01*
X111134000Y-87895000D01*
X111127000Y-87894000D01*
X111121000Y-87894000D01*
X111115000Y-87892000D01*
X111109000Y-87891000D01*
X111103000Y-87889000D01*
X111097000Y-87887000D01*
X111091000Y-87885000D01*
X111086000Y-87882000D01*
X111080000Y-87879000D01*
X111075000Y-87876000D01*
X111069000Y-87872000D01*
X111064000Y-87868000D01*
X111060000Y-87864000D01*
X111055000Y-87860000D01*
X111051000Y-87855000D01*
X111047000Y-87851000D01*
X111043000Y-87846000D01*
X111039000Y-87840000D01*
X111036000Y-87835000D01*
X111033000Y-87829000D01*
X111030000Y-87824000D01*
X111028000Y-87818000D01*
X111026000Y-87812000D01*
X111024000Y-87806000D01*
X111023000Y-87800000D01*
X111021000Y-87794000D01*
X111021000Y-87788000D01*
X111020000Y-87781000D01*
X111020000Y-87775000D01*
X111020000Y-87625000D01*
X111020000Y-87619000D01*
X111021000Y-87612000D01*
X111021000Y-87606000D01*
X111023000Y-87600000D01*
X111024000Y-87594000D01*
X111026000Y-87588000D01*
X111028000Y-87582000D01*
X111030000Y-87576000D01*
X111033000Y-87571000D01*
X111036000Y-87565000D01*
X111039000Y-87560000D01*
X111043000Y-87554000D01*
X111047000Y-87549000D01*
X111051000Y-87545000D01*
X111055000Y-87540000D01*
X111060000Y-87536000D01*
X111064000Y-87532000D01*
X111069000Y-87528000D01*
X111075000Y-87524000D01*
X111080000Y-87521000D01*
X111086000Y-87518000D01*
X111091000Y-87515000D01*
X111097000Y-87513000D01*
X111103000Y-87511000D01*
X111109000Y-87509000D01*
X111115000Y-87508000D01*
X111121000Y-87506000D01*
X111127000Y-87506000D01*
X111134000Y-87505000D01*
X111140000Y-87505000D01*
X111940000Y-87505000D01*
X111946000Y-87505000D01*
X111953000Y-87506000D01*
G37*
X111953000Y-88006000D02*
X111959000Y-88006000D01*
X111965000Y-88008000D01*
X111971000Y-88009000D01*
X111977000Y-88011000D01*
X111983000Y-88013000D01*
X111989000Y-88015000D01*
X111994000Y-88018000D01*
X112000000Y-88021000D01*
X112005000Y-88024000D01*
X112011000Y-88028000D01*
X112016000Y-88032000D01*
X112020000Y-88036000D01*
X112025000Y-88040000D01*
X112029000Y-88045000D01*
X112033000Y-88049000D01*
X112037000Y-88054000D01*
X112041000Y-88060000D01*
X112044000Y-88065000D01*
X112047000Y-88071000D01*
X112050000Y-88076000D01*
X112052000Y-88082000D01*
X112054000Y-88088000D01*
X112056000Y-88094000D01*
X112057000Y-88100000D01*
X112059000Y-88106000D01*
X112059000Y-88112000D01*
X112060000Y-88119000D01*
X112060000Y-88125000D01*
X112060000Y-88275000D01*
X112060000Y-88281000D01*
X112059000Y-88288000D01*
X112059000Y-88294000D01*
X112057000Y-88300000D01*
X112056000Y-88306000D01*
X112054000Y-88312000D01*
X112052000Y-88318000D01*
X112050000Y-88324000D01*
X112047000Y-88329000D01*
X112044000Y-88335000D01*
X112041000Y-88340000D01*
X112037000Y-88346000D01*
X112033000Y-88351000D01*
X112029000Y-88355000D01*
X112025000Y-88360000D01*
X112020000Y-88364000D01*
X112016000Y-88368000D01*
X112011000Y-88372000D01*
X112005000Y-88376000D01*
X112000000Y-88379000D01*
X111994000Y-88382000D01*
X111989000Y-88385000D01*
X111983000Y-88387000D01*
X111977000Y-88389000D01*
X111971000Y-88391000D01*
X111965000Y-88392000D01*
X111959000Y-88394000D01*
X111953000Y-88394000D01*
X111946000Y-88395000D01*
X111940000Y-88395000D01*
X111140000Y-88395000D01*
X111134000Y-88395000D01*
X111127000Y-88394000D01*
X111121000Y-88394000D01*
X111115000Y-88392000D01*
X111109000Y-88391000D01*
X111103000Y-88389000D01*
X111097000Y-88387000D01*
X111091000Y-88385000D01*
X111086000Y-88382000D01*
X111080000Y-88379000D01*
X111075000Y-88376000D01*
X111069000Y-88372000D01*
X111064000Y-88368000D01*
X111060000Y-88364000D01*
X111055000Y-88360000D01*
X111051000Y-88355000D01*
X111047000Y-88351000D01*
X111043000Y-88346000D01*
X111039000Y-88340000D01*
X111036000Y-88335000D01*
X111033000Y-88329000D01*
X111030000Y-88324000D01*
X111028000Y-88318000D01*
X111026000Y-88312000D01*
X111024000Y-88306000D01*
X111023000Y-88300000D01*
X111021000Y-88294000D01*
X111021000Y-88288000D01*
X111020000Y-88281000D01*
X111020000Y-88275000D01*
X111020000Y-88125000D01*
X111020000Y-88119000D01*
X111021000Y-88112000D01*
X111021000Y-88106000D01*
X111023000Y-88100000D01*
X111024000Y-88094000D01*
X111026000Y-88088000D01*
X111028000Y-88082000D01*
X111030000Y-88076000D01*
X111033000Y-88071000D01*
X111036000Y-88065000D01*
X111039000Y-88060000D01*
X111043000Y-88054000D01*
X111047000Y-88049000D01*
X111051000Y-88045000D01*
X111055000Y-88040000D01*
X111060000Y-88036000D01*
X111064000Y-88032000D01*
X111069000Y-88028000D01*
X111075000Y-88024000D01*
X111080000Y-88021000D01*
X111086000Y-88018000D01*
X111091000Y-88015000D01*
X111097000Y-88013000D01*
X111103000Y-88011000D01*
X111109000Y-88009000D01*
X111115000Y-88008000D01*
X111121000Y-88006000D01*
X111127000Y-88006000D01*
X111134000Y-88005000D01*
X111140000Y-88005000D01*
X111940000Y-88005000D01*
X111946000Y-88005000D01*
X111953000Y-88006000D01*
G36*
X111953000Y-88006000D02*
G01*
X111959000Y-88006000D01*
X111965000Y-88008000D01*
X111971000Y-88009000D01*
X111977000Y-88011000D01*
X111983000Y-88013000D01*
X111989000Y-88015000D01*
X111994000Y-88018000D01*
X112000000Y-88021000D01*
X112005000Y-88024000D01*
X112011000Y-88028000D01*
X112016000Y-88032000D01*
X112020000Y-88036000D01*
X112025000Y-88040000D01*
X112029000Y-88045000D01*
X112033000Y-88049000D01*
X112037000Y-88054000D01*
X112041000Y-88060000D01*
X112044000Y-88065000D01*
X112047000Y-88071000D01*
X112050000Y-88076000D01*
X112052000Y-88082000D01*
X112054000Y-88088000D01*
X112056000Y-88094000D01*
X112057000Y-88100000D01*
X112059000Y-88106000D01*
X112059000Y-88112000D01*
X112060000Y-88119000D01*
X112060000Y-88125000D01*
X112060000Y-88275000D01*
X112060000Y-88281000D01*
X112059000Y-88288000D01*
X112059000Y-88294000D01*
X112057000Y-88300000D01*
X112056000Y-88306000D01*
X112054000Y-88312000D01*
X112052000Y-88318000D01*
X112050000Y-88324000D01*
X112047000Y-88329000D01*
X112044000Y-88335000D01*
X112041000Y-88340000D01*
X112037000Y-88346000D01*
X112033000Y-88351000D01*
X112029000Y-88355000D01*
X112025000Y-88360000D01*
X112020000Y-88364000D01*
X112016000Y-88368000D01*
X112011000Y-88372000D01*
X112005000Y-88376000D01*
X112000000Y-88379000D01*
X111994000Y-88382000D01*
X111989000Y-88385000D01*
X111983000Y-88387000D01*
X111977000Y-88389000D01*
X111971000Y-88391000D01*
X111965000Y-88392000D01*
X111959000Y-88394000D01*
X111953000Y-88394000D01*
X111946000Y-88395000D01*
X111940000Y-88395000D01*
X111140000Y-88395000D01*
X111134000Y-88395000D01*
X111127000Y-88394000D01*
X111121000Y-88394000D01*
X111115000Y-88392000D01*
X111109000Y-88391000D01*
X111103000Y-88389000D01*
X111097000Y-88387000D01*
X111091000Y-88385000D01*
X111086000Y-88382000D01*
X111080000Y-88379000D01*
X111075000Y-88376000D01*
X111069000Y-88372000D01*
X111064000Y-88368000D01*
X111060000Y-88364000D01*
X111055000Y-88360000D01*
X111051000Y-88355000D01*
X111047000Y-88351000D01*
X111043000Y-88346000D01*
X111039000Y-88340000D01*
X111036000Y-88335000D01*
X111033000Y-88329000D01*
X111030000Y-88324000D01*
X111028000Y-88318000D01*
X111026000Y-88312000D01*
X111024000Y-88306000D01*
X111023000Y-88300000D01*
X111021000Y-88294000D01*
X111021000Y-88288000D01*
X111020000Y-88281000D01*
X111020000Y-88275000D01*
X111020000Y-88125000D01*
X111020000Y-88119000D01*
X111021000Y-88112000D01*
X111021000Y-88106000D01*
X111023000Y-88100000D01*
X111024000Y-88094000D01*
X111026000Y-88088000D01*
X111028000Y-88082000D01*
X111030000Y-88076000D01*
X111033000Y-88071000D01*
X111036000Y-88065000D01*
X111039000Y-88060000D01*
X111043000Y-88054000D01*
X111047000Y-88049000D01*
X111051000Y-88045000D01*
X111055000Y-88040000D01*
X111060000Y-88036000D01*
X111064000Y-88032000D01*
X111069000Y-88028000D01*
X111075000Y-88024000D01*
X111080000Y-88021000D01*
X111086000Y-88018000D01*
X111091000Y-88015000D01*
X111097000Y-88013000D01*
X111103000Y-88011000D01*
X111109000Y-88009000D01*
X111115000Y-88008000D01*
X111121000Y-88006000D01*
X111127000Y-88006000D01*
X111134000Y-88005000D01*
X111140000Y-88005000D01*
X111940000Y-88005000D01*
X111946000Y-88005000D01*
X111953000Y-88006000D01*
G37*
%TD*%
D11*
%TO.C,U2*%
X161714944Y-100045000D03*
X161714944Y-100695000D03*
X161714944Y-101345000D03*
X161714944Y-101995000D03*
X161714944Y-102645000D03*
X161714944Y-103295000D03*
X161714944Y-103945000D03*
X161714944Y-104595000D03*
X167439944Y-104595000D03*
X167439944Y-103945000D03*
X167439944Y-103295000D03*
X167439944Y-102645000D03*
X167439944Y-101995000D03*
X167439944Y-101345000D03*
X167439944Y-100695000D03*
X167439944Y-100045000D03*
%TD*%
D12*
%TO.C,TP18*%
X128800000Y-87250000D03*
%TD*%
%TO.C,TP11*%
X167160000Y-80220000D03*
%TD*%
D13*
%TO.C,C11*%
X105590000Y-65672500D03*
X105590000Y-62547500D03*
%TD*%
D12*
%TO.C,TP4*%
X101320000Y-94750000D03*
%TD*%
D14*
%TO.C,R5*%
X121560000Y-82260000D03*
X124660000Y-82260000D03*
%TD*%
D15*
%TO.C,R8*%
X133097500Y-85050000D03*
X131902500Y-85050000D03*
%TD*%
D16*
%TO.C,R3*%
X166044944Y-96635000D03*
X162944944Y-96635000D03*
%TD*%
D17*
%TO.C,U5*%
X100780000Y-55187500D03*
X100780000Y-54237500D03*
X100780000Y-53287500D03*
X97360000Y-53287500D03*
X97360000Y-55187500D03*
%TD*%
D18*
%TO.C,J3*%
X145580000Y-69420000D03*
D19*
X147580000Y-69420000D03*
%TD*%
D20*
%TO.C,C5*%
X110560000Y-97312500D03*
X110560000Y-98447500D03*
%TD*%
D15*
%TO.C,R2*%
X135777500Y-97090000D03*
X134582500Y-97090000D03*
%TD*%
D21*
%TO.C,R21*%
X107250000Y-82775000D03*
X107250000Y-81580000D03*
%TD*%
D15*
%TO.C,R4*%
X167829944Y-105935000D03*
X166634944Y-105935000D03*
%TD*%
D22*
%TO.C,U3*%
X150815000Y-57010000D03*
X150815000Y-57660000D03*
X150815000Y-58310000D03*
X152870000Y-58310000D03*
X152870000Y-57660000D03*
X152870000Y-57010000D03*
D23*
X151842500Y-57660000D03*
%TD*%
D11*
%TO.C,U8*%
X104497500Y-100045000D03*
X104497500Y-100695000D03*
X104497500Y-101345000D03*
X104497500Y-101995000D03*
X104497500Y-102645000D03*
X104497500Y-103295000D03*
X104497500Y-103945000D03*
X104497500Y-104595000D03*
X110222500Y-104595000D03*
X110222500Y-103945000D03*
X110222500Y-103295000D03*
X110222500Y-102645000D03*
X110222500Y-101995000D03*
X110222500Y-101345000D03*
X110222500Y-100695000D03*
X110222500Y-100045000D03*
%TD*%
D24*
%TO.C,R13*%
X150182500Y-96840000D03*
X151377500Y-96840000D03*
%TD*%
D25*
%TO.C,U6*%
X121850000Y-89695000D03*
X121850000Y-90345000D03*
X121850000Y-91005000D03*
X121850000Y-91655000D03*
X124550000Y-91655000D03*
X124550000Y-91005000D03*
X124550000Y-90345000D03*
X124550000Y-89695000D03*
%TD*%
D26*
%TO.C,U9*%
X160440000Y-82947500D03*
X160440000Y-85247500D03*
D27*
X166740000Y-85247500D03*
D26*
X160440000Y-87547500D03*
%TD*%
D12*
%TO.C,TP20*%
X107220000Y-79800000D03*
%TD*%
D28*
%TO.C,C6*%
X108227500Y-106480000D03*
X106152500Y-106480000D03*
%TD*%
D12*
%TO.C,TP14*%
X160340000Y-59040000D03*
%TD*%
D29*
%TO.C,C19*%
X156852500Y-82390000D03*
X157987500Y-82390000D03*
%TD*%
D30*
%TO.C,C15*%
X117680000Y-87840000D03*
X117680000Y-86705000D03*
%TD*%
D12*
%TO.C,TP13*%
X139810000Y-82760000D03*
%TD*%
D31*
%TO.C,C14*%
X130947500Y-82170000D03*
X132672500Y-82170000D03*
%TD*%
D12*
%TO.C,TP2*%
X171510000Y-94590000D03*
%TD*%
D29*
%TO.C,C17*%
X156825000Y-85030000D03*
X157960000Y-85030000D03*
%TD*%
D32*
%TO.C,R12*%
X142995000Y-88820000D03*
X145045000Y-88820000D03*
%TD*%
D33*
%TO.C,D1*%
X132832500Y-89900000D03*
X134332500Y-89900000D03*
%TD*%
D14*
%TO.C,R17*%
X105700000Y-96700000D03*
X108800000Y-96700000D03*
%TD*%
D34*
%TO.C,J1*%
X155380000Y-101370000D03*
D35*
X155380000Y-103910000D03*
X152840000Y-101370000D03*
X152840000Y-103910000D03*
X150300000Y-101370000D03*
X150300000Y-103910000D03*
X147760000Y-101370000D03*
X147760000Y-103910000D03*
X145220000Y-101370000D03*
X145220000Y-103910000D03*
X142680000Y-101370000D03*
X142680000Y-103910000D03*
X140140000Y-101370000D03*
X140140000Y-103910000D03*
X137600000Y-101370000D03*
X137600000Y-103910000D03*
X135060000Y-101370000D03*
X135060000Y-103910000D03*
X132520000Y-101370000D03*
X132520000Y-103910000D03*
X129980000Y-101370000D03*
X129980000Y-103910000D03*
X127440000Y-101370000D03*
X127440000Y-103910000D03*
X124900000Y-101370000D03*
X124900000Y-103910000D03*
X122360000Y-101370000D03*
X122360000Y-103910000D03*
X119820000Y-101370000D03*
X119820000Y-103910000D03*
X117280000Y-101370000D03*
X117280000Y-103910000D03*
%TD*%
D15*
%TO.C,R9*%
X128937500Y-91340000D03*
X127742500Y-91340000D03*
%TD*%
D12*
%TO.C,TP6*%
X108460000Y-61800000D03*
%TD*%
D30*
%TO.C,C13*%
X107810000Y-87257500D03*
X107810000Y-86122500D03*
%TD*%
D12*
%TO.C,TP15*%
X160740000Y-53080000D03*
%TD*%
%TO.C,TP9*%
X132890000Y-67460000D03*
%TD*%
D24*
%TO.C,R10*%
X136355000Y-87470000D03*
X137550000Y-87470000D03*
%TD*%
D36*
%TO.C,C1*%
X150837500Y-52930000D03*
X153962500Y-52930000D03*
%TD*%
D12*
%TO.C,TP12*%
X147620000Y-82740000D03*
%TD*%
%TO.C,TP16*%
X151470000Y-87800000D03*
%TD*%
D37*
%TO.C,C2*%
X171212444Y-99595000D03*
X170077444Y-99595000D03*
%TD*%
D36*
%TO.C,C8*%
X127577500Y-94880000D03*
X130702500Y-94880000D03*
%TD*%
D38*
%TO.C,R22*%
X110297500Y-90860000D03*
X112122500Y-90860000D03*
%TD*%
D12*
%TO.C,TP8*%
X118260000Y-82120000D03*
%TD*%
D39*
%TO.C,R7*%
X130860000Y-89952500D03*
X130860000Y-91147500D03*
%TD*%
D40*
%TO.C,D2*%
X134900000Y-87590000D03*
X133400000Y-87590000D03*
%TD*%
D24*
%TO.C,R11*%
X151402500Y-92570000D03*
X152597500Y-92570000D03*
%TD*%
D12*
%TO.C,TP17*%
X155990000Y-87910000D03*
%TD*%
D15*
%TO.C,R14*%
X138360000Y-96720000D03*
X137165000Y-96720000D03*
%TD*%
%TO.C,R23*%
X130397500Y-67300000D03*
X129202500Y-67300000D03*
%TD*%
D30*
%TO.C,C18*%
X104270000Y-107257500D03*
X104270000Y-106122500D03*
%TD*%
D41*
%TO.C,C7*%
X137690000Y-90750000D03*
X137690000Y-91710000D03*
%TD*%
D12*
%TO.C,TP3*%
X97300000Y-96080000D03*
%TD*%
D42*
%TO.C,J2*%
X142380000Y-57930000D03*
D43*
X140360000Y-57930000D03*
D44*
X139130000Y-57930000D03*
D45*
X141380000Y-57930000D03*
D46*
X143400000Y-57930000D03*
D47*
X144630000Y-57930000D03*
D48*
X146200000Y-57850000D03*
X146200000Y-54050000D03*
X137560000Y-57850000D03*
X137560000Y-54050000D03*
%TD*%
D28*
%TO.C,C3*%
X171812444Y-104615000D03*
X169737444Y-104615000D03*
%TD*%
D24*
%TO.C,R18*%
X108882500Y-84370000D03*
X110077500Y-84370000D03*
%TD*%
D21*
%TO.C,R19*%
X99670000Y-103317500D03*
X99670000Y-102122500D03*
%TD*%
D37*
%TO.C,C4*%
X171212444Y-102015000D03*
X170077444Y-102015000D03*
%TD*%
D12*
%TO.C,TP19*%
X104540000Y-54770000D03*
%TD*%
D49*
%TO.C,U1*%
X136340000Y-94200000D03*
X136340000Y-93700000D03*
X136340000Y-93200000D03*
X136340000Y-92700000D03*
D50*
X135652500Y-92012500D03*
X135152500Y-92012500D03*
X134652500Y-92012500D03*
X134152500Y-92012500D03*
D49*
X133465000Y-92700000D03*
X133465000Y-93200000D03*
X133465000Y-93700000D03*
X133465000Y-94200000D03*
D50*
X134152500Y-94887500D03*
X134652500Y-94887500D03*
X135152500Y-94887500D03*
X135652500Y-94887500D03*
D51*
X134902500Y-93450000D03*
%TD*%
D37*
%TO.C,C9*%
X115215000Y-62800000D03*
X114080000Y-62800000D03*
%TD*%
D14*
%TO.C,R6*%
X121560000Y-85550000D03*
X124660000Y-85550000D03*
%TD*%
D12*
%TO.C,TP5*%
X109400000Y-82580000D03*
%TD*%
%TO.C,TP10*%
X125870000Y-68420000D03*
%TD*%
D38*
%TO.C,R1*%
X156367500Y-55490000D03*
X158192500Y-55490000D03*
%TD*%
D52*
%TO.C,Q3*%
X147590000Y-94547500D03*
X147590000Y-92647500D03*
X144590000Y-93597500D03*
%TD*%
D53*
%TO.C,SW2*%
X118550000Y-64028500D03*
X123350000Y-64028500D03*
X128150000Y-64028500D03*
X116700000Y-54828500D03*
X130000000Y-54828500D03*
%TD*%
D17*
%TO.C,U4*%
X111530000Y-55617500D03*
X111530000Y-54667500D03*
X111530000Y-53717500D03*
X108110000Y-53717500D03*
X108110000Y-55617500D03*
%TD*%
D38*
%TO.C,R20*%
X106657500Y-90850000D03*
X108482500Y-90850000D03*
%TD*%
D12*
%TO.C,TP1*%
X162430000Y-94060000D03*
%TD*%
D13*
%TO.C,C10*%
X97040000Y-64032500D03*
X97040000Y-60907500D03*
%TD*%
D54*
%TO.C,L1*%
X114145000Y-90850000D03*
X115895000Y-90850000D03*
%TD*%
D30*
%TO.C,C16*%
X114390000Y-88297500D03*
X114390000Y-87162500D03*
%TD*%
D12*
%TO.C,TP7*%
X154250000Y-83430000D03*
%TD*%
D37*
%TO.C,C12*%
X115525000Y-85470000D03*
X114390000Y-85470000D03*
%TD*%
M02*
