M48
; DRILL file {KiCad 9.0.0} date 2025-03-28T14:38:41+0200
; FORMAT={-:-/ absolute / inch / decimal}
; #@! TF.CreationDate,2025-03-28T14:38:41+02:00
; #@! TF.GenerationSoftware,Kicad,Pcbnew,9.0.0
; #@! TF.FileFunction,Plated,1,2,PTH
FMAT,2
INCH
; #@! TA.AperFunction,Plated,PTH,ViaDrill
T1C0.0118
; #@! TA.AperFunction,Plated,PTH,ComponentDrill
T2C0.0236
; #@! TA.AperFunction,Plated,PTH,ComponentDrill
T3C0.0295
; #@! TA.AperFunction,Plated,PTH,ComponentDrill
T4C0.0394
; #@! TA.AperFunction,Plated,PTH,ComponentDrill
T5C0.0630
; #@! TA.AperFunction,Plated,PTH,ComponentDrill
T6C0.0669
%
G90
G05
T1
X3.7957Y-2.2492
X3.952Y-4.1992
X3.9953Y-2.2012
X4.0004Y-3.989
X4.0008Y-4.1496
X4.0276Y-2.6764
X4.0614Y-3.7917
X4.0654Y-4.1657
X4.0839Y-2.5028
X4.1354Y-2.6772
X4.1484Y-2.5209
X4.1811Y-4.0764
X4.1815Y-3.2937
X4.2012Y-3.0764
X4.2331Y-3.4642
X4.2362Y-3.9047
X4.237Y-4.0937
X4.2642Y-4.0685
X4.2795Y-3.4673
X4.2799Y-3.5276
X4.3953Y-2.5126
X4.4504Y-3.4417
X4.4667Y-3.8687
X4.4906Y-4.3256
X4.5319Y-3.5252
X4.6512Y-2.6366
X4.6654Y-4.2811
X4.6752Y-3.876
X4.6925Y-3.4185
X4.6963Y-3.5313
X4.7335Y-3.4949
X4.7402Y-3.9075
X4.75Y-4.2181
X4.7917Y-4.3299
X4.7953Y-3.7969
X4.8126Y-4.2264
X4.848Y-3.372
X4.8508Y-3.7504
X4.8957Y-3.763
X4.9028Y-2.5673
X4.9091Y-4.2539
X4.9461Y-3.7941
X5.0394Y-3.9031
X5.0476Y-2.6087
X5.0559Y-3.235
X5.065Y-4.2327
X5.1091Y-3.9154
X5.1284Y-4.3646
X5.1299Y-4.1677
X5.2106Y-2.2953
X5.2303Y-3.4957
X5.2309Y-3.8348
X5.3063Y-3.235
X5.3228Y-3.9024
X5.3543Y-3.7839
X5.3638Y-3.5417
X5.424Y-3.8551
X5.4366Y-2.5787
X5.4654Y-3.5654
X5.474Y-3.0878
X5.4783Y-3.8976
X5.5197Y-3.8185
X5.5287Y-2.3642
X5.5724Y-2.2209
X5.6102Y-4.1705
X5.6157Y-3.9157
X5.6287Y-2.3587
X5.6543Y-4.2646
X5.6965Y-2.2311
X5.7213Y-3.9217
X5.7547Y-4.3583
X5.761Y-3.8417
X5.7992Y-4.2232
X5.8205Y-2.276
X5.8685Y-2.1831
X5.9248Y-4.2169
X6.0449Y-3.6953
X6.0677Y-2.3591
X6.0874Y-2.2071
X6.0906Y-4.2248
X6.1228Y-3.6575
X6.1228Y-3.7217
X6.1228Y-3.8165
X6.1732Y-3.8693
X6.2429Y-3.7583
X6.289Y-3.985
X6.2988Y-4.0346
X6.3465Y-4.2594
X6.4075Y-4.3618
X6.4402Y-3.4122
X6.4831Y-3.0965
X6.4858Y-4.2681
X6.5031Y-4.1642
X6.5335Y-4.0724
X6.5488Y-4.1181
X6.6236Y-3.8441
X6.6512Y-3.8787
X6.6799Y-3.7902
X6.7047Y-3.826
T3
X5.7315Y-2.7331
X5.8102Y-2.7331
T4
X4.6173Y-3.9909
X4.6173Y-4.0909
X4.7173Y-3.9909
X4.7173Y-4.0909
X4.8173Y-3.9909
X4.8173Y-4.0909
X4.9173Y-3.9909
X4.9173Y-4.0909
X5.0173Y-3.9909
X5.0173Y-4.0909
X5.1173Y-3.9909
X5.1173Y-4.0909
X5.2173Y-3.9909
X5.2173Y-4.0909
X5.3173Y-3.9909
X5.3173Y-4.0909
X5.4173Y-3.9909
X5.4173Y-4.0909
X5.5173Y-3.9909
X5.5173Y-4.0909
X5.6173Y-3.9909
X5.6173Y-4.0909
X5.7173Y-3.9909
X5.7173Y-4.0909
X5.8173Y-3.9909
X5.8173Y-4.0909
X5.9173Y-3.9909
X5.9173Y-4.0909
X6.0173Y-3.9909
X6.0173Y-4.0909
X6.1173Y-3.9909
X6.1173Y-4.0909
T5
X4.5945Y-2.1586
X5.1181Y-2.1586
T6
X4.6673Y-2.5208
X4.8563Y-2.5208
X5.0453Y-2.5208
T2
G00X5.4157Y-2.1398
M15
G01X5.4157Y-2.1161
M16
G05
G00X5.4157Y-2.2894
M15
G01X5.4157Y-2.2657
M16
G05
G00X5.7559Y-2.1398
M15
G01X5.7559Y-2.1161
M16
G05
G00X5.7559Y-2.2894
M15
G01X5.7559Y-2.2657
M16
G05
M30
